<mxfile host="Electron" modified="2024-06-01T17:56:27.914Z" agent="Mozilla/5.0 (Windows NT 10.0; Win64; x64) AppleWebKit/537.36 (KHTML, like Gecko) draw.io/23.0.2 Chrome/120.0.6099.109 Electron/28.1.0 Safari/537.36" etag="sJ9aQwT-04IgHrRCiCmi" version="23.0.2" type="device" pages="2">
  <diagram name="Página-1" id="usan8BLxadwoLh-bCSt_">
    <mxGraphModel dx="2439" dy="2793" grid="1" gridSize="10" guides="1" tooltips="1" connect="1" arrows="1" fold="1" page="1" pageScale="1" pageWidth="827" pageHeight="1169" math="0" shadow="0">
      <root>
        <mxCell id="0" />
        <mxCell id="1" parent="0" />
        <mxCell id="uKwBP-VBY_xrLnJlRJrp-68" style="edgeStyle=orthogonalEdgeStyle;rounded=0;orthogonalLoop=1;jettySize=auto;html=1;exitX=0;exitY=0.5;exitDx=0;exitDy=0;entryX=1;entryY=0.5;entryDx=0;entryDy=0;" parent="1" source="uKwBP-VBY_xrLnJlRJrp-1" target="uKwBP-VBY_xrLnJlRJrp-3" edge="1">
          <mxGeometry relative="1" as="geometry" />
        </mxCell>
        <mxCell id="uKwBP-VBY_xrLnJlRJrp-253" style="edgeStyle=orthogonalEdgeStyle;rounded=0;orthogonalLoop=1;jettySize=auto;html=1;exitX=1;exitY=0.5;exitDx=0;exitDy=0;entryX=0;entryY=0.5;entryDx=0;entryDy=0;" parent="1" source="uKwBP-VBY_xrLnJlRJrp-1" target="uKwBP-VBY_xrLnJlRJrp-4" edge="1">
          <mxGeometry relative="1" as="geometry" />
        </mxCell>
        <mxCell id="uKwBP-VBY_xrLnJlRJrp-1" value="Green Cycle" style="ellipse;whiteSpace=wrap;html=1;aspect=fixed;fontSize=19;fillColor=#007070;" parent="1" vertex="1">
          <mxGeometry x="360" y="290" width="140" height="140" as="geometry" />
        </mxCell>
        <mxCell id="uKwBP-VBY_xrLnJlRJrp-69" style="edgeStyle=orthogonalEdgeStyle;rounded=0;orthogonalLoop=1;jettySize=auto;html=1;exitX=0;exitY=0.5;exitDx=0;exitDy=0;entryX=1;entryY=0.5;entryDx=0;entryDy=0;" parent="1" source="uKwBP-VBY_xrLnJlRJrp-3" target="uKwBP-VBY_xrLnJlRJrp-5" edge="1">
          <mxGeometry relative="1" as="geometry" />
        </mxCell>
        <mxCell id="uKwBP-VBY_xrLnJlRJrp-3" value="Interface&amp;nbsp;" style="ellipse;whiteSpace=wrap;html=1;fillColor=#002E00;" parent="1" vertex="1">
          <mxGeometry x="70" y="320" width="120" height="80" as="geometry" />
        </mxCell>
        <mxCell id="uKwBP-VBY_xrLnJlRJrp-254" style="edgeStyle=orthogonalEdgeStyle;rounded=0;orthogonalLoop=1;jettySize=auto;html=1;exitX=1;exitY=0.5;exitDx=0;exitDy=0;entryX=0;entryY=0.5;entryDx=0;entryDy=0;" parent="1" source="uKwBP-VBY_xrLnJlRJrp-4" target="uKwBP-VBY_xrLnJlRJrp-11" edge="1">
          <mxGeometry relative="1" as="geometry" />
        </mxCell>
        <mxCell id="uKwBP-VBY_xrLnJlRJrp-4" value="Funcionalidade" style="ellipse;whiteSpace=wrap;html=1;fillColor=#001F59;" parent="1" vertex="1">
          <mxGeometry x="670" y="320" width="120" height="80" as="geometry" />
        </mxCell>
        <mxCell id="uKwBP-VBY_xrLnJlRJrp-5" value="Página inicial" style="rounded=1;whiteSpace=wrap;html=1;fillColor=#005E00;fontSize=14;" parent="1" vertex="1">
          <mxGeometry x="-180" y="330" width="120" height="60" as="geometry" />
        </mxCell>
        <mxCell id="uKwBP-VBY_xrLnJlRJrp-77" style="edgeStyle=orthogonalEdgeStyle;rounded=0;orthogonalLoop=1;jettySize=auto;html=1;exitX=0;exitY=0.5;exitDx=0;exitDy=0;entryX=1;entryY=0.5;entryDx=0;entryDy=0;" parent="1" source="uKwBP-VBY_xrLnJlRJrp-6" target="uKwBP-VBY_xrLnJlRJrp-21" edge="1">
          <mxGeometry relative="1" as="geometry" />
        </mxCell>
        <mxCell id="uKwBP-VBY_xrLnJlRJrp-6" value="Sobre" style="rounded=0;whiteSpace=wrap;html=1;fillColor=#005E00;" parent="1" vertex="1">
          <mxGeometry x="-440" y="330" width="120" height="60" as="geometry" />
        </mxCell>
        <mxCell id="uKwBP-VBY_xrLnJlRJrp-76" style="edgeStyle=orthogonalEdgeStyle;rounded=0;orthogonalLoop=1;jettySize=auto;html=1;exitX=0;exitY=0.5;exitDx=0;exitDy=0;entryX=1;entryY=0.5;entryDx=0;entryDy=0;" parent="1" source="uKwBP-VBY_xrLnJlRJrp-7" target="uKwBP-VBY_xrLnJlRJrp-24" edge="1">
          <mxGeometry relative="1" as="geometry" />
        </mxCell>
        <mxCell id="uKwBP-VBY_xrLnJlRJrp-7" value="Loja&amp;nbsp;" style="rounded=0;whiteSpace=wrap;html=1;fillColor=#005E00;" parent="1" vertex="1">
          <mxGeometry x="-440" y="170" width="120" height="60" as="geometry" />
        </mxCell>
        <mxCell id="uKwBP-VBY_xrLnJlRJrp-78" style="edgeStyle=orthogonalEdgeStyle;rounded=0;orthogonalLoop=1;jettySize=auto;html=1;exitX=0;exitY=0.5;exitDx=0;exitDy=0;entryX=1;entryY=0.5;entryDx=0;entryDy=0;" parent="1" source="uKwBP-VBY_xrLnJlRJrp-8" target="uKwBP-VBY_xrLnJlRJrp-23" edge="1">
          <mxGeometry relative="1" as="geometry" />
        </mxCell>
        <mxCell id="uKwBP-VBY_xrLnJlRJrp-8" value="Pontos de coleta" style="rounded=0;whiteSpace=wrap;html=1;fillColor=#005E00;" parent="1" vertex="1">
          <mxGeometry x="-440" y="480" width="120" height="60" as="geometry" />
        </mxCell>
        <mxCell id="uKwBP-VBY_xrLnJlRJrp-79" style="edgeStyle=orthogonalEdgeStyle;rounded=0;orthogonalLoop=1;jettySize=auto;html=1;exitX=0;exitY=0.5;exitDx=0;exitDy=0;entryX=1;entryY=0.5;entryDx=0;entryDy=0;" parent="1" source="uKwBP-VBY_xrLnJlRJrp-9" target="uKwBP-VBY_xrLnJlRJrp-29" edge="1">
          <mxGeometry relative="1" as="geometry" />
        </mxCell>
        <mxCell id="uKwBP-VBY_xrLnJlRJrp-9" value="Contato" style="rounded=0;whiteSpace=wrap;html=1;fillColor=#005E00;" parent="1" vertex="1">
          <mxGeometry x="-440" y="610" width="120" height="60" as="geometry" />
        </mxCell>
        <mxCell id="uKwBP-VBY_xrLnJlRJrp-11" value="Página inicial" style="rounded=1;whiteSpace=wrap;html=1;fillColor=#002B80;fontSize=14;" parent="1" vertex="1">
          <mxGeometry x="910" y="330" width="120" height="60" as="geometry" />
        </mxCell>
        <mxCell id="uKwBP-VBY_xrLnJlRJrp-290" style="edgeStyle=orthogonalEdgeStyle;rounded=0;orthogonalLoop=1;jettySize=auto;html=1;exitX=1;exitY=0.5;exitDx=0;exitDy=0;entryX=0;entryY=0.5;entryDx=0;entryDy=0;" parent="1" source="uKwBP-VBY_xrLnJlRJrp-12" target="uKwBP-VBY_xrLnJlRJrp-28" edge="1">
          <mxGeometry relative="1" as="geometry">
            <mxPoint x="1400" y="169.71428571428567" as="targetPoint" />
          </mxGeometry>
        </mxCell>
        <mxCell id="uKwBP-VBY_xrLnJlRJrp-12" value="Loja&amp;nbsp;" style="rounded=0;whiteSpace=wrap;html=1;fillColor=#002B80;" parent="1" vertex="1">
          <mxGeometry x="1181" y="135" width="120" height="60" as="geometry" />
        </mxCell>
        <mxCell id="uKwBP-VBY_xrLnJlRJrp-13" value="Sobre" style="rounded=0;whiteSpace=wrap;html=1;fillColor=#002B80;" parent="1" vertex="1">
          <mxGeometry x="1180" y="370" width="120" height="60" as="geometry" />
        </mxCell>
        <mxCell id="uKwBP-VBY_xrLnJlRJrp-14" value="Pontos de coleta" style="rounded=0;whiteSpace=wrap;html=1;fillColor=#002B80;" parent="1" vertex="1">
          <mxGeometry x="1181" y="525" width="120" height="60" as="geometry" />
        </mxCell>
        <mxCell id="uKwBP-VBY_xrLnJlRJrp-39" style="edgeStyle=orthogonalEdgeStyle;rounded=0;orthogonalLoop=1;jettySize=auto;html=1;exitX=1;exitY=0.5;exitDx=0;exitDy=0;entryX=0;entryY=0.5;entryDx=0;entryDy=0;" parent="1" source="uKwBP-VBY_xrLnJlRJrp-15" target="uKwBP-VBY_xrLnJlRJrp-25" edge="1">
          <mxGeometry relative="1" as="geometry" />
        </mxCell>
        <mxCell id="uKwBP-VBY_xrLnJlRJrp-15" value="Contato" style="rounded=0;whiteSpace=wrap;html=1;fillColor=#002B80;" parent="1" vertex="1">
          <mxGeometry x="1181" y="670" width="120" height="60" as="geometry" />
        </mxCell>
        <mxCell id="uKwBP-VBY_xrLnJlRJrp-80" style="edgeStyle=orthogonalEdgeStyle;rounded=0;orthogonalLoop=1;jettySize=auto;html=1;exitX=0;exitY=0.5;exitDx=0;exitDy=0;entryX=1;entryY=0.5;entryDx=0;entryDy=0;" parent="1" source="uKwBP-VBY_xrLnJlRJrp-16" target="uKwBP-VBY_xrLnJlRJrp-30" edge="1">
          <mxGeometry relative="1" as="geometry" />
        </mxCell>
        <mxCell id="uKwBP-VBY_xrLnJlRJrp-16" value="Ícone &quot;Pesquisar&quot;" style="rounded=0;whiteSpace=wrap;html=1;fillColor=#005E00;" parent="1" vertex="1">
          <mxGeometry x="-440" y="760" width="120" height="60" as="geometry" />
        </mxCell>
        <mxCell id="uKwBP-VBY_xrLnJlRJrp-297" style="edgeStyle=orthogonalEdgeStyle;rounded=0;orthogonalLoop=1;jettySize=auto;html=1;exitX=1;exitY=0.5;exitDx=0;exitDy=0;entryX=-0.013;entryY=0.557;entryDx=0;entryDy=0;entryPerimeter=0;" parent="1" source="uKwBP-VBY_xrLnJlRJrp-18" target="uKwBP-VBY_xrLnJlRJrp-26" edge="1">
          <mxGeometry relative="1" as="geometry">
            <mxPoint x="1390.0000000000005" y="830.217391304348" as="targetPoint" />
          </mxGeometry>
        </mxCell>
        <mxCell id="uKwBP-VBY_xrLnJlRJrp-18" value="Ícone &quot;Pesquisar&quot;" style="rounded=0;whiteSpace=wrap;html=1;fillColor=#002B80;" parent="1" vertex="1">
          <mxGeometry x="1181" y="800" width="120" height="60" as="geometry" />
        </mxCell>
        <mxCell id="uKwBP-VBY_xrLnJlRJrp-20" value="Apresentação detalhada sobre o Green Cicle" style="rounded=0;whiteSpace=wrap;html=1;fillColor=#0046D1;" parent="1" vertex="1">
          <mxGeometry x="1405" y="370" width="110" height="50" as="geometry" />
        </mxCell>
        <mxCell id="uKwBP-VBY_xrLnJlRJrp-21" value="Apresentação detalhada sobre o Green Cicle" style="rounded=0;whiteSpace=wrap;html=1;fillColor=#009C00;" parent="1" vertex="1">
          <mxGeometry x="-660" y="335" width="110" height="50" as="geometry" />
        </mxCell>
        <mxCell id="uKwBP-VBY_xrLnJlRJrp-22" value="Mapa apresentando os pontos de coleta da região&amp;nbsp;" style="rounded=0;whiteSpace=wrap;html=1;fillColor=#0046D1;" parent="1" vertex="1">
          <mxGeometry x="1400" y="525" width="120" height="55" as="geometry" />
        </mxCell>
        <mxCell id="uKwBP-VBY_xrLnJlRJrp-23" value="Mapa apresentando os pontos de coleta da região&amp;nbsp;" style="rounded=0;whiteSpace=wrap;html=1;fillColor=#009C00;" parent="1" vertex="1">
          <mxGeometry x="-665" y="482.5" width="120" height="55" as="geometry" />
        </mxCell>
        <mxCell id="uKwBP-VBY_xrLnJlRJrp-24" value="Página da loja" style="rounded=0;whiteSpace=wrap;html=1;fillColor=#009C00;" parent="1" vertex="1">
          <mxGeometry x="-660" y="175" width="110" height="50" as="geometry" />
        </mxCell>
        <mxCell id="uKwBP-VBY_xrLnJlRJrp-25" value="Usuário direcionado ao rodapé da página" style="rounded=0;whiteSpace=wrap;html=1;fillColor=#0046D1;" parent="1" vertex="1">
          <mxGeometry x="1405" y="672.5" width="120" height="55" as="geometry" />
        </mxCell>
        <mxCell id="uKwBP-VBY_xrLnJlRJrp-26" value="Barra de pesquisa da página" style="rounded=0;whiteSpace=wrap;html=1;fillColor=#0046D1;" parent="1" vertex="1">
          <mxGeometry x="1400" y="800" width="120" height="55" as="geometry" />
        </mxCell>
        <mxCell id="uKwBP-VBY_xrLnJlRJrp-28" value="Página da loja" style="rounded=0;whiteSpace=wrap;html=1;fillColor=#0046D1;" parent="1" vertex="1">
          <mxGeometry x="1405" y="140" width="110" height="50" as="geometry" />
        </mxCell>
        <mxCell id="uKwBP-VBY_xrLnJlRJrp-29" value="Usuário direcionado ao rodapé da página" style="rounded=0;whiteSpace=wrap;html=1;fillColor=#009C00;" parent="1" vertex="1">
          <mxGeometry x="-665" y="612.5" width="120" height="55" as="geometry" />
        </mxCell>
        <mxCell id="uKwBP-VBY_xrLnJlRJrp-30" value="Barra de pesquisa da página" style="rounded=0;whiteSpace=wrap;html=1;fillColor=#009C00;" parent="1" vertex="1">
          <mxGeometry x="-665" y="762.5" width="120" height="55" as="geometry" />
        </mxCell>
        <mxCell id="uKwBP-VBY_xrLnJlRJrp-32" value="Número de telefone" style="rounded=0;whiteSpace=wrap;html=1;fillColor=#009C00;" parent="1" vertex="1">
          <mxGeometry x="-880" y="620" width="90" height="40" as="geometry" />
        </mxCell>
        <mxCell id="uKwBP-VBY_xrLnJlRJrp-33" value="Chat" style="rounded=0;whiteSpace=wrap;html=1;fillColor=#009C00;" parent="1" vertex="1">
          <mxGeometry x="-880" y="670" width="90" height="40" as="geometry" />
        </mxCell>
        <mxCell id="uKwBP-VBY_xrLnJlRJrp-34" value="Email" style="rounded=0;whiteSpace=wrap;html=1;fillColor=#009C00;" parent="1" vertex="1">
          <mxGeometry x="-880" y="567.5" width="90" height="40" as="geometry" />
        </mxCell>
        <mxCell id="KmOtgh7a1UM6X6IASe2r-30" style="edgeStyle=orthogonalEdgeStyle;rounded=0;orthogonalLoop=1;jettySize=auto;html=1;exitX=1;exitY=0.5;exitDx=0;exitDy=0;entryX=0;entryY=0.5;entryDx=0;entryDy=0;" edge="1" parent="1" source="uKwBP-VBY_xrLnJlRJrp-36" target="KmOtgh7a1UM6X6IASe2r-29">
          <mxGeometry relative="1" as="geometry" />
        </mxCell>
        <mxCell id="uKwBP-VBY_xrLnJlRJrp-36" value="Email" style="rounded=0;whiteSpace=wrap;html=1;fillColor=#0046D1;" parent="1" vertex="1">
          <mxGeometry x="1630" y="627.5" width="90" height="40" as="geometry" />
        </mxCell>
        <mxCell id="KmOtgh7a1UM6X6IASe2r-32" style="edgeStyle=orthogonalEdgeStyle;rounded=0;orthogonalLoop=1;jettySize=auto;html=1;exitX=1;exitY=0.5;exitDx=0;exitDy=0;entryX=0;entryY=0.5;entryDx=0;entryDy=0;" edge="1" parent="1" source="uKwBP-VBY_xrLnJlRJrp-37" target="KmOtgh7a1UM6X6IASe2r-31">
          <mxGeometry relative="1" as="geometry" />
        </mxCell>
        <mxCell id="uKwBP-VBY_xrLnJlRJrp-37" value="Número de telefone" style="rounded=0;whiteSpace=wrap;html=1;fillColor=#0046D1;" parent="1" vertex="1">
          <mxGeometry x="1630" y="680" width="90" height="40" as="geometry" />
        </mxCell>
        <mxCell id="KmOtgh7a1UM6X6IASe2r-34" style="edgeStyle=orthogonalEdgeStyle;rounded=0;orthogonalLoop=1;jettySize=auto;html=1;exitX=1;exitY=0.5;exitDx=0;exitDy=0;entryX=0;entryY=0.5;entryDx=0;entryDy=0;" edge="1" parent="1" source="uKwBP-VBY_xrLnJlRJrp-38" target="KmOtgh7a1UM6X6IASe2r-33">
          <mxGeometry relative="1" as="geometry" />
        </mxCell>
        <mxCell id="uKwBP-VBY_xrLnJlRJrp-38" value="Chat" style="rounded=0;whiteSpace=wrap;html=1;fillColor=#0046D1;" parent="1" vertex="1">
          <mxGeometry x="1630" y="727.5" width="90" height="40" as="geometry" />
        </mxCell>
        <mxCell id="uKwBP-VBY_xrLnJlRJrp-70" value="" style="endArrow=classic;html=1;rounded=0;entryX=1;entryY=0.5;entryDx=0;entryDy=0;exitX=0.25;exitY=0;exitDx=0;exitDy=0;" parent="1" source="uKwBP-VBY_xrLnJlRJrp-5" target="uKwBP-VBY_xrLnJlRJrp-7" edge="1">
          <mxGeometry width="50" height="50" relative="1" as="geometry">
            <mxPoint x="-170" y="330" as="sourcePoint" />
            <mxPoint x="-120" y="280" as="targetPoint" />
            <Array as="points">
              <mxPoint x="-150" y="200" />
            </Array>
          </mxGeometry>
        </mxCell>
        <mxCell id="uKwBP-VBY_xrLnJlRJrp-71" value="" style="endArrow=classic;html=1;rounded=0;exitX=0.118;exitY=-0.011;exitDx=0;exitDy=0;exitPerimeter=0;entryX=1;entryY=0.5;entryDx=0;entryDy=0;" parent="1" source="uKwBP-VBY_xrLnJlRJrp-5" target="uKwBP-VBY_xrLnJlRJrp-6" edge="1">
          <mxGeometry width="50" height="50" relative="1" as="geometry">
            <mxPoint x="-170" y="290" as="sourcePoint" />
            <mxPoint x="-120" y="240" as="targetPoint" />
            <Array as="points">
              <mxPoint x="-166" y="300" />
              <mxPoint x="-290" y="300" />
              <mxPoint x="-290" y="360" />
            </Array>
          </mxGeometry>
        </mxCell>
        <mxCell id="uKwBP-VBY_xrLnJlRJrp-72" value="" style="endArrow=classic;html=1;rounded=0;exitX=0;exitY=0.25;exitDx=0;exitDy=0;entryX=1;entryY=0.5;entryDx=0;entryDy=0;" parent="1" source="uKwBP-VBY_xrLnJlRJrp-5" target="uKwBP-VBY_xrLnJlRJrp-8" edge="1">
          <mxGeometry width="50" height="50" relative="1" as="geometry">
            <mxPoint x="-240" y="430" as="sourcePoint" />
            <mxPoint x="-280" y="470" as="targetPoint" />
            <Array as="points">
              <mxPoint x="-260" y="345" />
              <mxPoint x="-260" y="510" />
            </Array>
          </mxGeometry>
        </mxCell>
        <mxCell id="uKwBP-VBY_xrLnJlRJrp-73" value="" style="endArrow=classic;html=1;rounded=0;exitX=0;exitY=0.5;exitDx=0;exitDy=0;entryX=1;entryY=0.5;entryDx=0;entryDy=0;" parent="1" source="uKwBP-VBY_xrLnJlRJrp-5" target="uKwBP-VBY_xrLnJlRJrp-9" edge="1">
          <mxGeometry width="50" height="50" relative="1" as="geometry">
            <mxPoint x="-250" y="490" as="sourcePoint" />
            <mxPoint x="-200" y="440" as="targetPoint" />
            <Array as="points">
              <mxPoint x="-240" y="360" />
              <mxPoint x="-240" y="640" />
            </Array>
          </mxGeometry>
        </mxCell>
        <mxCell id="uKwBP-VBY_xrLnJlRJrp-74" value="" style="endArrow=classic;html=1;rounded=0;entryX=1;entryY=0.5;entryDx=0;entryDy=0;exitX=0.001;exitY=0.826;exitDx=0;exitDy=0;exitPerimeter=0;" parent="1" source="uKwBP-VBY_xrLnJlRJrp-5" target="uKwBP-VBY_xrLnJlRJrp-16" edge="1">
          <mxGeometry width="50" height="50" relative="1" as="geometry">
            <mxPoint x="-190" y="380" as="sourcePoint" />
            <mxPoint x="-140" y="350" as="targetPoint" />
            <Array as="points">
              <mxPoint x="-220" y="380" />
              <mxPoint x="-220" y="790" />
            </Array>
          </mxGeometry>
        </mxCell>
        <mxCell id="uKwBP-VBY_xrLnJlRJrp-126" value="Nome completo" style="rounded=0;whiteSpace=wrap;html=1;fillColor=#00BD00;" parent="1" vertex="1">
          <mxGeometry x="-1200" y="1090" width="90" height="40" as="geometry" />
        </mxCell>
        <mxCell id="uKwBP-VBY_xrLnJlRJrp-127" value="CPF" style="rounded=0;whiteSpace=wrap;html=1;fillColor=#00BD00;" parent="1" vertex="1">
          <mxGeometry x="-1200" y="1140" width="90" height="40" as="geometry" />
        </mxCell>
        <mxCell id="uKwBP-VBY_xrLnJlRJrp-128" value="E-mail" style="rounded=0;whiteSpace=wrap;html=1;fillColor=#00BD00;" parent="1" vertex="1">
          <mxGeometry x="-1200" y="1190" width="90" height="40" as="geometry" />
        </mxCell>
        <mxCell id="uKwBP-VBY_xrLnJlRJrp-129" value="Telefone" style="rounded=0;whiteSpace=wrap;html=1;fillColor=#00BD00;" parent="1" vertex="1">
          <mxGeometry x="-1200" y="1250" width="90" height="40" as="geometry" />
        </mxCell>
        <mxCell id="uKwBP-VBY_xrLnJlRJrp-130" value="Confirme sua senha" style="rounded=0;whiteSpace=wrap;html=1;fillColor=#00BD00;" parent="1" vertex="1">
          <mxGeometry x="-1200" y="1350" width="90" height="40" as="geometry" />
        </mxCell>
        <mxCell id="uKwBP-VBY_xrLnJlRJrp-131" value="Senha" style="rounded=0;whiteSpace=wrap;html=1;fillColor=#00BD00;" parent="1" vertex="1">
          <mxGeometry x="-1200" y="1300" width="90" height="40" as="geometry" />
        </mxCell>
        <mxCell id="uKwBP-VBY_xrLnJlRJrp-132" value="Botão cinza &quot;Cadastrar&quot;" style="rounded=0;whiteSpace=wrap;html=1;fillColor=#005E00;" parent="1" vertex="1">
          <mxGeometry x="-1590" y="1370" width="110" height="50" as="geometry" />
        </mxCell>
        <mxCell id="uKwBP-VBY_xrLnJlRJrp-172" style="edgeStyle=orthogonalEdgeStyle;rounded=0;orthogonalLoop=1;jettySize=auto;html=1;exitX=0.5;exitY=1;exitDx=0;exitDy=0;entryX=0.5;entryY=0;entryDx=0;entryDy=0;" parent="1" source="uKwBP-VBY_xrLnJlRJrp-147" target="uKwBP-VBY_xrLnJlRJrp-148" edge="1">
          <mxGeometry relative="1" as="geometry" />
        </mxCell>
        <mxCell id="uKwBP-VBY_xrLnJlRJrp-147" value="Ícone &quot;Perfil&quot;" style="rounded=0;whiteSpace=wrap;html=1;fillColor=#005E00;" parent="1" vertex="1">
          <mxGeometry x="-100" y="990" width="120" height="60" as="geometry" />
        </mxCell>
        <mxCell id="uKwBP-VBY_xrLnJlRJrp-148" value="Perfil do usuário" style="rounded=0;whiteSpace=wrap;html=1;fillColor=#009C00;" parent="1" vertex="1">
          <mxGeometry x="-100" y="1090" width="120" height="55" as="geometry" />
        </mxCell>
        <mxCell id="uKwBP-VBY_xrLnJlRJrp-175" style="edgeStyle=orthogonalEdgeStyle;rounded=0;orthogonalLoop=1;jettySize=auto;html=1;entryX=0.5;entryY=0;entryDx=0;entryDy=0;" parent="1" source="uKwBP-VBY_xrLnJlRJrp-150" target="uKwBP-VBY_xrLnJlRJrp-154" edge="1">
          <mxGeometry relative="1" as="geometry" />
        </mxCell>
        <mxCell id="uKwBP-VBY_xrLnJlRJrp-150" value="Caso o usuário não &lt;br style=&quot;font-size: 13px;&quot;&gt;esteja logado" style="text;html=1;align=center;verticalAlign=middle;resizable=0;points=[];autosize=1;strokeColor=none;fillColor=none;fontStyle=1;fontFamily=Verdana;fontSize=13;" parent="1" vertex="1">
          <mxGeometry x="-460" y="900" width="160" height="40" as="geometry" />
        </mxCell>
        <mxCell id="uKwBP-VBY_xrLnJlRJrp-151" value="" style="endArrow=classic;html=1;rounded=0;exitX=0.182;exitY=1.014;exitDx=0;exitDy=0;exitPerimeter=0;entryX=0.501;entryY=-0.003;entryDx=0;entryDy=0;entryPerimeter=0;" parent="1" source="uKwBP-VBY_xrLnJlRJrp-5" target="uKwBP-VBY_xrLnJlRJrp-150" edge="1">
          <mxGeometry width="50" height="50" relative="1" as="geometry">
            <mxPoint x="-590" y="780" as="sourcePoint" />
            <mxPoint x="-310" y="880" as="targetPoint" />
            <Array as="points">
              <mxPoint x="-158" y="860" />
              <mxPoint x="-380" y="860" />
            </Array>
          </mxGeometry>
        </mxCell>
        <mxCell id="uKwBP-VBY_xrLnJlRJrp-173" style="edgeStyle=orthogonalEdgeStyle;rounded=0;orthogonalLoop=1;jettySize=auto;html=1;exitX=0.5;exitY=1;exitDx=0;exitDy=0;" parent="1" source="uKwBP-VBY_xrLnJlRJrp-154" target="uKwBP-VBY_xrLnJlRJrp-159" edge="1">
          <mxGeometry relative="1" as="geometry" />
        </mxCell>
        <mxCell id="uKwBP-VBY_xrLnJlRJrp-154" value="Ícone &quot;Login&quot;" style="rounded=0;whiteSpace=wrap;html=1;fillColor=#005E00;" parent="1" vertex="1">
          <mxGeometry x="-440" y="985" width="120" height="60" as="geometry" />
        </mxCell>
        <mxCell id="uKwBP-VBY_xrLnJlRJrp-155" value="E-mail" style="rounded=0;whiteSpace=wrap;html=1;fillColor=#009C00;" parent="1" vertex="1">
          <mxGeometry x="-620" y="970" width="90" height="40" as="geometry" />
        </mxCell>
        <mxCell id="uKwBP-VBY_xrLnJlRJrp-156" value="Senha" style="rounded=0;whiteSpace=wrap;html=1;fillColor=#009C00;" parent="1" vertex="1">
          <mxGeometry x="-620" y="1030" width="90" height="40" as="geometry" />
        </mxCell>
        <mxCell id="uKwBP-VBY_xrLnJlRJrp-157" value="Botão cinza &quot;Continuar&quot;" style="rounded=0;whiteSpace=wrap;html=1;fillColor=#009C00;" parent="1" vertex="1">
          <mxGeometry x="-780" y="995" width="110" height="50" as="geometry" />
        </mxCell>
        <mxCell id="uKwBP-VBY_xrLnJlRJrp-158" value="Cadastre-se aqui" style="rounded=0;whiteSpace=wrap;html=1;fillColor=#005E00;" parent="1" vertex="1">
          <mxGeometry x="-440" y="1390" width="120" height="60" as="geometry" />
        </mxCell>
        <mxCell id="uKwBP-VBY_xrLnJlRJrp-174" style="edgeStyle=orthogonalEdgeStyle;rounded=0;orthogonalLoop=1;jettySize=auto;html=1;entryX=0.5;entryY=0;entryDx=0;entryDy=0;" parent="1" source="uKwBP-VBY_xrLnJlRJrp-159" target="uKwBP-VBY_xrLnJlRJrp-158" edge="1">
          <mxGeometry relative="1" as="geometry" />
        </mxCell>
        <mxCell id="uKwBP-VBY_xrLnJlRJrp-159" value="Caso o usuário não&lt;br style=&quot;font-size: 13px;&quot;&gt;&amp;nbsp;tenha uma conta" style="text;html=1;align=center;verticalAlign=middle;resizable=0;points=[];autosize=1;strokeColor=none;fillColor=none;fontFamily=Verdana;fontStyle=1;fontSize=13;" parent="1" vertex="1">
          <mxGeometry x="-460" y="1097.5" width="160" height="40" as="geometry" />
        </mxCell>
        <mxCell id="uKwBP-VBY_xrLnJlRJrp-165" value="Informações pessoais" style="rounded=1;whiteSpace=wrap;html=1;fillColor=#008500;" parent="1" vertex="1">
          <mxGeometry x="-880" y="1215" width="110" height="50" as="geometry" />
        </mxCell>
        <mxCell id="uKwBP-VBY_xrLnJlRJrp-166" value="Endereço" style="rounded=1;whiteSpace=wrap;html=1;fillColor=#008500;" parent="1" vertex="1">
          <mxGeometry x="-880" y="1560" width="110" height="50" as="geometry" />
        </mxCell>
        <mxCell id="uKwBP-VBY_xrLnJlRJrp-171" style="edgeStyle=orthogonalEdgeStyle;rounded=0;orthogonalLoop=1;jettySize=auto;html=1;entryX=0.5;entryY=0;entryDx=0;entryDy=0;" parent="1" source="uKwBP-VBY_xrLnJlRJrp-168" target="uKwBP-VBY_xrLnJlRJrp-147" edge="1">
          <mxGeometry relative="1" as="geometry" />
        </mxCell>
        <mxCell id="uKwBP-VBY_xrLnJlRJrp-168" value="Caso o usuário já&lt;br style=&quot;font-size: 13px;&quot;&gt;&amp;nbsp;possua uma conta" style="text;html=1;align=center;verticalAlign=middle;resizable=0;points=[];autosize=1;strokeColor=none;fillColor=none;fontFamily=Verdana;fontStyle=1;fontSize=13;" parent="1" vertex="1">
          <mxGeometry x="-120" y="900" width="160" height="40" as="geometry" />
        </mxCell>
        <mxCell id="uKwBP-VBY_xrLnJlRJrp-170" value="" style="endArrow=classic;html=1;rounded=0;entryX=0.502;entryY=-0.014;entryDx=0;entryDy=0;entryPerimeter=0;" parent="1" target="uKwBP-VBY_xrLnJlRJrp-168" edge="1">
          <mxGeometry width="50" height="50" relative="1" as="geometry">
            <mxPoint x="-160" y="860" as="sourcePoint" />
            <mxPoint x="60" y="840" as="targetPoint" />
            <Array as="points">
              <mxPoint x="-40" y="860" />
            </Array>
          </mxGeometry>
        </mxCell>
        <mxCell id="uKwBP-VBY_xrLnJlRJrp-176" value="" style="endArrow=none;html=1;rounded=0;" parent="1" edge="1">
          <mxGeometry width="50" height="50" relative="1" as="geometry">
            <mxPoint x="-1020" y="1240" as="sourcePoint" />
            <mxPoint x="-880" y="1240" as="targetPoint" />
          </mxGeometry>
        </mxCell>
        <mxCell id="uKwBP-VBY_xrLnJlRJrp-177" value="" style="endArrow=none;html=1;rounded=0;" parent="1" edge="1">
          <mxGeometry width="50" height="50" relative="1" as="geometry">
            <mxPoint x="-1020" y="1370" as="sourcePoint" />
            <mxPoint x="-1020" y="1110" as="targetPoint" />
          </mxGeometry>
        </mxCell>
        <mxCell id="uKwBP-VBY_xrLnJlRJrp-178" value="" style="endArrow=classic;html=1;rounded=0;entryX=1;entryY=0.5;entryDx=0;entryDy=0;" parent="1" target="uKwBP-VBY_xrLnJlRJrp-126" edge="1">
          <mxGeometry width="50" height="50" relative="1" as="geometry">
            <mxPoint x="-1020" y="1110" as="sourcePoint" />
            <mxPoint x="-1010" y="1120" as="targetPoint" />
          </mxGeometry>
        </mxCell>
        <mxCell id="uKwBP-VBY_xrLnJlRJrp-179" value="" style="endArrow=classic;html=1;rounded=0;" parent="1" edge="1">
          <mxGeometry width="50" height="50" relative="1" as="geometry">
            <mxPoint x="-1020" y="1160" as="sourcePoint" />
            <mxPoint x="-1110" y="1160" as="targetPoint" />
          </mxGeometry>
        </mxCell>
        <mxCell id="uKwBP-VBY_xrLnJlRJrp-180" value="" style="endArrow=classic;html=1;rounded=0;entryX=1;entryY=0.5;entryDx=0;entryDy=0;" parent="1" target="uKwBP-VBY_xrLnJlRJrp-128" edge="1">
          <mxGeometry width="50" height="50" relative="1" as="geometry">
            <mxPoint x="-1020" y="1210" as="sourcePoint" />
            <mxPoint x="-1050" y="1190" as="targetPoint" />
          </mxGeometry>
        </mxCell>
        <mxCell id="uKwBP-VBY_xrLnJlRJrp-181" value="" style="endArrow=classic;html=1;rounded=0;entryX=1;entryY=0.5;entryDx=0;entryDy=0;" parent="1" target="uKwBP-VBY_xrLnJlRJrp-129" edge="1">
          <mxGeometry width="50" height="50" relative="1" as="geometry">
            <mxPoint x="-1020" y="1270" as="sourcePoint" />
            <mxPoint x="-1050" y="1240" as="targetPoint" />
          </mxGeometry>
        </mxCell>
        <mxCell id="uKwBP-VBY_xrLnJlRJrp-182" value="" style="endArrow=classic;html=1;rounded=0;entryX=1;entryY=0.5;entryDx=0;entryDy=0;" parent="1" target="uKwBP-VBY_xrLnJlRJrp-131" edge="1">
          <mxGeometry width="50" height="50" relative="1" as="geometry">
            <mxPoint x="-1020" y="1320" as="sourcePoint" />
            <mxPoint x="-1050" y="1290" as="targetPoint" />
          </mxGeometry>
        </mxCell>
        <mxCell id="uKwBP-VBY_xrLnJlRJrp-183" value="" style="endArrow=classic;html=1;rounded=0;entryX=1;entryY=0.5;entryDx=0;entryDy=0;" parent="1" target="uKwBP-VBY_xrLnJlRJrp-130" edge="1">
          <mxGeometry width="50" height="50" relative="1" as="geometry">
            <mxPoint x="-1020" y="1370" as="sourcePoint" />
            <mxPoint x="-1050" y="1340" as="targetPoint" />
          </mxGeometry>
        </mxCell>
        <mxCell id="uKwBP-VBY_xrLnJlRJrp-184" value="Rua" style="rounded=0;whiteSpace=wrap;html=1;fillColor=#00BD00;" parent="1" vertex="1">
          <mxGeometry x="-1200" y="1440" width="90" height="40" as="geometry" />
        </mxCell>
        <mxCell id="uKwBP-VBY_xrLnJlRJrp-185" value="CEP" style="rounded=0;whiteSpace=wrap;html=1;fillColor=#00BD00;" parent="1" vertex="1">
          <mxGeometry x="-1200" y="1490" width="90" height="40" as="geometry" />
        </mxCell>
        <mxCell id="uKwBP-VBY_xrLnJlRJrp-186" value="Número" style="rounded=0;whiteSpace=wrap;html=1;fillColor=#00BD00;" parent="1" vertex="1">
          <mxGeometry x="-1200" y="1540" width="90" height="40" as="geometry" />
        </mxCell>
        <mxCell id="uKwBP-VBY_xrLnJlRJrp-187" value="Complemento" style="rounded=0;whiteSpace=wrap;html=1;fillColor=#00BD00;" parent="1" vertex="1">
          <mxGeometry x="-1200" y="1600" width="90" height="40" as="geometry" />
        </mxCell>
        <mxCell id="uKwBP-VBY_xrLnJlRJrp-188" value="Cidade" style="rounded=0;whiteSpace=wrap;html=1;fillColor=#00BD00;" parent="1" vertex="1">
          <mxGeometry x="-1200" y="1700" width="90" height="40" as="geometry" />
        </mxCell>
        <mxCell id="uKwBP-VBY_xrLnJlRJrp-189" value="Bairro" style="rounded=0;whiteSpace=wrap;html=1;fillColor=#00BD00;" parent="1" vertex="1">
          <mxGeometry x="-1200" y="1650" width="90" height="40" as="geometry" />
        </mxCell>
        <mxCell id="uKwBP-VBY_xrLnJlRJrp-190" value="" style="endArrow=none;html=1;rounded=0;" parent="1" edge="1">
          <mxGeometry width="50" height="50" relative="1" as="geometry">
            <mxPoint x="-1020" y="1720" as="sourcePoint" />
            <mxPoint x="-1020" y="1460" as="targetPoint" />
          </mxGeometry>
        </mxCell>
        <mxCell id="uKwBP-VBY_xrLnJlRJrp-191" value="" style="endArrow=classic;html=1;rounded=0;entryX=1;entryY=0.5;entryDx=0;entryDy=0;" parent="1" target="uKwBP-VBY_xrLnJlRJrp-184" edge="1">
          <mxGeometry width="50" height="50" relative="1" as="geometry">
            <mxPoint x="-1020" y="1460" as="sourcePoint" />
            <mxPoint x="-1010" y="1470" as="targetPoint" />
          </mxGeometry>
        </mxCell>
        <mxCell id="uKwBP-VBY_xrLnJlRJrp-192" value="" style="endArrow=classic;html=1;rounded=0;" parent="1" edge="1">
          <mxGeometry width="50" height="50" relative="1" as="geometry">
            <mxPoint x="-1020" y="1510" as="sourcePoint" />
            <mxPoint x="-1110" y="1510" as="targetPoint" />
          </mxGeometry>
        </mxCell>
        <mxCell id="uKwBP-VBY_xrLnJlRJrp-193" value="" style="endArrow=classic;html=1;rounded=0;entryX=1;entryY=0.5;entryDx=0;entryDy=0;" parent="1" target="uKwBP-VBY_xrLnJlRJrp-186" edge="1">
          <mxGeometry width="50" height="50" relative="1" as="geometry">
            <mxPoint x="-1020" y="1560" as="sourcePoint" />
            <mxPoint x="-1050" y="1540" as="targetPoint" />
          </mxGeometry>
        </mxCell>
        <mxCell id="uKwBP-VBY_xrLnJlRJrp-194" value="" style="endArrow=classic;html=1;rounded=0;entryX=1;entryY=0.5;entryDx=0;entryDy=0;" parent="1" target="uKwBP-VBY_xrLnJlRJrp-187" edge="1">
          <mxGeometry width="50" height="50" relative="1" as="geometry">
            <mxPoint x="-1020" y="1620" as="sourcePoint" />
            <mxPoint x="-1050" y="1590" as="targetPoint" />
          </mxGeometry>
        </mxCell>
        <mxCell id="uKwBP-VBY_xrLnJlRJrp-195" value="" style="endArrow=classic;html=1;rounded=0;entryX=1;entryY=0.5;entryDx=0;entryDy=0;" parent="1" target="uKwBP-VBY_xrLnJlRJrp-189" edge="1">
          <mxGeometry width="50" height="50" relative="1" as="geometry">
            <mxPoint x="-1020" y="1670" as="sourcePoint" />
            <mxPoint x="-1050" y="1640" as="targetPoint" />
          </mxGeometry>
        </mxCell>
        <mxCell id="uKwBP-VBY_xrLnJlRJrp-196" value="" style="endArrow=classic;html=1;rounded=0;entryX=1;entryY=0.5;entryDx=0;entryDy=0;" parent="1" target="uKwBP-VBY_xrLnJlRJrp-188" edge="1">
          <mxGeometry width="50" height="50" relative="1" as="geometry">
            <mxPoint x="-1020" y="1720" as="sourcePoint" />
            <mxPoint x="-1050" y="1690" as="targetPoint" />
          </mxGeometry>
        </mxCell>
        <mxCell id="uKwBP-VBY_xrLnJlRJrp-197" value="" style="endArrow=none;html=1;rounded=0;entryX=0.003;entryY=0.59;entryDx=0;entryDy=0;entryPerimeter=0;" parent="1" target="uKwBP-VBY_xrLnJlRJrp-166" edge="1">
          <mxGeometry width="50" height="50" relative="1" as="geometry">
            <mxPoint x="-1020" y="1590" as="sourcePoint" />
            <mxPoint x="-950" y="1580" as="targetPoint" />
          </mxGeometry>
        </mxCell>
        <mxCell id="uKwBP-VBY_xrLnJlRJrp-219" value="" style="endArrow=none;html=1;rounded=0;" parent="1" edge="1">
          <mxGeometry width="50" height="50" relative="1" as="geometry">
            <mxPoint x="-1289.9992592592591" y="1370" as="sourcePoint" />
            <mxPoint x="-1289.9992592592591" y="1110" as="targetPoint" />
          </mxGeometry>
        </mxCell>
        <mxCell id="uKwBP-VBY_xrLnJlRJrp-220" value="" style="endArrow=classic;html=1;rounded=0;entryX=1;entryY=0.5;entryDx=0;entryDy=0;" parent="1" edge="1">
          <mxGeometry width="50" height="50" relative="1" as="geometry">
            <mxPoint x="-1290.74" y="1109.63" as="sourcePoint" />
            <mxPoint x="-1200.74" y="1109.63" as="targetPoint" />
          </mxGeometry>
        </mxCell>
        <mxCell id="uKwBP-VBY_xrLnJlRJrp-221" value="" style="endArrow=classic;html=1;rounded=0;" parent="1" edge="1">
          <mxGeometry width="50" height="50" relative="1" as="geometry">
            <mxPoint x="-1290.74" y="1159.63" as="sourcePoint" />
            <mxPoint x="-1200.74" y="1159.63" as="targetPoint" />
          </mxGeometry>
        </mxCell>
        <mxCell id="uKwBP-VBY_xrLnJlRJrp-222" value="" style="endArrow=classic;html=1;rounded=0;entryX=1;entryY=0.5;entryDx=0;entryDy=0;" parent="1" edge="1">
          <mxGeometry width="50" height="50" relative="1" as="geometry">
            <mxPoint x="-1290.74" y="1209.63" as="sourcePoint" />
            <mxPoint x="-1200.74" y="1209.63" as="targetPoint" />
          </mxGeometry>
        </mxCell>
        <mxCell id="uKwBP-VBY_xrLnJlRJrp-223" value="" style="endArrow=classic;html=1;rounded=0;entryX=1;entryY=0.5;entryDx=0;entryDy=0;" parent="1" edge="1">
          <mxGeometry width="50" height="50" relative="1" as="geometry">
            <mxPoint x="-1290.74" y="1269.63" as="sourcePoint" />
            <mxPoint x="-1200.74" y="1269.63" as="targetPoint" />
          </mxGeometry>
        </mxCell>
        <mxCell id="uKwBP-VBY_xrLnJlRJrp-224" value="" style="endArrow=classic;html=1;rounded=0;entryX=1;entryY=0.5;entryDx=0;entryDy=0;" parent="1" edge="1">
          <mxGeometry width="50" height="50" relative="1" as="geometry">
            <mxPoint x="-1290.74" y="1319.63" as="sourcePoint" />
            <mxPoint x="-1200.74" y="1319.63" as="targetPoint" />
          </mxGeometry>
        </mxCell>
        <mxCell id="uKwBP-VBY_xrLnJlRJrp-225" value="" style="endArrow=classic;html=1;rounded=0;entryX=1;entryY=0.5;entryDx=0;entryDy=0;" parent="1" edge="1">
          <mxGeometry width="50" height="50" relative="1" as="geometry">
            <mxPoint x="-1290.74" y="1369.63" as="sourcePoint" />
            <mxPoint x="-1200.74" y="1369.63" as="targetPoint" />
          </mxGeometry>
        </mxCell>
        <mxCell id="uKwBP-VBY_xrLnJlRJrp-226" value="" style="endArrow=none;html=1;rounded=0;" parent="1" edge="1">
          <mxGeometry width="50" height="50" relative="1" as="geometry">
            <mxPoint x="-1289.2592592592591" y="1720.37" as="sourcePoint" />
            <mxPoint x="-1289.2592592592591" y="1460.37" as="targetPoint" />
          </mxGeometry>
        </mxCell>
        <mxCell id="uKwBP-VBY_xrLnJlRJrp-227" value="" style="endArrow=classic;html=1;rounded=0;entryX=1;entryY=0.5;entryDx=0;entryDy=0;" parent="1" edge="1">
          <mxGeometry width="50" height="50" relative="1" as="geometry">
            <mxPoint x="-1290" y="1460" as="sourcePoint" />
            <mxPoint x="-1200" y="1460" as="targetPoint" />
          </mxGeometry>
        </mxCell>
        <mxCell id="uKwBP-VBY_xrLnJlRJrp-228" value="" style="endArrow=classic;html=1;rounded=0;" parent="1" edge="1">
          <mxGeometry width="50" height="50" relative="1" as="geometry">
            <mxPoint x="-1290" y="1510" as="sourcePoint" />
            <mxPoint x="-1200" y="1510" as="targetPoint" />
          </mxGeometry>
        </mxCell>
        <mxCell id="uKwBP-VBY_xrLnJlRJrp-229" value="" style="endArrow=classic;html=1;rounded=0;entryX=1;entryY=0.5;entryDx=0;entryDy=0;" parent="1" edge="1">
          <mxGeometry width="50" height="50" relative="1" as="geometry">
            <mxPoint x="-1290" y="1560" as="sourcePoint" />
            <mxPoint x="-1200" y="1560" as="targetPoint" />
          </mxGeometry>
        </mxCell>
        <mxCell id="uKwBP-VBY_xrLnJlRJrp-230" value="" style="endArrow=classic;html=1;rounded=0;entryX=1;entryY=0.5;entryDx=0;entryDy=0;" parent="1" edge="1">
          <mxGeometry width="50" height="50" relative="1" as="geometry">
            <mxPoint x="-1290" y="1620" as="sourcePoint" />
            <mxPoint x="-1200" y="1620" as="targetPoint" />
          </mxGeometry>
        </mxCell>
        <mxCell id="uKwBP-VBY_xrLnJlRJrp-231" value="" style="endArrow=classic;html=1;rounded=0;entryX=1;entryY=0.5;entryDx=0;entryDy=0;" parent="1" edge="1">
          <mxGeometry width="50" height="50" relative="1" as="geometry">
            <mxPoint x="-1290" y="1670" as="sourcePoint" />
            <mxPoint x="-1200" y="1670" as="targetPoint" />
          </mxGeometry>
        </mxCell>
        <mxCell id="uKwBP-VBY_xrLnJlRJrp-232" value="" style="endArrow=classic;html=1;rounded=0;entryX=1;entryY=0.5;entryDx=0;entryDy=0;" parent="1" edge="1">
          <mxGeometry width="50" height="50" relative="1" as="geometry">
            <mxPoint x="-1290" y="1720" as="sourcePoint" />
            <mxPoint x="-1200" y="1720" as="targetPoint" />
          </mxGeometry>
        </mxCell>
        <mxCell id="uKwBP-VBY_xrLnJlRJrp-233" value="" style="endArrow=none;html=1;rounded=0;" parent="1" edge="1">
          <mxGeometry width="50" height="50" relative="1" as="geometry">
            <mxPoint x="-1290" y="1240" as="sourcePoint" />
            <mxPoint x="-1400" y="1240" as="targetPoint" />
          </mxGeometry>
        </mxCell>
        <mxCell id="uKwBP-VBY_xrLnJlRJrp-234" value="" style="endArrow=none;html=1;rounded=0;" parent="1" edge="1">
          <mxGeometry width="50" height="50" relative="1" as="geometry">
            <mxPoint x="-1290" y="1580" as="sourcePoint" />
            <mxPoint x="-1400" y="1580" as="targetPoint" />
          </mxGeometry>
        </mxCell>
        <mxCell id="uKwBP-VBY_xrLnJlRJrp-235" value="" style="endArrow=none;html=1;rounded=0;" parent="1" edge="1">
          <mxGeometry width="50" height="50" relative="1" as="geometry">
            <mxPoint x="-1400" y="1580" as="sourcePoint" />
            <mxPoint x="-1400" y="1240" as="targetPoint" />
          </mxGeometry>
        </mxCell>
        <mxCell id="uKwBP-VBY_xrLnJlRJrp-236" value="" style="endArrow=classic;html=1;rounded=0;entryX=1.008;entryY=0.6;entryDx=0;entryDy=0;entryPerimeter=0;" parent="1" target="uKwBP-VBY_xrLnJlRJrp-132" edge="1">
          <mxGeometry width="50" height="50" relative="1" as="geometry">
            <mxPoint x="-1400" y="1400" as="sourcePoint" />
            <mxPoint x="-1360" y="1390" as="targetPoint" />
          </mxGeometry>
        </mxCell>
        <mxCell id="uKwBP-VBY_xrLnJlRJrp-239" value="" style="endArrow=classic;html=1;rounded=0;entryX=1;entryY=0.5;entryDx=0;entryDy=0;" parent="1" target="uKwBP-VBY_xrLnJlRJrp-165" edge="1">
          <mxGeometry width="50" height="50" relative="1" as="geometry">
            <mxPoint x="-680" y="1240" as="sourcePoint" />
            <mxPoint x="-610" y="1360" as="targetPoint" />
          </mxGeometry>
        </mxCell>
        <mxCell id="uKwBP-VBY_xrLnJlRJrp-240" value="" style="endArrow=classic;html=1;rounded=0;entryX=1;entryY=0.5;entryDx=0;entryDy=0;" parent="1" edge="1">
          <mxGeometry width="50" height="50" relative="1" as="geometry">
            <mxPoint x="-680" y="1590" as="sourcePoint" />
            <mxPoint x="-770" y="1590" as="targetPoint" />
          </mxGeometry>
        </mxCell>
        <mxCell id="uKwBP-VBY_xrLnJlRJrp-241" value="" style="endArrow=none;html=1;rounded=0;" parent="1" edge="1">
          <mxGeometry width="50" height="50" relative="1" as="geometry">
            <mxPoint x="-680" y="1590" as="sourcePoint" />
            <mxPoint x="-680" y="1240" as="targetPoint" />
          </mxGeometry>
        </mxCell>
        <mxCell id="uKwBP-VBY_xrLnJlRJrp-243" value="" style="endArrow=none;html=1;rounded=0;entryX=0;entryY=0.5;entryDx=0;entryDy=0;" parent="1" target="uKwBP-VBY_xrLnJlRJrp-158" edge="1">
          <mxGeometry width="50" height="50" relative="1" as="geometry">
            <mxPoint x="-680" y="1420" as="sourcePoint" />
            <mxPoint x="-410" y="1380" as="targetPoint" />
          </mxGeometry>
        </mxCell>
        <mxCell id="uKwBP-VBY_xrLnJlRJrp-244" value="" style="endArrow=classic;html=1;rounded=0;entryX=1.013;entryY=0.566;entryDx=0;entryDy=0;entryPerimeter=0;" parent="1" target="uKwBP-VBY_xrLnJlRJrp-34" edge="1">
          <mxGeometry width="50" height="50" relative="1" as="geometry">
            <mxPoint x="-740" y="590" as="sourcePoint" />
            <mxPoint x="-530" y="670" as="targetPoint" />
          </mxGeometry>
        </mxCell>
        <mxCell id="uKwBP-VBY_xrLnJlRJrp-245" value="" style="endArrow=classic;html=1;rounded=0;entryX=1.013;entryY=0.566;entryDx=0;entryDy=0;entryPerimeter=0;" parent="1" edge="1">
          <mxGeometry width="50" height="50" relative="1" as="geometry">
            <mxPoint x="-741" y="689.71" as="sourcePoint" />
            <mxPoint x="-790" y="689.71" as="targetPoint" />
          </mxGeometry>
        </mxCell>
        <mxCell id="uKwBP-VBY_xrLnJlRJrp-246" value="" style="endArrow=classic;html=1;rounded=0;entryX=1.013;entryY=0.566;entryDx=0;entryDy=0;entryPerimeter=0;" parent="1" edge="1">
          <mxGeometry width="50" height="50" relative="1" as="geometry">
            <mxPoint x="-741" y="639.71" as="sourcePoint" />
            <mxPoint x="-790" y="639.71" as="targetPoint" />
          </mxGeometry>
        </mxCell>
        <mxCell id="uKwBP-VBY_xrLnJlRJrp-247" value="" style="endArrow=none;html=1;rounded=0;" parent="1" edge="1">
          <mxGeometry width="50" height="50" relative="1" as="geometry">
            <mxPoint x="-740" y="690" as="sourcePoint" />
            <mxPoint x="-740" y="590" as="targetPoint" />
          </mxGeometry>
        </mxCell>
        <mxCell id="uKwBP-VBY_xrLnJlRJrp-248" value="" style="endArrow=none;html=1;rounded=0;entryX=0;entryY=0.5;entryDx=0;entryDy=0;" parent="1" target="uKwBP-VBY_xrLnJlRJrp-29" edge="1">
          <mxGeometry width="50" height="50" relative="1" as="geometry">
            <mxPoint x="-740" y="640" as="sourcePoint" />
            <mxPoint x="-660" y="680" as="targetPoint" />
          </mxGeometry>
        </mxCell>
        <mxCell id="uKwBP-VBY_xrLnJlRJrp-249" value="" style="endArrow=classic;html=1;rounded=0;entryX=1;entryY=0.5;entryDx=0;entryDy=0;exitX=-0.002;exitY=0.416;exitDx=0;exitDy=0;exitPerimeter=0;" parent="1" source="uKwBP-VBY_xrLnJlRJrp-154" target="uKwBP-VBY_xrLnJlRJrp-155" edge="1">
          <mxGeometry width="50" height="50" relative="1" as="geometry">
            <mxPoint x="-440" y="1060" as="sourcePoint" />
            <mxPoint x="-390" y="1010" as="targetPoint" />
            <Array as="points">
              <mxPoint x="-480" y="1010" />
              <mxPoint x="-480" y="990" />
            </Array>
          </mxGeometry>
        </mxCell>
        <mxCell id="uKwBP-VBY_xrLnJlRJrp-250" value="" style="endArrow=classic;html=1;rounded=0;entryX=1;entryY=0.5;entryDx=0;entryDy=0;exitX=0;exitY=0.739;exitDx=0;exitDy=0;exitPerimeter=0;" parent="1" source="uKwBP-VBY_xrLnJlRJrp-154" target="uKwBP-VBY_xrLnJlRJrp-156" edge="1">
          <mxGeometry width="50" height="50" relative="1" as="geometry">
            <mxPoint x="-440" y="1060" as="sourcePoint" />
            <mxPoint x="-390" y="1010" as="targetPoint" />
            <Array as="points">
              <mxPoint x="-480" y="1029" />
              <mxPoint x="-480" y="1050" />
            </Array>
          </mxGeometry>
        </mxCell>
        <mxCell id="uKwBP-VBY_xrLnJlRJrp-251" value="" style="endArrow=classic;html=1;rounded=0;entryX=0.998;entryY=0.305;entryDx=0;entryDy=0;exitX=0;exitY=0.5;exitDx=0;exitDy=0;entryPerimeter=0;" parent="1" source="uKwBP-VBY_xrLnJlRJrp-155" target="uKwBP-VBY_xrLnJlRJrp-157" edge="1">
          <mxGeometry width="50" height="50" relative="1" as="geometry">
            <mxPoint x="-640" y="1040" as="sourcePoint" />
            <mxPoint x="-590" y="990" as="targetPoint" />
            <Array as="points">
              <mxPoint x="-650" y="990" />
              <mxPoint x="-650" y="1010" />
            </Array>
          </mxGeometry>
        </mxCell>
        <mxCell id="uKwBP-VBY_xrLnJlRJrp-252" value="" style="endArrow=classic;html=1;rounded=0;entryX=1;entryY=0.75;entryDx=0;entryDy=0;exitX=0;exitY=0.5;exitDx=0;exitDy=0;" parent="1" source="uKwBP-VBY_xrLnJlRJrp-156" target="uKwBP-VBY_xrLnJlRJrp-157" edge="1">
          <mxGeometry width="50" height="50" relative="1" as="geometry">
            <mxPoint x="-640" y="1060" as="sourcePoint" />
            <mxPoint x="-590" y="1010" as="targetPoint" />
            <Array as="points">
              <mxPoint x="-650" y="1050" />
              <mxPoint x="-650" y="1032" />
            </Array>
          </mxGeometry>
        </mxCell>
        <mxCell id="uKwBP-VBY_xrLnJlRJrp-268" style="edgeStyle=orthogonalEdgeStyle;rounded=0;orthogonalLoop=1;jettySize=auto;html=1;exitX=0;exitY=0.5;exitDx=0;exitDy=0;entryX=1;entryY=0.5;entryDx=0;entryDy=0;" parent="1" source="uKwBP-VBY_xrLnJlRJrp-255" target="uKwBP-VBY_xrLnJlRJrp-267" edge="1">
          <mxGeometry relative="1" as="geometry" />
        </mxCell>
        <mxCell id="uKwBP-VBY_xrLnJlRJrp-255" value="Preço" style="rounded=0;whiteSpace=wrap;html=1;fillColor=#009C00;" parent="1" vertex="1">
          <mxGeometry x="-880" y="150" width="90" height="40" as="geometry" />
        </mxCell>
        <mxCell id="uKwBP-VBY_xrLnJlRJrp-272" style="edgeStyle=orthogonalEdgeStyle;rounded=0;orthogonalLoop=1;jettySize=auto;html=1;exitX=0;exitY=0.5;exitDx=0;exitDy=0;entryX=1;entryY=0.5;entryDx=0;entryDy=0;" parent="1" source="uKwBP-VBY_xrLnJlRJrp-257" target="uKwBP-VBY_xrLnJlRJrp-269" edge="1">
          <mxGeometry relative="1" as="geometry" />
        </mxCell>
        <mxCell id="uKwBP-VBY_xrLnJlRJrp-257" value="Categorias" style="rounded=0;whiteSpace=wrap;html=1;fillColor=#009C00;" parent="1" vertex="1">
          <mxGeometry x="-880" y="210" width="90" height="40" as="geometry" />
        </mxCell>
        <mxCell id="uKwBP-VBY_xrLnJlRJrp-273" style="edgeStyle=orthogonalEdgeStyle;rounded=0;orthogonalLoop=1;jettySize=auto;html=1;exitX=0;exitY=0.5;exitDx=0;exitDy=0;entryX=1;entryY=0.5;entryDx=0;entryDy=0;" parent="1" source="uKwBP-VBY_xrLnJlRJrp-258" target="uKwBP-VBY_xrLnJlRJrp-270" edge="1">
          <mxGeometry relative="1" as="geometry" />
        </mxCell>
        <mxCell id="uKwBP-VBY_xrLnJlRJrp-258" value="Loja" style="rounded=0;whiteSpace=wrap;html=1;fillColor=#009C00;" parent="1" vertex="1">
          <mxGeometry x="-880" y="260" width="90" height="40" as="geometry" />
        </mxCell>
        <mxCell id="uKwBP-VBY_xrLnJlRJrp-259" value="Ícone sacola" style="rounded=0;whiteSpace=wrap;html=1;fillColor=#009C00;" parent="1" vertex="1">
          <mxGeometry x="-880" y="100" width="90" height="40" as="geometry" />
        </mxCell>
        <mxCell id="uKwBP-VBY_xrLnJlRJrp-260" value="" style="endArrow=classic;html=1;rounded=0;entryX=1;entryY=0.5;entryDx=0;entryDy=0;" parent="1" target="uKwBP-VBY_xrLnJlRJrp-259" edge="1">
          <mxGeometry width="50" height="50" relative="1" as="geometry">
            <mxPoint x="-760" y="120" as="sourcePoint" />
            <mxPoint x="-770" y="160" as="targetPoint" />
          </mxGeometry>
        </mxCell>
        <mxCell id="uKwBP-VBY_xrLnJlRJrp-261" value="" style="endArrow=classic;html=1;rounded=0;entryX=1;entryY=0.5;entryDx=0;entryDy=0;" parent="1" edge="1">
          <mxGeometry width="50" height="50" relative="1" as="geometry">
            <mxPoint x="-760" y="279.85" as="sourcePoint" />
            <mxPoint x="-790" y="279.85" as="targetPoint" />
          </mxGeometry>
        </mxCell>
        <mxCell id="uKwBP-VBY_xrLnJlRJrp-262" value="" style="endArrow=classic;html=1;rounded=0;entryX=1;entryY=0.5;entryDx=0;entryDy=0;" parent="1" edge="1">
          <mxGeometry width="50" height="50" relative="1" as="geometry">
            <mxPoint x="-760" y="229.7" as="sourcePoint" />
            <mxPoint x="-790" y="229.7" as="targetPoint" />
          </mxGeometry>
        </mxCell>
        <mxCell id="uKwBP-VBY_xrLnJlRJrp-263" value="" style="endArrow=classic;html=1;rounded=0;entryX=1;entryY=0.5;entryDx=0;entryDy=0;" parent="1" edge="1">
          <mxGeometry width="50" height="50" relative="1" as="geometry">
            <mxPoint x="-760" y="170" as="sourcePoint" />
            <mxPoint x="-790" y="170" as="targetPoint" />
          </mxGeometry>
        </mxCell>
        <mxCell id="uKwBP-VBY_xrLnJlRJrp-264" value="" style="endArrow=none;html=1;rounded=0;" parent="1" edge="1">
          <mxGeometry width="50" height="50" relative="1" as="geometry">
            <mxPoint x="-760" y="280" as="sourcePoint" />
            <mxPoint x="-760" y="120" as="targetPoint" />
          </mxGeometry>
        </mxCell>
        <mxCell id="uKwBP-VBY_xrLnJlRJrp-266" value="" style="endArrow=none;html=1;rounded=0;entryX=0;entryY=0.5;entryDx=0;entryDy=0;" parent="1" target="uKwBP-VBY_xrLnJlRJrp-24" edge="1">
          <mxGeometry width="50" height="50" relative="1" as="geometry">
            <mxPoint x="-760" y="200" as="sourcePoint" />
            <mxPoint x="-680" y="190" as="targetPoint" />
          </mxGeometry>
        </mxCell>
        <mxCell id="uKwBP-VBY_xrLnJlRJrp-267" value="Média de preço" style="rounded=0;whiteSpace=wrap;html=1;fillColor=#00BD00;" parent="1" vertex="1">
          <mxGeometry x="-1000" y="150" width="90" height="40" as="geometry" />
        </mxCell>
        <mxCell id="KmOtgh7a1UM6X6IASe2r-38" value="" style="edgeStyle=orthogonalEdgeStyle;rounded=0;orthogonalLoop=1;jettySize=auto;html=1;" edge="1" parent="1" source="uKwBP-VBY_xrLnJlRJrp-269" target="uKwBP-VBY_xrLnJlRJrp-267">
          <mxGeometry relative="1" as="geometry" />
        </mxCell>
        <mxCell id="uKwBP-VBY_xrLnJlRJrp-269" value="Categorias de produtos" style="rounded=0;whiteSpace=wrap;html=1;fillColor=#00BD00;" parent="1" vertex="1">
          <mxGeometry x="-1000" y="210" width="90" height="40" as="geometry" />
        </mxCell>
        <mxCell id="uKwBP-VBY_xrLnJlRJrp-270" value="Lojas da plataforma" style="rounded=0;whiteSpace=wrap;html=1;fillColor=#00BD00;" parent="1" vertex="1">
          <mxGeometry x="-1000" y="260" width="90" height="40" as="geometry" />
        </mxCell>
        <mxCell id="uKwBP-VBY_xrLnJlRJrp-275" value="Preço" style="rounded=0;whiteSpace=wrap;html=1;flipH=0;flipV=0;fillColor=#004CE3;" parent="1" vertex="1">
          <mxGeometry x="1620" y="110" width="90" height="40" as="geometry" />
        </mxCell>
        <mxCell id="uKwBP-VBY_xrLnJlRJrp-277" value="Categorias" style="rounded=0;whiteSpace=wrap;html=1;flipH=0;flipV=0;fillColor=#004CE3;" parent="1" vertex="1">
          <mxGeometry x="1620" y="170" width="90" height="40" as="geometry" />
        </mxCell>
        <mxCell id="KmOtgh7a1UM6X6IASe2r-22" style="edgeStyle=orthogonalEdgeStyle;rounded=0;orthogonalLoop=1;jettySize=auto;html=1;exitX=1;exitY=0.5;exitDx=0;exitDy=0;entryX=0;entryY=0.5;entryDx=0;entryDy=0;" edge="1" parent="1" source="uKwBP-VBY_xrLnJlRJrp-279" target="uKwBP-VBY_xrLnJlRJrp-288">
          <mxGeometry relative="1" as="geometry" />
        </mxCell>
        <mxCell id="uKwBP-VBY_xrLnJlRJrp-279" value="Loja" style="rounded=0;whiteSpace=wrap;html=1;flipH=0;flipV=0;fillColor=#004CE3;" parent="1" vertex="1">
          <mxGeometry x="1620" y="220" width="90" height="40" as="geometry" />
        </mxCell>
        <mxCell id="CsgZAK8M5pjyzk7mD2qb-2" style="edgeStyle=orthogonalEdgeStyle;rounded=0;orthogonalLoop=1;jettySize=auto;html=1;exitX=1;exitY=0.5;exitDx=0;exitDy=0;entryX=0;entryY=0.5;entryDx=0;entryDy=0;" edge="1" parent="1" source="uKwBP-VBY_xrLnJlRJrp-280" target="CsgZAK8M5pjyzk7mD2qb-1">
          <mxGeometry relative="1" as="geometry" />
        </mxCell>
        <mxCell id="uKwBP-VBY_xrLnJlRJrp-280" value="Ícone sacola" style="rounded=0;whiteSpace=wrap;html=1;flipH=0;flipV=0;fillColor=#004CE3;" parent="1" vertex="1">
          <mxGeometry x="1620" y="50" width="90" height="40" as="geometry" />
        </mxCell>
        <mxCell id="uKwBP-VBY_xrLnJlRJrp-286" value="Média de preço" style="rounded=0;whiteSpace=wrap;html=1;flipH=0;flipV=0;fillColor=#004CE3;" parent="1" vertex="1">
          <mxGeometry x="1740" y="110" width="90" height="40" as="geometry" />
        </mxCell>
        <mxCell id="uKwBP-VBY_xrLnJlRJrp-287" value="Categorias de produtos" style="rounded=0;whiteSpace=wrap;html=1;flipH=0;flipV=0;fillColor=#004CE3;" parent="1" vertex="1">
          <mxGeometry x="1740" y="170" width="90" height="40" as="geometry" />
        </mxCell>
        <mxCell id="uKwBP-VBY_xrLnJlRJrp-288" value="Lojas da plataforma" style="rounded=0;whiteSpace=wrap;html=1;flipH=0;flipV=0;fillColor=#004CE3;" parent="1" vertex="1">
          <mxGeometry x="1740" y="220" width="90" height="40" as="geometry" />
        </mxCell>
        <mxCell id="uKwBP-VBY_xrLnJlRJrp-291" value="" style="endArrow=classic;html=1;rounded=0;entryX=-0.003;entryY=0.553;entryDx=0;entryDy=0;entryPerimeter=0;" parent="1" target="uKwBP-VBY_xrLnJlRJrp-36" edge="1">
          <mxGeometry width="50" height="50" relative="1" as="geometry">
            <mxPoint x="1590" y="650" as="sourcePoint" />
            <mxPoint x="1610" y="660" as="targetPoint" />
            <Array as="points">
              <mxPoint x="1590" y="650" />
            </Array>
          </mxGeometry>
        </mxCell>
        <mxCell id="uKwBP-VBY_xrLnJlRJrp-292" value="" style="endArrow=classic;html=1;rounded=0;entryX=0;entryY=0.5;entryDx=0;entryDy=0;" parent="1" edge="1">
          <mxGeometry width="50" height="50" relative="1" as="geometry">
            <mxPoint x="1590" y="699.88" as="sourcePoint" />
            <mxPoint x="1630" y="699.88" as="targetPoint" />
            <Array as="points">
              <mxPoint x="1590" y="699.88" />
            </Array>
          </mxGeometry>
        </mxCell>
        <mxCell id="uKwBP-VBY_xrLnJlRJrp-294" value="" style="endArrow=none;html=1;rounded=0;" parent="1" edge="1">
          <mxGeometry width="50" height="50" relative="1" as="geometry">
            <mxPoint x="1590" y="750" as="sourcePoint" />
            <mxPoint x="1590" y="650" as="targetPoint" />
          </mxGeometry>
        </mxCell>
        <mxCell id="uKwBP-VBY_xrLnJlRJrp-295" value="" style="endArrow=none;html=1;rounded=0;exitX=1;exitY=0.5;exitDx=0;exitDy=0;" parent="1" source="uKwBP-VBY_xrLnJlRJrp-25" edge="1">
          <mxGeometry width="50" height="50" relative="1" as="geometry">
            <mxPoint x="1560" y="710" as="sourcePoint" />
            <mxPoint x="1590" y="700" as="targetPoint" />
          </mxGeometry>
        </mxCell>
        <mxCell id="uKwBP-VBY_xrLnJlRJrp-296" value="" style="endArrow=classic;html=1;rounded=0;entryX=-0.023;entryY=0.566;entryDx=0;entryDy=0;entryPerimeter=0;" parent="1" target="uKwBP-VBY_xrLnJlRJrp-38" edge="1">
          <mxGeometry width="50" height="50" relative="1" as="geometry">
            <mxPoint x="1590" y="750" as="sourcePoint" />
            <mxPoint x="1680" y="690" as="targetPoint" />
          </mxGeometry>
        </mxCell>
        <mxCell id="uKwBP-VBY_xrLnJlRJrp-298" style="edgeStyle=orthogonalEdgeStyle;rounded=0;orthogonalLoop=1;jettySize=auto;html=1;exitX=1;exitY=0.5;exitDx=0;exitDy=0;entryX=-0.013;entryY=0.556;entryDx=0;entryDy=0;entryPerimeter=0;" parent="1" source="uKwBP-VBY_xrLnJlRJrp-14" target="uKwBP-VBY_xrLnJlRJrp-22" edge="1">
          <mxGeometry relative="1" as="geometry" />
        </mxCell>
        <mxCell id="uKwBP-VBY_xrLnJlRJrp-299" style="edgeStyle=orthogonalEdgeStyle;rounded=0;orthogonalLoop=1;jettySize=auto;html=1;exitX=1;exitY=0.5;exitDx=0;exitDy=0;entryX=-0.002;entryY=0.605;entryDx=0;entryDy=0;entryPerimeter=0;" parent="1" source="uKwBP-VBY_xrLnJlRJrp-13" target="uKwBP-VBY_xrLnJlRJrp-20" edge="1">
          <mxGeometry relative="1" as="geometry" />
        </mxCell>
        <mxCell id="uKwBP-VBY_xrLnJlRJrp-380" style="edgeStyle=orthogonalEdgeStyle;rounded=0;orthogonalLoop=1;jettySize=auto;html=1;exitX=0.5;exitY=1;exitDx=0;exitDy=0;entryX=0.5;entryY=0;entryDx=0;entryDy=0;" parent="1" source="uKwBP-VBY_xrLnJlRJrp-301" target="uKwBP-VBY_xrLnJlRJrp-302" edge="1">
          <mxGeometry relative="1" as="geometry" />
        </mxCell>
        <mxCell id="uKwBP-VBY_xrLnJlRJrp-301" value="Ícone &quot;Perfil&quot;" style="rounded=0;whiteSpace=wrap;html=1;fillColor=#002B80;" parent="1" vertex="1">
          <mxGeometry x="720" y="985" width="120" height="60" as="geometry" />
        </mxCell>
        <mxCell id="uKwBP-VBY_xrLnJlRJrp-302" value="Perfil do usuário" style="rounded=0;whiteSpace=wrap;html=1;fillColor=#0046D1;" parent="1" vertex="1">
          <mxGeometry x="720" y="1090" width="120" height="55" as="geometry" />
        </mxCell>
        <mxCell id="uKwBP-VBY_xrLnJlRJrp-381" style="edgeStyle=orthogonalEdgeStyle;rounded=0;orthogonalLoop=1;jettySize=auto;html=1;entryX=0.5;entryY=0;entryDx=0;entryDy=0;" parent="1" source="uKwBP-VBY_xrLnJlRJrp-304" target="uKwBP-VBY_xrLnJlRJrp-306" edge="1">
          <mxGeometry relative="1" as="geometry" />
        </mxCell>
        <mxCell id="uKwBP-VBY_xrLnJlRJrp-304" value="Caso o usuário não &lt;br style=&quot;font-size: 13px;&quot;&gt;esteja logado" style="text;html=1;align=center;verticalAlign=middle;resizable=0;points=[];autosize=1;strokeColor=none;fillColor=none;fontStyle=1;fontFamily=Verdana;fontSize=13;" parent="1" vertex="1">
          <mxGeometry x="1040" y="900" width="160" height="40" as="geometry" />
        </mxCell>
        <mxCell id="uKwBP-VBY_xrLnJlRJrp-306" value="Ícone &quot;Login&quot;" style="rounded=0;whiteSpace=wrap;html=1;fillColor=#002B80;" parent="1" vertex="1">
          <mxGeometry x="1060" y="980" width="120" height="60" as="geometry" />
        </mxCell>
        <mxCell id="uKwBP-VBY_xrLnJlRJrp-407" style="edgeStyle=orthogonalEdgeStyle;rounded=0;orthogonalLoop=1;jettySize=auto;html=1;exitX=1;exitY=0.75;exitDx=0;exitDy=0;entryX=0;entryY=0.25;entryDx=0;entryDy=0;" parent="1" source="uKwBP-VBY_xrLnJlRJrp-307" target="uKwBP-VBY_xrLnJlRJrp-309" edge="1">
          <mxGeometry relative="1" as="geometry" />
        </mxCell>
        <mxCell id="uKwBP-VBY_xrLnJlRJrp-307" value="E-mail" style="rounded=0;whiteSpace=wrap;html=1;fillColor=#002C85;" parent="1" vertex="1">
          <mxGeometry x="1360" y="985" width="90" height="40" as="geometry" />
        </mxCell>
        <mxCell id="uKwBP-VBY_xrLnJlRJrp-408" style="edgeStyle=orthogonalEdgeStyle;rounded=0;orthogonalLoop=1;jettySize=auto;html=1;exitX=1;exitY=0.25;exitDx=0;exitDy=0;entryX=0;entryY=0.75;entryDx=0;entryDy=0;" parent="1" source="uKwBP-VBY_xrLnJlRJrp-308" target="uKwBP-VBY_xrLnJlRJrp-309" edge="1">
          <mxGeometry relative="1" as="geometry" />
        </mxCell>
        <mxCell id="uKwBP-VBY_xrLnJlRJrp-308" value="Senha" style="rounded=0;whiteSpace=wrap;html=1;fillColor=#002C85;" parent="1" vertex="1">
          <mxGeometry x="1360" y="1070" width="90" height="40" as="geometry" />
        </mxCell>
        <mxCell id="uKwBP-VBY_xrLnJlRJrp-309" value="Botão cinza &quot;Continuar&quot;" style="rounded=0;whiteSpace=wrap;html=1;fillColor=#002C85;" parent="1" vertex="1">
          <mxGeometry x="2000" y="1020" width="110" height="50" as="geometry" />
        </mxCell>
        <mxCell id="uKwBP-VBY_xrLnJlRJrp-742" style="edgeStyle=orthogonalEdgeStyle;rounded=0;orthogonalLoop=1;jettySize=auto;html=1;exitX=1;exitY=0.5;exitDx=0;exitDy=0;entryX=0;entryY=0.5;entryDx=0;entryDy=0;" parent="1" source="uKwBP-VBY_xrLnJlRJrp-310" target="uKwBP-VBY_xrLnJlRJrp-331" edge="1">
          <mxGeometry relative="1" as="geometry" />
        </mxCell>
        <mxCell id="uKwBP-VBY_xrLnJlRJrp-743" style="edgeStyle=orthogonalEdgeStyle;rounded=0;orthogonalLoop=1;jettySize=auto;html=1;exitX=0;exitY=0.5;exitDx=0;exitDy=0;entryX=1;entryY=0.5;entryDx=0;entryDy=0;" parent="1" source="uKwBP-VBY_xrLnJlRJrp-310" target="uKwBP-VBY_xrLnJlRJrp-420" edge="1">
          <mxGeometry relative="1" as="geometry" />
        </mxCell>
        <mxCell id="uKwBP-VBY_xrLnJlRJrp-310" value="Cadastre-se aqui" style="rounded=0;whiteSpace=wrap;html=1;fillColor=#002B80;" parent="1" vertex="1">
          <mxGeometry x="1061" y="1410" width="120" height="60" as="geometry" />
        </mxCell>
        <mxCell id="uKwBP-VBY_xrLnJlRJrp-383" style="edgeStyle=orthogonalEdgeStyle;rounded=0;orthogonalLoop=1;jettySize=auto;html=1;entryX=0.5;entryY=0;entryDx=0;entryDy=0;" parent="1" source="uKwBP-VBY_xrLnJlRJrp-312" target="uKwBP-VBY_xrLnJlRJrp-310" edge="1">
          <mxGeometry relative="1" as="geometry" />
        </mxCell>
        <mxCell id="uKwBP-VBY_xrLnJlRJrp-312" value="Caso o usuário não&lt;br style=&quot;font-size: 13px;&quot;&gt;&amp;nbsp;tenha uma conta" style="text;html=1;align=center;verticalAlign=middle;resizable=0;points=[];autosize=1;strokeColor=none;fillColor=none;fontFamily=Verdana;fontStyle=1;fontSize=13;" parent="1" vertex="1">
          <mxGeometry x="1040" y="1097.5" width="160" height="40" as="geometry" />
        </mxCell>
        <mxCell id="uKwBP-VBY_xrLnJlRJrp-379" style="edgeStyle=orthogonalEdgeStyle;rounded=0;orthogonalLoop=1;jettySize=auto;html=1;entryX=0.5;entryY=0;entryDx=0;entryDy=0;" parent="1" source="uKwBP-VBY_xrLnJlRJrp-314" target="uKwBP-VBY_xrLnJlRJrp-301" edge="1">
          <mxGeometry relative="1" as="geometry" />
        </mxCell>
        <mxCell id="uKwBP-VBY_xrLnJlRJrp-314" value="Caso o usuário já&lt;br style=&quot;font-size: 13px;&quot;&gt;&amp;nbsp;possua uma conta" style="text;html=1;align=center;verticalAlign=middle;resizable=0;points=[];autosize=1;strokeColor=none;fillColor=none;fontFamily=Verdana;fontStyle=1;fontSize=13;" parent="1" vertex="1">
          <mxGeometry x="700" y="900" width="160" height="40" as="geometry" />
        </mxCell>
        <mxCell id="uKwBP-VBY_xrLnJlRJrp-330" value="Botão cinza &quot;Cadastrar&quot;" style="rounded=0;whiteSpace=wrap;html=1;fillColor=#0046D1;" parent="1" vertex="1">
          <mxGeometry x="1065" y="1756.25" width="110" height="50" as="geometry" />
        </mxCell>
        <mxCell id="uKwBP-VBY_xrLnJlRJrp-331" value="Informações pessoais" style="rounded=1;whiteSpace=wrap;html=1;fillColor=#0046D1;" parent="1" vertex="1">
          <mxGeometry x="1300" y="1415" width="110" height="50" as="geometry" />
        </mxCell>
        <mxCell id="uKwBP-VBY_xrLnJlRJrp-377" value="" style="endArrow=classic;html=1;rounded=0;exitX=0.766;exitY=1.004;exitDx=0;exitDy=0;exitPerimeter=0;entryX=0.501;entryY=-0.003;entryDx=0;entryDy=0;entryPerimeter=0;" parent="1" source="uKwBP-VBY_xrLnJlRJrp-11" edge="1">
          <mxGeometry width="50" height="50" relative="1" as="geometry">
            <mxPoint x="1002" y="393" as="sourcePoint" />
            <mxPoint x="780" y="902" as="targetPoint" />
            <Array as="points">
              <mxPoint x="1000" y="860" />
              <mxPoint x="780" y="860" />
            </Array>
          </mxGeometry>
        </mxCell>
        <mxCell id="uKwBP-VBY_xrLnJlRJrp-378" value="" style="endArrow=classic;html=1;rounded=0;entryX=0.502;entryY=-0.014;entryDx=0;entryDy=0;entryPerimeter=0;" parent="1" edge="1">
          <mxGeometry width="50" height="50" relative="1" as="geometry">
            <mxPoint x="1000" y="860" as="sourcePoint" />
            <mxPoint x="1120" y="899" as="targetPoint" />
            <Array as="points">
              <mxPoint x="1120" y="860" />
            </Array>
          </mxGeometry>
        </mxCell>
        <mxCell id="uKwBP-VBY_xrLnJlRJrp-382" style="edgeStyle=orthogonalEdgeStyle;rounded=0;orthogonalLoop=1;jettySize=auto;html=1;exitX=0.5;exitY=1;exitDx=0;exitDy=0;entryX=0.498;entryY=0.006;entryDx=0;entryDy=0;entryPerimeter=0;" parent="1" source="uKwBP-VBY_xrLnJlRJrp-306" target="uKwBP-VBY_xrLnJlRJrp-312" edge="1">
          <mxGeometry relative="1" as="geometry" />
        </mxCell>
        <mxCell id="uKwBP-VBY_xrLnJlRJrp-384" value="Nome completo" style="rounded=0;whiteSpace=wrap;html=1;fillColor=#002C85;" parent="1" vertex="1">
          <mxGeometry x="1520" y="1420" width="90" height="40" as="geometry" />
        </mxCell>
        <mxCell id="uKwBP-VBY_xrLnJlRJrp-385" value="CPF" style="rounded=0;whiteSpace=wrap;html=1;fillColor=#002C85;" parent="1" vertex="1">
          <mxGeometry x="1520" y="1610" width="90" height="40" as="geometry" />
        </mxCell>
        <mxCell id="uKwBP-VBY_xrLnJlRJrp-386" value="E-mail" style="rounded=0;whiteSpace=wrap;html=1;fillColor=#002C85;" parent="1" vertex="1">
          <mxGeometry x="1520" y="1804" width="90" height="40" as="geometry" />
        </mxCell>
        <mxCell id="uKwBP-VBY_xrLnJlRJrp-387" value="Telefone" style="rounded=0;whiteSpace=wrap;html=1;fillColor=#002C85;" parent="1" vertex="1">
          <mxGeometry x="1520" y="2000" width="90" height="40" as="geometry" />
        </mxCell>
        <mxCell id="uKwBP-VBY_xrLnJlRJrp-388" value="Confirme sua senha" style="rounded=0;whiteSpace=wrap;html=1;fillColor=#002C85;" parent="1" vertex="1">
          <mxGeometry x="1520" y="2380" width="90" height="40" as="geometry" />
        </mxCell>
        <mxCell id="uKwBP-VBY_xrLnJlRJrp-389" value="Senha" style="rounded=0;whiteSpace=wrap;html=1;fillColor=#002C85;" parent="1" vertex="1">
          <mxGeometry x="1520" y="2190" width="90" height="40" as="geometry" />
        </mxCell>
        <mxCell id="uKwBP-VBY_xrLnJlRJrp-390" value="Somente letras latinas, números, hífen, pontos e @" style="rounded=0;whiteSpace=wrap;html=1;fillColor=#0046D1;" parent="1" vertex="1">
          <mxGeometry x="1465" y="920" width="100" height="50" as="geometry" />
        </mxCell>
        <mxCell id="uKwBP-VBY_xrLnJlRJrp-391" value="Apenas de 5 a 50 caracteres" style="rounded=0;whiteSpace=wrap;html=1;fillColor=#0046D1;" parent="1" vertex="1">
          <mxGeometry x="1590" y="930" width="90" height="40" as="geometry" />
        </mxCell>
        <mxCell id="uKwBP-VBY_xrLnJlRJrp-393" value="Ao inserir um valor incorreto, a frase &quot;Preencha este campo&quot; aparece em vermelho abaixo do campo&amp;nbsp;" style="rounded=0;whiteSpace=wrap;html=1;fillColor=#0046D1;" parent="1" vertex="1">
          <mxGeometry x="1705" y="910" width="160" height="60" as="geometry" />
        </mxCell>
        <mxCell id="uKwBP-VBY_xrLnJlRJrp-397" value="" style="endArrow=classic;html=1;rounded=0;entryX=0.5;entryY=1;entryDx=0;entryDy=0;" parent="1" target="uKwBP-VBY_xrLnJlRJrp-390" edge="1">
          <mxGeometry width="50" height="50" relative="1" as="geometry">
            <mxPoint x="1515" y="1000" as="sourcePoint" />
            <mxPoint x="1600" y="920" as="targetPoint" />
          </mxGeometry>
        </mxCell>
        <mxCell id="uKwBP-VBY_xrLnJlRJrp-398" value="" style="endArrow=classic;html=1;rounded=0;entryX=0.5;entryY=1;entryDx=0;entryDy=0;" parent="1" edge="1">
          <mxGeometry width="50" height="50" relative="1" as="geometry">
            <mxPoint x="1790" y="1000" as="sourcePoint" />
            <mxPoint x="1790" y="970" as="targetPoint" />
            <Array as="points">
              <mxPoint x="1790.31" y="990" />
            </Array>
          </mxGeometry>
        </mxCell>
        <mxCell id="uKwBP-VBY_xrLnJlRJrp-399" value="" style="endArrow=classic;html=1;rounded=0;entryX=0.5;entryY=1;entryDx=0;entryDy=0;" parent="1" edge="1">
          <mxGeometry width="50" height="50" relative="1" as="geometry">
            <mxPoint x="1634.82" y="1000" as="sourcePoint" />
            <mxPoint x="1634.82" y="970" as="targetPoint" />
          </mxGeometry>
        </mxCell>
        <mxCell id="uKwBP-VBY_xrLnJlRJrp-400" value="Somente letras latinas, números e caracteres especiais" style="rounded=0;whiteSpace=wrap;html=1;fillColor=#0046D1;" parent="1" vertex="1">
          <mxGeometry x="1465" y="1127.5" width="105" height="62.5" as="geometry" />
        </mxCell>
        <mxCell id="uKwBP-VBY_xrLnJlRJrp-401" value="Apenas de 10 a 15 caracteres" style="rounded=0;whiteSpace=wrap;html=1;fillColor=#0046D1;" parent="1" vertex="1">
          <mxGeometry x="1590" y="1127.5" width="90" height="40" as="geometry" />
        </mxCell>
        <mxCell id="uKwBP-VBY_xrLnJlRJrp-402" value="Ao inserir um valor incorreto, a frase &quot;Preencha este campo&quot; aparece em vermelho abaixo do campo&amp;nbsp;" style="rounded=0;whiteSpace=wrap;html=1;fillColor=#0046D1;" parent="1" vertex="1">
          <mxGeometry x="1705" y="1127.5" width="160" height="60" as="geometry" />
        </mxCell>
        <mxCell id="uKwBP-VBY_xrLnJlRJrp-404" value="" style="endArrow=classic;html=1;rounded=0;entryX=0.5;entryY=1;entryDx=0;entryDy=0;" parent="1" edge="1">
          <mxGeometry width="50" height="50" relative="1" as="geometry">
            <mxPoint x="1635" y="1100" as="sourcePoint" />
            <mxPoint x="1634.78" y="1127.5" as="targetPoint" />
          </mxGeometry>
        </mxCell>
        <mxCell id="uKwBP-VBY_xrLnJlRJrp-405" value="" style="endArrow=classic;html=1;rounded=0;entryX=0.5;entryY=1;entryDx=0;entryDy=0;" parent="1" edge="1">
          <mxGeometry width="50" height="50" relative="1" as="geometry">
            <mxPoint x="1520" y="1100" as="sourcePoint" />
            <mxPoint x="1520" y="1127.5" as="targetPoint" />
          </mxGeometry>
        </mxCell>
        <mxCell id="uKwBP-VBY_xrLnJlRJrp-406" value="" style="endArrow=classic;html=1;rounded=0;entryX=0.5;entryY=1;entryDx=0;entryDy=0;" parent="1" edge="1">
          <mxGeometry width="50" height="50" relative="1" as="geometry">
            <mxPoint x="1790" y="1100" as="sourcePoint" />
            <mxPoint x="1790" y="1127.5" as="targetPoint" />
          </mxGeometry>
        </mxCell>
        <mxCell id="uKwBP-VBY_xrLnJlRJrp-409" value="" style="endArrow=none;html=1;rounded=0;exitX=1.007;exitY=0.373;exitDx=0;exitDy=0;exitPerimeter=0;" parent="1" source="uKwBP-VBY_xrLnJlRJrp-307" edge="1">
          <mxGeometry width="50" height="50" relative="1" as="geometry">
            <mxPoint x="1650" y="1010" as="sourcePoint" />
            <mxPoint x="1790" y="1000" as="targetPoint" />
          </mxGeometry>
        </mxCell>
        <mxCell id="uKwBP-VBY_xrLnJlRJrp-410" value="" style="endArrow=none;html=1;rounded=0;exitX=1;exitY=0.75;exitDx=0;exitDy=0;" parent="1" source="uKwBP-VBY_xrLnJlRJrp-308" edge="1">
          <mxGeometry width="50" height="50" relative="1" as="geometry">
            <mxPoint x="1610" y="1130" as="sourcePoint" />
            <mxPoint x="1790" y="1100" as="targetPoint" />
          </mxGeometry>
        </mxCell>
        <mxCell id="uKwBP-VBY_xrLnJlRJrp-417" value="Somente letras latinas, espaços e traços" style="rounded=0;whiteSpace=wrap;html=1;fillColor=#0046D1;" parent="1" vertex="1">
          <mxGeometry x="1520" y="1318.75" width="105" height="62.5" as="geometry" />
        </mxCell>
        <mxCell id="uKwBP-VBY_xrLnJlRJrp-418" value="Apenas de 10 a 40 caracteres" style="rounded=0;whiteSpace=wrap;html=1;fillColor=#0046D1;" parent="1" vertex="1">
          <mxGeometry x="1650" y="1340" width="90" height="40" as="geometry" />
        </mxCell>
        <mxCell id="uKwBP-VBY_xrLnJlRJrp-419" value="Ao inserir um valor incorreto, a frase &quot;Preencha este campo&quot; aparece em vermelho abaixo do campo&amp;nbsp;" style="rounded=0;whiteSpace=wrap;html=1;fillColor=#0046D1;" parent="1" vertex="1">
          <mxGeometry x="1770" y="1318.75" width="160" height="60" as="geometry" />
        </mxCell>
        <mxCell id="uKwBP-VBY_xrLnJlRJrp-420" value="Endereço" style="rounded=1;whiteSpace=wrap;html=1;fillColor=#0046D1;" parent="1" vertex="1">
          <mxGeometry x="827" y="1415" width="110" height="50" as="geometry" />
        </mxCell>
        <mxCell id="uKwBP-VBY_xrLnJlRJrp-427" value="Somente números" style="rounded=0;whiteSpace=wrap;html=1;fillColor=#0046D1;" parent="1" vertex="1">
          <mxGeometry x="1520" y="1503.75" width="105" height="62.5" as="geometry" />
        </mxCell>
        <mxCell id="uKwBP-VBY_xrLnJlRJrp-428" value="Apenas 11 caracteres" style="rounded=0;whiteSpace=wrap;html=1;fillColor=#0046D1;" parent="1" vertex="1">
          <mxGeometry x="1654" y="1523.75" width="90" height="40" as="geometry" />
        </mxCell>
        <mxCell id="uKwBP-VBY_xrLnJlRJrp-429" value="Ao inserir um valor incorreto, a frase &quot;Preencha este campo&quot; aparece em vermelho abaixo do campo&amp;nbsp;" style="rounded=0;whiteSpace=wrap;html=1;fillColor=#0046D1;" parent="1" vertex="1">
          <mxGeometry x="1770" y="1503.75" width="160" height="60" as="geometry" />
        </mxCell>
        <mxCell id="uKwBP-VBY_xrLnJlRJrp-430" value="Somente letras latinas, números, hífens, pontos e caracteres especiais&amp;nbsp;" style="rounded=0;whiteSpace=wrap;html=1;fillColor=#0046D1;" parent="1" vertex="1">
          <mxGeometry x="1510" y="1690" width="115" height="66.25" as="geometry" />
        </mxCell>
        <mxCell id="uKwBP-VBY_xrLnJlRJrp-431" value="Apenas de 5 a 50 caracteres" style="rounded=0;whiteSpace=wrap;html=1;fillColor=#0046D1;" parent="1" vertex="1">
          <mxGeometry x="1650" y="1716.25" width="90" height="40" as="geometry" />
        </mxCell>
        <mxCell id="uKwBP-VBY_xrLnJlRJrp-432" value="Ao inserir um valor incorreto, a frase &quot;Preencha este campo&quot; aparece em vermelho abaixo do campo&amp;nbsp;" style="rounded=0;whiteSpace=wrap;html=1;fillColor=#0046D1;" parent="1" vertex="1">
          <mxGeometry x="1770" y="1696.25" width="160" height="60" as="geometry" />
        </mxCell>
        <mxCell id="uKwBP-VBY_xrLnJlRJrp-433" value="Somente números" style="rounded=0;whiteSpace=wrap;html=1;fillColor=#0046D1;" parent="1" vertex="1">
          <mxGeometry x="1520" y="1891.5" width="105" height="62.5" as="geometry" />
        </mxCell>
        <mxCell id="uKwBP-VBY_xrLnJlRJrp-435" value="Apenas 11 caracteres" style="rounded=0;whiteSpace=wrap;html=1;fillColor=#0046D1;" parent="1" vertex="1">
          <mxGeometry x="1650" y="1914" width="90" height="40" as="geometry" />
        </mxCell>
        <mxCell id="uKwBP-VBY_xrLnJlRJrp-436" value="Ao inserir um valor incorreto, a frase &quot;Preencha este campo&quot; aparece em vermelho abaixo do campo&amp;nbsp;" style="rounded=0;whiteSpace=wrap;html=1;fillColor=#0046D1;" parent="1" vertex="1">
          <mxGeometry x="1770" y="1894" width="160" height="60" as="geometry" />
        </mxCell>
        <mxCell id="uKwBP-VBY_xrLnJlRJrp-437" value="Somente letras latinas, números e caracteres especiais" style="rounded=0;whiteSpace=wrap;html=1;fillColor=#0046D1;" parent="1" vertex="1">
          <mxGeometry x="1520" y="2080" width="105" height="62.5" as="geometry" />
        </mxCell>
        <mxCell id="uKwBP-VBY_xrLnJlRJrp-438" value="Apenas de 10 a 15 caracteres" style="rounded=0;whiteSpace=wrap;html=1;fillColor=#0046D1;" parent="1" vertex="1">
          <mxGeometry x="1650" y="2102.5" width="90" height="40" as="geometry" />
        </mxCell>
        <mxCell id="uKwBP-VBY_xrLnJlRJrp-439" value="Ao inserir um valor incorreto, a frase &quot;Preencha este campo&quot; aparece em vermelho abaixo do campo&amp;nbsp;" style="rounded=0;whiteSpace=wrap;html=1;fillColor=#0046D1;" parent="1" vertex="1">
          <mxGeometry x="1770" y="2082.5" width="160" height="60" as="geometry" />
        </mxCell>
        <mxCell id="uKwBP-VBY_xrLnJlRJrp-440" value="Somente letras latinas, números e caracteres especiais" style="rounded=0;whiteSpace=wrap;html=1;fillColor=#0046D1;" parent="1" vertex="1">
          <mxGeometry x="1520" y="2276" width="105" height="62.5" as="geometry" />
        </mxCell>
        <mxCell id="uKwBP-VBY_xrLnJlRJrp-441" value="Apenas de 10 a 15 caracteres" style="rounded=0;whiteSpace=wrap;html=1;fillColor=#0046D1;" parent="1" vertex="1">
          <mxGeometry x="1650" y="2298" width="90" height="40" as="geometry" />
        </mxCell>
        <mxCell id="uKwBP-VBY_xrLnJlRJrp-442" value="Ao inserir um valor incorreto, a frase &quot;Preencha este campo&quot; aparece em vermelho abaixo do campo&amp;nbsp;" style="rounded=0;whiteSpace=wrap;html=1;fillColor=#0046D1;" parent="1" vertex="1">
          <mxGeometry x="1770" y="2278" width="160" height="60" as="geometry" />
        </mxCell>
        <mxCell id="uKwBP-VBY_xrLnJlRJrp-443" value="" style="endArrow=none;html=1;rounded=0;exitX=1;exitY=0.5;exitDx=0;exitDy=0;" parent="1" source="uKwBP-VBY_xrLnJlRJrp-331" edge="1">
          <mxGeometry width="50" height="50" relative="1" as="geometry">
            <mxPoint x="1460" y="1450" as="sourcePoint" />
            <mxPoint x="1460" y="1440" as="targetPoint" />
          </mxGeometry>
        </mxCell>
        <mxCell id="uKwBP-VBY_xrLnJlRJrp-448" value="" style="endArrow=classic;html=1;rounded=0;entryX=0;entryY=0.5;entryDx=0;entryDy=0;" parent="1" edge="1">
          <mxGeometry width="50" height="50" relative="1" as="geometry">
            <mxPoint x="1460" y="1629.49" as="sourcePoint" />
            <mxPoint x="1520" y="1629.49" as="targetPoint" />
          </mxGeometry>
        </mxCell>
        <mxCell id="uKwBP-VBY_xrLnJlRJrp-449" value="" style="endArrow=classic;html=1;rounded=0;entryX=0;entryY=0.5;entryDx=0;entryDy=0;" parent="1" edge="1">
          <mxGeometry width="50" height="50" relative="1" as="geometry">
            <mxPoint x="1460" y="1823.74" as="sourcePoint" />
            <mxPoint x="1520" y="1823.74" as="targetPoint" />
          </mxGeometry>
        </mxCell>
        <mxCell id="uKwBP-VBY_xrLnJlRJrp-451" value="" style="endArrow=classic;html=1;rounded=0;entryX=0;entryY=0.5;entryDx=0;entryDy=0;" parent="1" edge="1">
          <mxGeometry width="50" height="50" relative="1" as="geometry">
            <mxPoint x="1460" y="2019.74" as="sourcePoint" />
            <mxPoint x="1520" y="2019.74" as="targetPoint" />
          </mxGeometry>
        </mxCell>
        <mxCell id="uKwBP-VBY_xrLnJlRJrp-452" value="" style="endArrow=classic;html=1;rounded=0;entryX=0;entryY=0.5;entryDx=0;entryDy=0;" parent="1" edge="1">
          <mxGeometry width="50" height="50" relative="1" as="geometry">
            <mxPoint x="1460" y="2209.74" as="sourcePoint" />
            <mxPoint x="1520" y="2209.74" as="targetPoint" />
          </mxGeometry>
        </mxCell>
        <mxCell id="uKwBP-VBY_xrLnJlRJrp-453" value="" style="endArrow=classic;html=1;rounded=0;entryX=0;entryY=0.5;entryDx=0;entryDy=0;" parent="1" edge="1">
          <mxGeometry width="50" height="50" relative="1" as="geometry">
            <mxPoint x="1460" y="2399.74" as="sourcePoint" />
            <mxPoint x="1520" y="2399.74" as="targetPoint" />
          </mxGeometry>
        </mxCell>
        <mxCell id="uKwBP-VBY_xrLnJlRJrp-454" value="" style="endArrow=none;html=1;rounded=0;" parent="1" edge="1">
          <mxGeometry width="50" height="50" relative="1" as="geometry">
            <mxPoint x="1570" y="1400" as="sourcePoint" />
            <mxPoint x="1860" y="1400" as="targetPoint" />
          </mxGeometry>
        </mxCell>
        <mxCell id="uKwBP-VBY_xrLnJlRJrp-455" value="" style="endArrow=classic;html=1;rounded=0;entryX=0.5;entryY=1;entryDx=0;entryDy=0;exitX=0.581;exitY=0.014;exitDx=0;exitDy=0;exitPerimeter=0;" parent="1" edge="1">
          <mxGeometry width="50" height="50" relative="1" as="geometry">
            <mxPoint x="1570" y="1420.56" as="sourcePoint" />
            <mxPoint x="1570.21" y="1381.25" as="targetPoint" />
          </mxGeometry>
        </mxCell>
        <mxCell id="uKwBP-VBY_xrLnJlRJrp-456" value="" style="endArrow=classic;html=1;rounded=0;exitX=0.581;exitY=0.014;exitDx=0;exitDy=0;exitPerimeter=0;entryX=0.474;entryY=1.014;entryDx=0;entryDy=0;entryPerimeter=0;" parent="1" target="uKwBP-VBY_xrLnJlRJrp-427" edge="1">
          <mxGeometry width="50" height="50" relative="1" as="geometry">
            <mxPoint x="1570" y="1610" as="sourcePoint" />
            <mxPoint x="1570" y="1570" as="targetPoint" />
          </mxGeometry>
        </mxCell>
        <mxCell id="uKwBP-VBY_xrLnJlRJrp-457" value="" style="endArrow=none;html=1;rounded=0;" parent="1" edge="1">
          <mxGeometry width="50" height="50" relative="1" as="geometry">
            <mxPoint x="1570" y="1590" as="sourcePoint" />
            <mxPoint x="1860" y="1590" as="targetPoint" />
          </mxGeometry>
        </mxCell>
        <mxCell id="uKwBP-VBY_xrLnJlRJrp-458" value="" style="endArrow=classic;html=1;rounded=0;entryX=0.56;entryY=1.039;entryDx=0;entryDy=0;entryPerimeter=0;" parent="1" target="uKwBP-VBY_xrLnJlRJrp-418" edge="1">
          <mxGeometry width="50" height="50" relative="1" as="geometry">
            <mxPoint x="1700" y="1400" as="sourcePoint" />
            <mxPoint x="1790" y="1500" as="targetPoint" />
          </mxGeometry>
        </mxCell>
        <mxCell id="uKwBP-VBY_xrLnJlRJrp-459" value="" style="endArrow=classic;html=1;rounded=0;entryX=0.561;entryY=1.01;entryDx=0;entryDy=0;entryPerimeter=0;" parent="1" target="uKwBP-VBY_xrLnJlRJrp-419" edge="1">
          <mxGeometry width="50" height="50" relative="1" as="geometry">
            <mxPoint x="1860" y="1400" as="sourcePoint" />
            <mxPoint x="1860" y="1381.25" as="targetPoint" />
          </mxGeometry>
        </mxCell>
        <mxCell id="uKwBP-VBY_xrLnJlRJrp-460" value="" style="endArrow=classic;html=1;rounded=0;entryX=0.5;entryY=1;entryDx=0;entryDy=0;" parent="1" target="uKwBP-VBY_xrLnJlRJrp-428" edge="1">
          <mxGeometry width="50" height="50" relative="1" as="geometry">
            <mxPoint x="1699.59" y="1590" as="sourcePoint" />
            <mxPoint x="1698.4099999999999" y="1563.75" as="targetPoint" />
          </mxGeometry>
        </mxCell>
        <mxCell id="uKwBP-VBY_xrLnJlRJrp-461" value="" style="endArrow=classic;html=1;rounded=0;entryX=0.5;entryY=1;entryDx=0;entryDy=0;" parent="1" edge="1">
          <mxGeometry width="50" height="50" relative="1" as="geometry">
            <mxPoint x="1860.59" y="1589.75" as="sourcePoint" />
            <mxPoint x="1860" y="1563.75" as="targetPoint" />
          </mxGeometry>
        </mxCell>
        <mxCell id="uKwBP-VBY_xrLnJlRJrp-462" value="" style="endArrow=none;html=1;rounded=0;" parent="1" edge="1">
          <mxGeometry width="50" height="50" relative="1" as="geometry">
            <mxPoint x="1570" y="1780" as="sourcePoint" />
            <mxPoint x="1860" y="1780" as="targetPoint" />
          </mxGeometry>
        </mxCell>
        <mxCell id="uKwBP-VBY_xrLnJlRJrp-463" value="" style="endArrow=classic;html=1;rounded=0;exitX=0.553;exitY=0.003;exitDx=0;exitDy=0;exitPerimeter=0;" parent="1" source="uKwBP-VBY_xrLnJlRJrp-386" edge="1">
          <mxGeometry width="50" height="50" relative="1" as="geometry">
            <mxPoint x="1570" y="1800" as="sourcePoint" />
            <mxPoint x="1570" y="1760" as="targetPoint" />
          </mxGeometry>
        </mxCell>
        <mxCell id="uKwBP-VBY_xrLnJlRJrp-464" value="" style="endArrow=classic;html=1;rounded=0;entryX=0.558;entryY=1.002;entryDx=0;entryDy=0;entryPerimeter=0;" parent="1" target="uKwBP-VBY_xrLnJlRJrp-431" edge="1">
          <mxGeometry width="50" height="50" relative="1" as="geometry">
            <mxPoint x="1700" y="1780" as="sourcePoint" />
            <mxPoint x="1730" y="1760" as="targetPoint" />
          </mxGeometry>
        </mxCell>
        <mxCell id="uKwBP-VBY_xrLnJlRJrp-465" value="" style="endArrow=classic;html=1;rounded=0;entryX=0.558;entryY=1.002;entryDx=0;entryDy=0;entryPerimeter=0;" parent="1" edge="1">
          <mxGeometry width="50" height="50" relative="1" as="geometry">
            <mxPoint x="1860" y="1780.25" as="sourcePoint" />
            <mxPoint x="1860" y="1756.25" as="targetPoint" />
          </mxGeometry>
        </mxCell>
        <mxCell id="uKwBP-VBY_xrLnJlRJrp-466" value="" style="endArrow=none;html=1;rounded=0;" parent="1" edge="1">
          <mxGeometry width="50" height="50" relative="1" as="geometry">
            <mxPoint x="1570" y="1980" as="sourcePoint" />
            <mxPoint x="1860" y="1980" as="targetPoint" />
          </mxGeometry>
        </mxCell>
        <mxCell id="uKwBP-VBY_xrLnJlRJrp-467" value="" style="endArrow=classic;html=1;rounded=0;exitX=0.547;exitY=-0.001;exitDx=0;exitDy=0;exitPerimeter=0;entryX=0.478;entryY=1.003;entryDx=0;entryDy=0;entryPerimeter=0;" parent="1" source="uKwBP-VBY_xrLnJlRJrp-387" target="uKwBP-VBY_xrLnJlRJrp-433" edge="1">
          <mxGeometry width="50" height="50" relative="1" as="geometry">
            <mxPoint x="1550" y="1980" as="sourcePoint" />
            <mxPoint x="1600" y="1930" as="targetPoint" />
          </mxGeometry>
        </mxCell>
        <mxCell id="uKwBP-VBY_xrLnJlRJrp-468" value="" style="endArrow=classic;html=1;rounded=0;entryX=0.558;entryY=1.002;entryDx=0;entryDy=0;entryPerimeter=0;" parent="1" edge="1">
          <mxGeometry width="50" height="50" relative="1" as="geometry">
            <mxPoint x="1699" y="1980" as="sourcePoint" />
            <mxPoint x="1698.84" y="1954" as="targetPoint" />
          </mxGeometry>
        </mxCell>
        <mxCell id="uKwBP-VBY_xrLnJlRJrp-469" value="" style="endArrow=classic;html=1;rounded=0;entryX=0.558;entryY=1.002;entryDx=0;entryDy=0;entryPerimeter=0;" parent="1" edge="1">
          <mxGeometry width="50" height="50" relative="1" as="geometry">
            <mxPoint x="1860.16" y="1980" as="sourcePoint" />
            <mxPoint x="1860" y="1954" as="targetPoint" />
          </mxGeometry>
        </mxCell>
        <mxCell id="uKwBP-VBY_xrLnJlRJrp-470" value="" style="endArrow=none;html=1;rounded=0;" parent="1" edge="1">
          <mxGeometry width="50" height="50" relative="1" as="geometry">
            <mxPoint x="1570" y="2170" as="sourcePoint" />
            <mxPoint x="1860" y="2170" as="targetPoint" />
          </mxGeometry>
        </mxCell>
        <mxCell id="uKwBP-VBY_xrLnJlRJrp-471" value="" style="endArrow=classic;html=1;rounded=0;entryX=0.473;entryY=1.023;entryDx=0;entryDy=0;entryPerimeter=0;" parent="1" target="uKwBP-VBY_xrLnJlRJrp-437" edge="1">
          <mxGeometry width="50" height="50" relative="1" as="geometry">
            <mxPoint x="1570" y="2190" as="sourcePoint" />
            <mxPoint x="1620" y="2150" as="targetPoint" />
          </mxGeometry>
        </mxCell>
        <mxCell id="uKwBP-VBY_xrLnJlRJrp-472" value="" style="endArrow=classic;html=1;rounded=0;entryX=0.558;entryY=1.036;entryDx=0;entryDy=0;entryPerimeter=0;" parent="1" target="uKwBP-VBY_xrLnJlRJrp-438" edge="1">
          <mxGeometry width="50" height="50" relative="1" as="geometry">
            <mxPoint x="1700" y="2170" as="sourcePoint" />
            <mxPoint x="1720" y="2160" as="targetPoint" />
          </mxGeometry>
        </mxCell>
        <mxCell id="uKwBP-VBY_xrLnJlRJrp-473" value="" style="endArrow=classic;html=1;rounded=0;entryX=0.558;entryY=1.036;entryDx=0;entryDy=0;entryPerimeter=0;" parent="1" edge="1">
          <mxGeometry width="50" height="50" relative="1" as="geometry">
            <mxPoint x="1860" y="2170" as="sourcePoint" />
            <mxPoint x="1860" y="2142.5" as="targetPoint" />
          </mxGeometry>
        </mxCell>
        <mxCell id="uKwBP-VBY_xrLnJlRJrp-474" value="" style="endArrow=none;html=1;rounded=0;" parent="1" edge="1">
          <mxGeometry width="50" height="50" relative="1" as="geometry">
            <mxPoint x="1570" y="2360" as="sourcePoint" />
            <mxPoint x="1860" y="2360" as="targetPoint" />
          </mxGeometry>
        </mxCell>
        <mxCell id="uKwBP-VBY_xrLnJlRJrp-476" value="" style="endArrow=classic;html=1;rounded=0;exitX=0.552;exitY=0.002;exitDx=0;exitDy=0;exitPerimeter=0;" parent="1" source="uKwBP-VBY_xrLnJlRJrp-388" edge="1">
          <mxGeometry width="50" height="50" relative="1" as="geometry">
            <mxPoint x="1570" y="2390" as="sourcePoint" />
            <mxPoint x="1570" y="2340" as="targetPoint" />
          </mxGeometry>
        </mxCell>
        <mxCell id="uKwBP-VBY_xrLnJlRJrp-477" value="" style="endArrow=classic;html=1;rounded=0;entryX=0.561;entryY=1.018;entryDx=0;entryDy=0;entryPerimeter=0;" parent="1" target="uKwBP-VBY_xrLnJlRJrp-441" edge="1">
          <mxGeometry width="50" height="50" relative="1" as="geometry">
            <mxPoint x="1700" y="2360" as="sourcePoint" />
            <mxPoint x="1800" y="2320" as="targetPoint" />
          </mxGeometry>
        </mxCell>
        <mxCell id="uKwBP-VBY_xrLnJlRJrp-478" value="" style="endArrow=classic;html=1;rounded=0;entryX=0.561;entryY=1.018;entryDx=0;entryDy=0;entryPerimeter=0;" parent="1" edge="1">
          <mxGeometry width="50" height="50" relative="1" as="geometry">
            <mxPoint x="1860" y="2360" as="sourcePoint" />
            <mxPoint x="1860" y="2338.5" as="targetPoint" />
          </mxGeometry>
        </mxCell>
        <mxCell id="uKwBP-VBY_xrLnJlRJrp-680" value="Rua" style="rounded=0;whiteSpace=wrap;html=1;fillColor=#002C85;" parent="1" vertex="1">
          <mxGeometry x="197.1400000000001" y="1431.25" width="90" height="40" as="geometry" />
        </mxCell>
        <mxCell id="uKwBP-VBY_xrLnJlRJrp-681" value="CEP" style="rounded=0;whiteSpace=wrap;html=1;fillColor=#002C85;" parent="1" vertex="1">
          <mxGeometry x="197.1400000000001" y="1621.25" width="90" height="40" as="geometry" />
        </mxCell>
        <mxCell id="uKwBP-VBY_xrLnJlRJrp-682" value="Número" style="rounded=0;whiteSpace=wrap;html=1;fillColor=#002C85;" parent="1" vertex="1">
          <mxGeometry x="197.1400000000001" y="1815.25" width="90" height="40" as="geometry" />
        </mxCell>
        <mxCell id="uKwBP-VBY_xrLnJlRJrp-683" value="Complemento" style="rounded=0;whiteSpace=wrap;html=1;fillColor=#002C85;" parent="1" vertex="1">
          <mxGeometry x="197.1400000000001" y="2011.25" width="90" height="40" as="geometry" />
        </mxCell>
        <mxCell id="uKwBP-VBY_xrLnJlRJrp-684" value="Cidade" style="rounded=0;whiteSpace=wrap;html=1;fillColor=#002C85;" parent="1" vertex="1">
          <mxGeometry x="197.1400000000001" y="2391.25" width="90" height="40" as="geometry" />
        </mxCell>
        <mxCell id="uKwBP-VBY_xrLnJlRJrp-685" value="Bairro" style="rounded=0;whiteSpace=wrap;html=1;fillColor=#002C85;" parent="1" vertex="1">
          <mxGeometry x="197.1400000000001" y="2201.25" width="90" height="40" as="geometry" />
        </mxCell>
        <mxCell id="uKwBP-VBY_xrLnJlRJrp-686" value="Somente letras latinas, espaços, número, traços, barras, pontos e vírgulas" style="rounded=0;whiteSpace=wrap;html=1;fillColor=#0046D1;" parent="1" vertex="1">
          <mxGeometry x="190" y="1320" width="112.14" height="72.5" as="geometry" />
        </mxCell>
        <mxCell id="uKwBP-VBY_xrLnJlRJrp-687" value="Apenas de 3 a 70 caracteres" style="rounded=0;whiteSpace=wrap;html=1;fillColor=#0046D1;" parent="1" vertex="1">
          <mxGeometry x="327.1400000000001" y="1351.25" width="90" height="40" as="geometry" />
        </mxCell>
        <mxCell id="uKwBP-VBY_xrLnJlRJrp-688" value="Ao inserir um valor incorreto, a frase &quot;Preencha este campo&quot; aparece em vermelho abaixo do campo&amp;nbsp;" style="rounded=0;whiteSpace=wrap;html=1;fillColor=#0046D1;" parent="1" vertex="1">
          <mxGeometry x="447.1400000000001" y="1330" width="160" height="60" as="geometry" />
        </mxCell>
        <mxCell id="uKwBP-VBY_xrLnJlRJrp-689" value="Somente números e um hífen" style="rounded=0;whiteSpace=wrap;html=1;fillColor=#0046D1;" parent="1" vertex="1">
          <mxGeometry x="197.1400000000001" y="1515" width="105" height="62.5" as="geometry" />
        </mxCell>
        <mxCell id="uKwBP-VBY_xrLnJlRJrp-690" value="Apenas 9 caracteres" style="rounded=0;whiteSpace=wrap;html=1;fillColor=#0046D1;" parent="1" vertex="1">
          <mxGeometry x="331.1400000000001" y="1535" width="90" height="40" as="geometry" />
        </mxCell>
        <mxCell id="uKwBP-VBY_xrLnJlRJrp-691" value="Ao inserir um valor incorreto, a frase &quot;Preencha este campo&quot; aparece em vermelho abaixo do campo&amp;nbsp;" style="rounded=0;whiteSpace=wrap;html=1;fillColor=#0046D1;" parent="1" vertex="1">
          <mxGeometry x="447.1400000000001" y="1515" width="160" height="60" as="geometry" />
        </mxCell>
        <mxCell id="uKwBP-VBY_xrLnJlRJrp-692" value="Somente números" style="rounded=0;whiteSpace=wrap;html=1;fillColor=#0046D1;" parent="1" vertex="1">
          <mxGeometry x="197.1400000000001" y="1705" width="105" height="62.5" as="geometry" />
        </mxCell>
        <mxCell id="uKwBP-VBY_xrLnJlRJrp-693" value="Apenas 5 caracteres" style="rounded=0;whiteSpace=wrap;html=1;fillColor=#0046D1;" parent="1" vertex="1">
          <mxGeometry x="327.1400000000001" y="1727.5" width="90" height="40" as="geometry" />
        </mxCell>
        <mxCell id="uKwBP-VBY_xrLnJlRJrp-694" value="Ao inserir um valor incorreto, a frase &quot;Preencha este campo&quot; aparece em vermelho abaixo do campo&amp;nbsp;" style="rounded=0;whiteSpace=wrap;html=1;fillColor=#0046D1;" parent="1" vertex="1">
          <mxGeometry x="447.1400000000001" y="1707.5" width="160" height="60" as="geometry" />
        </mxCell>
        <mxCell id="uKwBP-VBY_xrLnJlRJrp-695" value="Somente letras latinas, números, espaços e traços" style="rounded=0;whiteSpace=wrap;html=1;fillColor=#0046D1;" parent="1" vertex="1">
          <mxGeometry x="197.1400000000001" y="1902.75" width="105" height="62.5" as="geometry" />
        </mxCell>
        <mxCell id="uKwBP-VBY_xrLnJlRJrp-696" value="Apenas de 1 a 10 caracteres" style="rounded=0;whiteSpace=wrap;html=1;fillColor=#0046D1;" parent="1" vertex="1">
          <mxGeometry x="327.1400000000001" y="1925.25" width="90" height="40" as="geometry" />
        </mxCell>
        <mxCell id="uKwBP-VBY_xrLnJlRJrp-697" value="Ao inserir um valor incorreto, a frase &quot;Preencha este campo&quot; aparece em vermelho abaixo do campo&amp;nbsp;" style="rounded=0;whiteSpace=wrap;html=1;fillColor=#0046D1;" parent="1" vertex="1">
          <mxGeometry x="447.1400000000001" y="1905.25" width="160" height="60" as="geometry" />
        </mxCell>
        <mxCell id="uKwBP-VBY_xrLnJlRJrp-698" value="Somente letras latinas, números, espaços e traços" style="rounded=0;whiteSpace=wrap;html=1;fillColor=#0046D1;" parent="1" vertex="1">
          <mxGeometry x="197.1400000000001" y="2091.25" width="105" height="62.5" as="geometry" />
        </mxCell>
        <mxCell id="uKwBP-VBY_xrLnJlRJrp-699" value="Apenas de 1 a 30 caracteres" style="rounded=0;whiteSpace=wrap;html=1;fillColor=#0046D1;" parent="1" vertex="1">
          <mxGeometry x="327.1400000000001" y="2113.75" width="90" height="40" as="geometry" />
        </mxCell>
        <mxCell id="uKwBP-VBY_xrLnJlRJrp-700" value="Ao inserir um valor incorreto, a frase &quot;Preencha este campo&quot; aparece em vermelho abaixo do campo&amp;nbsp;" style="rounded=0;whiteSpace=wrap;html=1;fillColor=#0046D1;" parent="1" vertex="1">
          <mxGeometry x="447.1400000000001" y="2093.75" width="160" height="60" as="geometry" />
        </mxCell>
        <mxCell id="uKwBP-VBY_xrLnJlRJrp-701" value="Somente letras latinas, espaços e traços" style="rounded=0;whiteSpace=wrap;html=1;fillColor=#0046D1;" parent="1" vertex="1">
          <mxGeometry x="197.1400000000001" y="2287.25" width="105" height="62.5" as="geometry" />
        </mxCell>
        <mxCell id="uKwBP-VBY_xrLnJlRJrp-702" value="Apenas de 1 a 30 caracteres" style="rounded=0;whiteSpace=wrap;html=1;fillColor=#0046D1;" parent="1" vertex="1">
          <mxGeometry x="327.1400000000001" y="2309.25" width="90" height="40" as="geometry" />
        </mxCell>
        <mxCell id="uKwBP-VBY_xrLnJlRJrp-703" value="Ao inserir um valor incorreto, a frase &quot;Preencha este campo&quot; aparece em vermelho abaixo do campo&amp;nbsp;" style="rounded=0;whiteSpace=wrap;html=1;fillColor=#0046D1;" parent="1" vertex="1">
          <mxGeometry x="447.1400000000001" y="2289.25" width="160" height="60" as="geometry" />
        </mxCell>
        <mxCell id="uKwBP-VBY_xrLnJlRJrp-711" value="" style="endArrow=none;html=1;rounded=0;" parent="1" edge="1">
          <mxGeometry width="50" height="50" relative="1" as="geometry">
            <mxPoint x="247.1400000000001" y="1411.25" as="sourcePoint" />
            <mxPoint x="537.1400000000001" y="1411.25" as="targetPoint" />
          </mxGeometry>
        </mxCell>
        <mxCell id="uKwBP-VBY_xrLnJlRJrp-712" value="" style="endArrow=classic;html=1;rounded=0;entryX=0.5;entryY=1;entryDx=0;entryDy=0;exitX=0.581;exitY=0.014;exitDx=0;exitDy=0;exitPerimeter=0;" parent="1" edge="1">
          <mxGeometry width="50" height="50" relative="1" as="geometry">
            <mxPoint x="247.1400000000001" y="1431.81" as="sourcePoint" />
            <mxPoint x="247.35000000000014" y="1392.5" as="targetPoint" />
          </mxGeometry>
        </mxCell>
        <mxCell id="uKwBP-VBY_xrLnJlRJrp-713" value="" style="endArrow=classic;html=1;rounded=0;exitX=0.581;exitY=0.014;exitDx=0;exitDy=0;exitPerimeter=0;entryX=0.474;entryY=1.014;entryDx=0;entryDy=0;entryPerimeter=0;" parent="1" target="uKwBP-VBY_xrLnJlRJrp-689" edge="1">
          <mxGeometry width="50" height="50" relative="1" as="geometry">
            <mxPoint x="247.1400000000001" y="1621.25" as="sourcePoint" />
            <mxPoint x="247.1400000000001" y="1581.25" as="targetPoint" />
          </mxGeometry>
        </mxCell>
        <mxCell id="uKwBP-VBY_xrLnJlRJrp-714" value="" style="endArrow=none;html=1;rounded=0;" parent="1" edge="1">
          <mxGeometry width="50" height="50" relative="1" as="geometry">
            <mxPoint x="247.1400000000001" y="1601.25" as="sourcePoint" />
            <mxPoint x="537.1400000000001" y="1601.25" as="targetPoint" />
          </mxGeometry>
        </mxCell>
        <mxCell id="uKwBP-VBY_xrLnJlRJrp-715" value="" style="endArrow=classic;html=1;rounded=0;entryX=0.56;entryY=1.039;entryDx=0;entryDy=0;entryPerimeter=0;" parent="1" target="uKwBP-VBY_xrLnJlRJrp-687" edge="1">
          <mxGeometry width="50" height="50" relative="1" as="geometry">
            <mxPoint x="377.1400000000001" y="1411.25" as="sourcePoint" />
            <mxPoint x="467.1400000000001" y="1511.25" as="targetPoint" />
          </mxGeometry>
        </mxCell>
        <mxCell id="uKwBP-VBY_xrLnJlRJrp-716" value="" style="endArrow=classic;html=1;rounded=0;entryX=0.561;entryY=1.01;entryDx=0;entryDy=0;entryPerimeter=0;" parent="1" target="uKwBP-VBY_xrLnJlRJrp-688" edge="1">
          <mxGeometry width="50" height="50" relative="1" as="geometry">
            <mxPoint x="537.1400000000001" y="1411.25" as="sourcePoint" />
            <mxPoint x="537.1400000000001" y="1392.5" as="targetPoint" />
          </mxGeometry>
        </mxCell>
        <mxCell id="uKwBP-VBY_xrLnJlRJrp-717" value="" style="endArrow=classic;html=1;rounded=0;entryX=0.5;entryY=1;entryDx=0;entryDy=0;" parent="1" target="uKwBP-VBY_xrLnJlRJrp-690" edge="1">
          <mxGeometry width="50" height="50" relative="1" as="geometry">
            <mxPoint x="376.73" y="1601.25" as="sourcePoint" />
            <mxPoint x="375.54999999999995" y="1575" as="targetPoint" />
          </mxGeometry>
        </mxCell>
        <mxCell id="uKwBP-VBY_xrLnJlRJrp-718" value="" style="endArrow=classic;html=1;rounded=0;entryX=0.5;entryY=1;entryDx=0;entryDy=0;" parent="1" edge="1">
          <mxGeometry width="50" height="50" relative="1" as="geometry">
            <mxPoint x="537.73" y="1601" as="sourcePoint" />
            <mxPoint x="537.1400000000001" y="1575" as="targetPoint" />
          </mxGeometry>
        </mxCell>
        <mxCell id="uKwBP-VBY_xrLnJlRJrp-719" value="" style="endArrow=none;html=1;rounded=0;" parent="1" edge="1">
          <mxGeometry width="50" height="50" relative="1" as="geometry">
            <mxPoint x="247.1400000000001" y="1791.25" as="sourcePoint" />
            <mxPoint x="537.1400000000001" y="1791.25" as="targetPoint" />
          </mxGeometry>
        </mxCell>
        <mxCell id="uKwBP-VBY_xrLnJlRJrp-720" value="" style="endArrow=classic;html=1;rounded=0;entryX=0.474;entryY=0.998;entryDx=0;entryDy=0;entryPerimeter=0;exitX=0.553;exitY=0.003;exitDx=0;exitDy=0;exitPerimeter=0;" parent="1" source="uKwBP-VBY_xrLnJlRJrp-682" target="uKwBP-VBY_xrLnJlRJrp-692" edge="1">
          <mxGeometry width="50" height="50" relative="1" as="geometry">
            <mxPoint x="247.1400000000001" y="1811.25" as="sourcePoint" />
            <mxPoint x="247.1400000000001" y="1771.25" as="targetPoint" />
          </mxGeometry>
        </mxCell>
        <mxCell id="uKwBP-VBY_xrLnJlRJrp-721" value="" style="endArrow=classic;html=1;rounded=0;entryX=0.558;entryY=1.002;entryDx=0;entryDy=0;entryPerimeter=0;" parent="1" target="uKwBP-VBY_xrLnJlRJrp-693" edge="1">
          <mxGeometry width="50" height="50" relative="1" as="geometry">
            <mxPoint x="377.1400000000001" y="1791.25" as="sourcePoint" />
            <mxPoint x="407.1400000000001" y="1771.25" as="targetPoint" />
          </mxGeometry>
        </mxCell>
        <mxCell id="uKwBP-VBY_xrLnJlRJrp-722" value="" style="endArrow=classic;html=1;rounded=0;entryX=0.558;entryY=1.002;entryDx=0;entryDy=0;entryPerimeter=0;" parent="1" edge="1">
          <mxGeometry width="50" height="50" relative="1" as="geometry">
            <mxPoint x="537.1400000000001" y="1791.5" as="sourcePoint" />
            <mxPoint x="537.1400000000001" y="1767.5" as="targetPoint" />
          </mxGeometry>
        </mxCell>
        <mxCell id="uKwBP-VBY_xrLnJlRJrp-723" value="" style="endArrow=none;html=1;rounded=0;" parent="1" edge="1">
          <mxGeometry width="50" height="50" relative="1" as="geometry">
            <mxPoint x="247.1400000000001" y="1991.25" as="sourcePoint" />
            <mxPoint x="537.1400000000001" y="1991.25" as="targetPoint" />
          </mxGeometry>
        </mxCell>
        <mxCell id="uKwBP-VBY_xrLnJlRJrp-724" value="" style="endArrow=classic;html=1;rounded=0;exitX=0.547;exitY=-0.001;exitDx=0;exitDy=0;exitPerimeter=0;entryX=0.478;entryY=1.003;entryDx=0;entryDy=0;entryPerimeter=0;" parent="1" source="uKwBP-VBY_xrLnJlRJrp-683" target="uKwBP-VBY_xrLnJlRJrp-695" edge="1">
          <mxGeometry width="50" height="50" relative="1" as="geometry">
            <mxPoint x="227.1400000000001" y="1991.25" as="sourcePoint" />
            <mxPoint x="277.1400000000001" y="1941.25" as="targetPoint" />
          </mxGeometry>
        </mxCell>
        <mxCell id="uKwBP-VBY_xrLnJlRJrp-725" value="" style="endArrow=classic;html=1;rounded=0;entryX=0.558;entryY=1.002;entryDx=0;entryDy=0;entryPerimeter=0;" parent="1" edge="1">
          <mxGeometry width="50" height="50" relative="1" as="geometry">
            <mxPoint x="376.1400000000001" y="1991.25" as="sourcePoint" />
            <mxPoint x="375.98" y="1965.25" as="targetPoint" />
          </mxGeometry>
        </mxCell>
        <mxCell id="uKwBP-VBY_xrLnJlRJrp-726" value="" style="endArrow=classic;html=1;rounded=0;entryX=0.558;entryY=1.002;entryDx=0;entryDy=0;entryPerimeter=0;" parent="1" edge="1">
          <mxGeometry width="50" height="50" relative="1" as="geometry">
            <mxPoint x="537.3000000000002" y="1991.25" as="sourcePoint" />
            <mxPoint x="537.1400000000001" y="1965.25" as="targetPoint" />
          </mxGeometry>
        </mxCell>
        <mxCell id="uKwBP-VBY_xrLnJlRJrp-727" value="" style="endArrow=none;html=1;rounded=0;" parent="1" edge="1">
          <mxGeometry width="50" height="50" relative="1" as="geometry">
            <mxPoint x="247.1400000000001" y="2181.25" as="sourcePoint" />
            <mxPoint x="537.1400000000001" y="2181.25" as="targetPoint" />
          </mxGeometry>
        </mxCell>
        <mxCell id="uKwBP-VBY_xrLnJlRJrp-728" value="" style="endArrow=classic;html=1;rounded=0;entryX=0.473;entryY=1.023;entryDx=0;entryDy=0;entryPerimeter=0;" parent="1" target="uKwBP-VBY_xrLnJlRJrp-698" edge="1">
          <mxGeometry width="50" height="50" relative="1" as="geometry">
            <mxPoint x="247.1400000000001" y="2201.25" as="sourcePoint" />
            <mxPoint x="297.1400000000001" y="2161.25" as="targetPoint" />
          </mxGeometry>
        </mxCell>
        <mxCell id="uKwBP-VBY_xrLnJlRJrp-729" value="" style="endArrow=classic;html=1;rounded=0;entryX=0.558;entryY=1.036;entryDx=0;entryDy=0;entryPerimeter=0;" parent="1" target="uKwBP-VBY_xrLnJlRJrp-699" edge="1">
          <mxGeometry width="50" height="50" relative="1" as="geometry">
            <mxPoint x="377.1400000000001" y="2181.25" as="sourcePoint" />
            <mxPoint x="397.1400000000001" y="2171.25" as="targetPoint" />
          </mxGeometry>
        </mxCell>
        <mxCell id="uKwBP-VBY_xrLnJlRJrp-730" value="" style="endArrow=classic;html=1;rounded=0;entryX=0.558;entryY=1.036;entryDx=0;entryDy=0;entryPerimeter=0;" parent="1" edge="1">
          <mxGeometry width="50" height="50" relative="1" as="geometry">
            <mxPoint x="537.1400000000001" y="2181.25" as="sourcePoint" />
            <mxPoint x="537.1400000000001" y="2153.75" as="targetPoint" />
          </mxGeometry>
        </mxCell>
        <mxCell id="uKwBP-VBY_xrLnJlRJrp-731" value="" style="endArrow=none;html=1;rounded=0;" parent="1" edge="1">
          <mxGeometry width="50" height="50" relative="1" as="geometry">
            <mxPoint x="247.1400000000001" y="2371.25" as="sourcePoint" />
            <mxPoint x="537.1400000000001" y="2371.25" as="targetPoint" />
          </mxGeometry>
        </mxCell>
        <mxCell id="uKwBP-VBY_xrLnJlRJrp-732" value="" style="endArrow=classic;html=1;rounded=0;exitX=0.552;exitY=0.002;exitDx=0;exitDy=0;exitPerimeter=0;" parent="1" source="uKwBP-VBY_xrLnJlRJrp-684" edge="1">
          <mxGeometry width="50" height="50" relative="1" as="geometry">
            <mxPoint x="247.1400000000001" y="2401.25" as="sourcePoint" />
            <mxPoint x="247.1400000000001" y="2351.25" as="targetPoint" />
          </mxGeometry>
        </mxCell>
        <mxCell id="uKwBP-VBY_xrLnJlRJrp-733" value="" style="endArrow=classic;html=1;rounded=0;entryX=0.561;entryY=1.018;entryDx=0;entryDy=0;entryPerimeter=0;" parent="1" target="uKwBP-VBY_xrLnJlRJrp-702" edge="1">
          <mxGeometry width="50" height="50" relative="1" as="geometry">
            <mxPoint x="377.1400000000001" y="2371.25" as="sourcePoint" />
            <mxPoint x="477.1400000000001" y="2331.25" as="targetPoint" />
          </mxGeometry>
        </mxCell>
        <mxCell id="uKwBP-VBY_xrLnJlRJrp-734" value="" style="endArrow=classic;html=1;rounded=0;entryX=0.561;entryY=1.018;entryDx=0;entryDy=0;entryPerimeter=0;" parent="1" edge="1">
          <mxGeometry width="50" height="50" relative="1" as="geometry">
            <mxPoint x="537.1400000000001" y="2371.25" as="sourcePoint" />
            <mxPoint x="537.1400000000001" y="2349.75" as="targetPoint" />
          </mxGeometry>
        </mxCell>
        <mxCell id="uKwBP-VBY_xrLnJlRJrp-735" value="" style="endArrow=none;html=1;rounded=0;exitX=1;exitY=0.5;exitDx=0;exitDy=0;" parent="1" source="uKwBP-VBY_xrLnJlRJrp-680" edge="1">
          <mxGeometry width="50" height="50" relative="1" as="geometry">
            <mxPoint x="317.1400000000001" y="1641.25" as="sourcePoint" />
            <mxPoint x="720" y="1451" as="targetPoint" />
          </mxGeometry>
        </mxCell>
        <mxCell id="uKwBP-VBY_xrLnJlRJrp-736" value="" style="endArrow=none;html=1;rounded=0;exitX=1;exitY=0.5;exitDx=0;exitDy=0;" parent="1" edge="1">
          <mxGeometry width="50" height="50" relative="1" as="geometry">
            <mxPoint x="287.1400000000001" y="1639.92" as="sourcePoint" />
            <mxPoint x="720" y="1640" as="targetPoint" />
          </mxGeometry>
        </mxCell>
        <mxCell id="uKwBP-VBY_xrLnJlRJrp-737" value="" style="endArrow=none;html=1;rounded=0;exitX=1;exitY=0.5;exitDx=0;exitDy=0;" parent="1" edge="1">
          <mxGeometry width="50" height="50" relative="1" as="geometry">
            <mxPoint x="287.1400000000001" y="1835.18" as="sourcePoint" />
            <mxPoint x="720" y="1835" as="targetPoint" />
          </mxGeometry>
        </mxCell>
        <mxCell id="uKwBP-VBY_xrLnJlRJrp-738" value="" style="endArrow=none;html=1;rounded=0;exitX=1;exitY=0.5;exitDx=0;exitDy=0;" parent="1" edge="1">
          <mxGeometry width="50" height="50" relative="1" as="geometry">
            <mxPoint x="287.1400000000001" y="2030.58" as="sourcePoint" />
            <mxPoint x="720" y="2030" as="targetPoint" />
          </mxGeometry>
        </mxCell>
        <mxCell id="uKwBP-VBY_xrLnJlRJrp-739" value="" style="endArrow=none;html=1;rounded=0;exitX=1;exitY=0.5;exitDx=0;exitDy=0;" parent="1" edge="1">
          <mxGeometry width="50" height="50" relative="1" as="geometry">
            <mxPoint x="287.1400000000001" y="2220.58" as="sourcePoint" />
            <mxPoint x="720" y="2220" as="targetPoint" />
          </mxGeometry>
        </mxCell>
        <mxCell id="uKwBP-VBY_xrLnJlRJrp-740" value="" style="endArrow=none;html=1;rounded=0;exitX=1;exitY=0.5;exitDx=0;exitDy=0;" parent="1" edge="1">
          <mxGeometry width="50" height="50" relative="1" as="geometry">
            <mxPoint x="287.1400000000001" y="2410.58" as="sourcePoint" />
            <mxPoint x="720" y="2410" as="targetPoint" />
          </mxGeometry>
        </mxCell>
        <mxCell id="uKwBP-VBY_xrLnJlRJrp-741" value="" style="endArrow=none;html=1;rounded=0;" parent="1" edge="1">
          <mxGeometry width="50" height="50" relative="1" as="geometry">
            <mxPoint x="720" y="2410" as="sourcePoint" />
            <mxPoint x="719.8700000000001" y="1440" as="targetPoint" />
          </mxGeometry>
        </mxCell>
        <mxCell id="uKwBP-VBY_xrLnJlRJrp-745" value="" style="endArrow=none;html=1;rounded=0;entryX=0;entryY=0.5;entryDx=0;entryDy=0;" parent="1" target="uKwBP-VBY_xrLnJlRJrp-420" edge="1">
          <mxGeometry width="50" height="50" relative="1" as="geometry">
            <mxPoint x="720" y="1440" as="sourcePoint" />
            <mxPoint x="780" y="1460" as="targetPoint" />
          </mxGeometry>
        </mxCell>
        <mxCell id="KmOtgh7a1UM6X6IASe2r-2" value="" style="endArrow=none;html=1;rounded=0;" edge="1" parent="1">
          <mxGeometry width="50" height="50" relative="1" as="geometry">
            <mxPoint x="1459" y="2400" as="sourcePoint" />
            <mxPoint x="1459.29" y="1439" as="targetPoint" />
          </mxGeometry>
        </mxCell>
        <mxCell id="KmOtgh7a1UM6X6IASe2r-3" value="" style="endArrow=classic;html=1;rounded=0;exitX=0.5;exitY=1;exitDx=0;exitDy=0;entryX=0;entryY=0.5;entryDx=0;entryDy=0;" edge="1" parent="1" source="uKwBP-VBY_xrLnJlRJrp-420" target="uKwBP-VBY_xrLnJlRJrp-330">
          <mxGeometry width="50" height="50" relative="1" as="geometry">
            <mxPoint x="1210" y="1780" as="sourcePoint" />
            <mxPoint x="1260" y="1730" as="targetPoint" />
            <Array as="points">
              <mxPoint x="882" y="1780" />
            </Array>
          </mxGeometry>
        </mxCell>
        <mxCell id="KmOtgh7a1UM6X6IASe2r-4" value="" style="endArrow=classic;html=1;rounded=0;exitX=0.5;exitY=1;exitDx=0;exitDy=0;entryX=1;entryY=0.5;entryDx=0;entryDy=0;" edge="1" parent="1" source="uKwBP-VBY_xrLnJlRJrp-331" target="uKwBP-VBY_xrLnJlRJrp-330">
          <mxGeometry width="50" height="50" relative="1" as="geometry">
            <mxPoint x="1210" y="1780" as="sourcePoint" />
            <mxPoint x="1260" y="1730" as="targetPoint" />
            <Array as="points">
              <mxPoint x="1355" y="1780" />
            </Array>
          </mxGeometry>
        </mxCell>
        <mxCell id="KmOtgh7a1UM6X6IASe2r-5" value="" style="endArrow=classic;html=1;rounded=0;entryX=0;entryY=0.75;entryDx=0;entryDy=0;" edge="1" parent="1" target="uKwBP-VBY_xrLnJlRJrp-384">
          <mxGeometry width="50" height="50" relative="1" as="geometry">
            <mxPoint x="1460" y="1450" as="sourcePoint" />
            <mxPoint x="1590" y="1510" as="targetPoint" />
          </mxGeometry>
        </mxCell>
        <mxCell id="KmOtgh7a1UM6X6IASe2r-12" value="" style="endArrow=none;html=1;rounded=0;exitX=1;exitY=0.5;exitDx=0;exitDy=0;" edge="1" parent="1" source="uKwBP-VBY_xrLnJlRJrp-28">
          <mxGeometry width="50" height="50" relative="1" as="geometry">
            <mxPoint x="1650" y="220" as="sourcePoint" />
            <mxPoint x="1560" y="165" as="targetPoint" />
          </mxGeometry>
        </mxCell>
        <mxCell id="KmOtgh7a1UM6X6IASe2r-13" value="" style="endArrow=none;html=1;rounded=0;" edge="1" parent="1">
          <mxGeometry width="50" height="50" relative="1" as="geometry">
            <mxPoint x="1560" y="240" as="sourcePoint" />
            <mxPoint x="1560" y="70" as="targetPoint" />
          </mxGeometry>
        </mxCell>
        <mxCell id="KmOtgh7a1UM6X6IASe2r-14" value="" style="endArrow=classic;html=1;rounded=0;entryX=0;entryY=0.5;entryDx=0;entryDy=0;" edge="1" parent="1" target="uKwBP-VBY_xrLnJlRJrp-280">
          <mxGeometry width="50" height="50" relative="1" as="geometry">
            <mxPoint x="1560" y="70" as="sourcePoint" />
            <mxPoint x="1650" y="150" as="targetPoint" />
          </mxGeometry>
        </mxCell>
        <mxCell id="KmOtgh7a1UM6X6IASe2r-16" value="" style="endArrow=classic;html=1;rounded=0;entryX=0;entryY=0.5;entryDx=0;entryDy=0;" edge="1" parent="1">
          <mxGeometry width="50" height="50" relative="1" as="geometry">
            <mxPoint x="1560" y="129.82" as="sourcePoint" />
            <mxPoint x="1620" y="129.82" as="targetPoint" />
          </mxGeometry>
        </mxCell>
        <mxCell id="KmOtgh7a1UM6X6IASe2r-17" value="" style="endArrow=classic;html=1;rounded=0;entryX=0;entryY=0.5;entryDx=0;entryDy=0;" edge="1" parent="1">
          <mxGeometry width="50" height="50" relative="1" as="geometry">
            <mxPoint x="1560" y="189.64" as="sourcePoint" />
            <mxPoint x="1620" y="189.64" as="targetPoint" />
          </mxGeometry>
        </mxCell>
        <mxCell id="KmOtgh7a1UM6X6IASe2r-18" value="" style="endArrow=classic;html=1;rounded=0;entryX=0;entryY=0.5;entryDx=0;entryDy=0;" edge="1" parent="1">
          <mxGeometry width="50" height="50" relative="1" as="geometry">
            <mxPoint x="1560" y="239.82" as="sourcePoint" />
            <mxPoint x="1620" y="239.82" as="targetPoint" />
          </mxGeometry>
        </mxCell>
        <mxCell id="KmOtgh7a1UM6X6IASe2r-19" style="edgeStyle=orthogonalEdgeStyle;rounded=0;orthogonalLoop=1;jettySize=auto;html=1;exitX=1;exitY=0.5;exitDx=0;exitDy=0;entryX=-0.026;entryY=0.502;entryDx=0;entryDy=0;entryPerimeter=0;" edge="1" parent="1" source="uKwBP-VBY_xrLnJlRJrp-275" target="uKwBP-VBY_xrLnJlRJrp-286">
          <mxGeometry relative="1" as="geometry" />
        </mxCell>
        <mxCell id="KmOtgh7a1UM6X6IASe2r-21" style="edgeStyle=orthogonalEdgeStyle;rounded=0;orthogonalLoop=1;jettySize=auto;html=1;exitX=1;exitY=0.5;exitDx=0;exitDy=0;entryX=-0.022;entryY=0.493;entryDx=0;entryDy=0;entryPerimeter=0;" edge="1" parent="1" source="uKwBP-VBY_xrLnJlRJrp-277" target="uKwBP-VBY_xrLnJlRJrp-287">
          <mxGeometry relative="1" as="geometry" />
        </mxCell>
        <mxCell id="KmOtgh7a1UM6X6IASe2r-23" value="" style="endArrow=classic;html=1;rounded=0;exitX=0.75;exitY=0;exitDx=0;exitDy=0;" edge="1" parent="1" source="uKwBP-VBY_xrLnJlRJrp-11">
          <mxGeometry width="50" height="50" relative="1" as="geometry">
            <mxPoint x="1110" y="330" as="sourcePoint" />
            <mxPoint x="1180" y="170" as="targetPoint" />
            <Array as="points">
              <mxPoint x="1000" y="170" />
            </Array>
          </mxGeometry>
        </mxCell>
        <mxCell id="KmOtgh7a1UM6X6IASe2r-24" value="" style="endArrow=classic;html=1;rounded=0;exitX=0.834;exitY=-0.006;exitDx=0;exitDy=0;exitPerimeter=0;entryX=0;entryY=0.5;entryDx=0;entryDy=0;" edge="1" parent="1" source="uKwBP-VBY_xrLnJlRJrp-11" target="uKwBP-VBY_xrLnJlRJrp-13">
          <mxGeometry width="50" height="50" relative="1" as="geometry">
            <mxPoint x="1110" y="350" as="sourcePoint" />
            <mxPoint x="1130" y="430" as="targetPoint" />
            <Array as="points">
              <mxPoint x="1010" y="290" />
              <mxPoint x="1140" y="290" />
              <mxPoint x="1140" y="400" />
            </Array>
          </mxGeometry>
        </mxCell>
        <mxCell id="KmOtgh7a1UM6X6IASe2r-25" value="" style="endArrow=classic;html=1;rounded=0;entryX=-0.008;entryY=0.417;entryDx=0;entryDy=0;entryPerimeter=0;exitX=1;exitY=0.25;exitDx=0;exitDy=0;" edge="1" parent="1" source="uKwBP-VBY_xrLnJlRJrp-11" target="uKwBP-VBY_xrLnJlRJrp-14">
          <mxGeometry width="50" height="50" relative="1" as="geometry">
            <mxPoint x="1060" y="380" as="sourcePoint" />
            <mxPoint x="1100" y="500" as="targetPoint" />
            <Array as="points">
              <mxPoint x="1110" y="345" />
              <mxPoint x="1110" y="550" />
            </Array>
          </mxGeometry>
        </mxCell>
        <mxCell id="KmOtgh7a1UM6X6IASe2r-26" value="" style="endArrow=classic;html=1;rounded=0;exitX=1;exitY=0.5;exitDx=0;exitDy=0;entryX=0;entryY=0.5;entryDx=0;entryDy=0;" edge="1" parent="1" source="uKwBP-VBY_xrLnJlRJrp-11" target="uKwBP-VBY_xrLnJlRJrp-15">
          <mxGeometry width="50" height="50" relative="1" as="geometry">
            <mxPoint x="1100" y="590" as="sourcePoint" />
            <mxPoint x="1150" y="690" as="targetPoint" />
            <Array as="points">
              <mxPoint x="1080" y="360" />
              <mxPoint x="1080" y="700" />
            </Array>
          </mxGeometry>
        </mxCell>
        <mxCell id="KmOtgh7a1UM6X6IASe2r-27" value="" style="endArrow=classic;html=1;rounded=0;exitX=1;exitY=0.75;exitDx=0;exitDy=0;entryX=0.001;entryY=0.329;entryDx=0;entryDy=0;entryPerimeter=0;" edge="1" parent="1" source="uKwBP-VBY_xrLnJlRJrp-11" target="uKwBP-VBY_xrLnJlRJrp-18">
          <mxGeometry width="50" height="50" relative="1" as="geometry">
            <mxPoint x="1080" y="530" as="sourcePoint" />
            <mxPoint x="1100" y="830" as="targetPoint" />
            <Array as="points">
              <mxPoint x="1050" y="375" />
              <mxPoint x="1050" y="820" />
            </Array>
          </mxGeometry>
        </mxCell>
        <mxCell id="KmOtgh7a1UM6X6IASe2r-29" value="Email Green Cicle" style="rounded=0;whiteSpace=wrap;html=1;fillColor=#0046D1;" vertex="1" parent="1">
          <mxGeometry x="1770" y="627.5" width="90" height="40" as="geometry" />
        </mxCell>
        <mxCell id="KmOtgh7a1UM6X6IASe2r-31" value="Número da Green Cicle" style="rounded=0;whiteSpace=wrap;html=1;fillColor=#0046D1;" vertex="1" parent="1">
          <mxGeometry x="1770" y="680" width="90" height="40" as="geometry" />
        </mxCell>
        <mxCell id="KmOtgh7a1UM6X6IASe2r-33" value="Chat automático" style="rounded=0;whiteSpace=wrap;html=1;fillColor=#0046D1;" vertex="1" parent="1">
          <mxGeometry x="1770" y="727.5" width="90" height="40" as="geometry" />
        </mxCell>
        <mxCell id="KmOtgh7a1UM6X6IASe2r-36" value="" style="endArrow=classic;html=1;rounded=0;exitX=1;exitY=0.25;exitDx=0;exitDy=0;entryX=-0.007;entryY=0.603;entryDx=0;entryDy=0;entryPerimeter=0;" edge="1" parent="1" source="uKwBP-VBY_xrLnJlRJrp-306" target="uKwBP-VBY_xrLnJlRJrp-307">
          <mxGeometry width="50" height="50" relative="1" as="geometry">
            <mxPoint x="1340" y="1080" as="sourcePoint" />
            <mxPoint x="1390" y="1030" as="targetPoint" />
            <Array as="points">
              <mxPoint x="1320" y="995" />
              <mxPoint x="1320" y="1010" />
            </Array>
          </mxGeometry>
        </mxCell>
        <mxCell id="KmOtgh7a1UM6X6IASe2r-37" value="" style="endArrow=classic;html=1;rounded=0;exitX=1.009;exitY=0.685;exitDx=0;exitDy=0;exitPerimeter=0;entryX=0;entryY=0.5;entryDx=0;entryDy=0;" edge="1" parent="1" source="uKwBP-VBY_xrLnJlRJrp-306" target="uKwBP-VBY_xrLnJlRJrp-308">
          <mxGeometry width="50" height="50" relative="1" as="geometry">
            <mxPoint x="1330" y="1080" as="sourcePoint" />
            <mxPoint x="1358" y="1089" as="targetPoint" />
            <Array as="points">
              <mxPoint x="1210" y="1020" />
              <mxPoint x="1210" y="1100" />
              <mxPoint x="1320" y="1100" />
              <mxPoint x="1320" y="1090" />
            </Array>
          </mxGeometry>
        </mxCell>
        <mxCell id="0ZwLcZMTdDIrtVB83wTa-3" style="edgeStyle=orthogonalEdgeStyle;rounded=0;orthogonalLoop=1;jettySize=auto;html=1;exitX=1;exitY=0.25;exitDx=0;exitDy=0;entryX=0.5;entryY=1;entryDx=0;entryDy=0;" edge="1" parent="1" source="CsgZAK8M5pjyzk7mD2qb-1" target="0ZwLcZMTdDIrtVB83wTa-1">
          <mxGeometry relative="1" as="geometry" />
        </mxCell>
        <mxCell id="CsgZAK8M5pjyzk7mD2qb-1" value="Botão branco &quot;Finalizar compra&quot;" style="rounded=0;whiteSpace=wrap;html=1;flipH=0;flipV=0;fillColor=#004CE3;" vertex="1" parent="1">
          <mxGeometry x="1744" y="50" width="100" height="40" as="geometry" />
        </mxCell>
        <mxCell id="0ZwLcZMTdDIrtVB83wTa-1" value="Endereço de entrega" style="rounded=0;whiteSpace=wrap;html=1;flipH=0;flipV=0;fillColor=#004CE3;" vertex="1" parent="1">
          <mxGeometry x="1840" y="-60" width="100" height="40" as="geometry" />
        </mxCell>
        <mxCell id="0ZwLcZMTdDIrtVB83wTa-221" style="edgeStyle=orthogonalEdgeStyle;rounded=0;orthogonalLoop=1;jettySize=auto;html=1;exitX=0.25;exitY=0;exitDx=0;exitDy=0;entryX=0.75;entryY=1;entryDx=0;entryDy=0;" edge="1" parent="1" source="0ZwLcZMTdDIrtVB83wTa-2" target="0ZwLcZMTdDIrtVB83wTa-219">
          <mxGeometry relative="1" as="geometry" />
        </mxCell>
        <mxCell id="0ZwLcZMTdDIrtVB83wTa-2" value="Pagamento" style="rounded=0;whiteSpace=wrap;html=1;flipH=0;flipV=0;fillColor=#004CE3;" vertex="1" parent="1">
          <mxGeometry x="2110" y="-60" width="100" height="40" as="geometry" />
        </mxCell>
        <mxCell id="0ZwLcZMTdDIrtVB83wTa-4" style="edgeStyle=orthogonalEdgeStyle;rounded=0;orthogonalLoop=1;jettySize=auto;html=1;exitX=1;exitY=0.75;exitDx=0;exitDy=0;entryX=0.5;entryY=1;entryDx=0;entryDy=0;" edge="1" parent="1" source="CsgZAK8M5pjyzk7mD2qb-1" target="0ZwLcZMTdDIrtVB83wTa-2">
          <mxGeometry relative="1" as="geometry" />
        </mxCell>
        <mxCell id="0ZwLcZMTdDIrtVB83wTa-5" value="Rua" style="rounded=0;whiteSpace=wrap;html=1;fillColor=#002C85;" vertex="1" parent="1">
          <mxGeometry x="1592.5700000000002" y="-1208.75" width="90" height="40" as="geometry" />
        </mxCell>
        <mxCell id="0ZwLcZMTdDIrtVB83wTa-6" value="CEP" style="rounded=0;whiteSpace=wrap;html=1;fillColor=#002C85;" vertex="1" parent="1">
          <mxGeometry x="1592.5700000000002" y="-1018.75" width="90" height="40" as="geometry" />
        </mxCell>
        <mxCell id="0ZwLcZMTdDIrtVB83wTa-7" value="Número" style="rounded=0;whiteSpace=wrap;html=1;fillColor=#002C85;" vertex="1" parent="1">
          <mxGeometry x="1592.5700000000002" y="-824.75" width="90" height="40" as="geometry" />
        </mxCell>
        <mxCell id="0ZwLcZMTdDIrtVB83wTa-8" value="Complemento" style="rounded=0;whiteSpace=wrap;html=1;fillColor=#002C85;" vertex="1" parent="1">
          <mxGeometry x="1592.5700000000002" y="-628.75" width="90" height="40" as="geometry" />
        </mxCell>
        <mxCell id="0ZwLcZMTdDIrtVB83wTa-9" value="Cidade" style="rounded=0;whiteSpace=wrap;html=1;fillColor=#002C85;" vertex="1" parent="1">
          <mxGeometry x="1592.5700000000002" y="-248.75" width="90" height="40" as="geometry" />
        </mxCell>
        <mxCell id="0ZwLcZMTdDIrtVB83wTa-10" value="Bairro" style="rounded=0;whiteSpace=wrap;html=1;fillColor=#002C85;" vertex="1" parent="1">
          <mxGeometry x="1592.5700000000002" y="-438.75" width="90" height="40" as="geometry" />
        </mxCell>
        <mxCell id="0ZwLcZMTdDIrtVB83wTa-11" value="Somente letras latinas, espaços, número, traços, barras, pontos e vírgulas" style="rounded=0;whiteSpace=wrap;html=1;fillColor=#0046D1;" vertex="1" parent="1">
          <mxGeometry x="1585.43" y="-1320" width="112.14" height="72.5" as="geometry" />
        </mxCell>
        <mxCell id="0ZwLcZMTdDIrtVB83wTa-12" value="Apenas de 3 a 70 caracteres" style="rounded=0;whiteSpace=wrap;html=1;fillColor=#0046D1;" vertex="1" parent="1">
          <mxGeometry x="1722.5700000000002" y="-1288.75" width="90" height="40" as="geometry" />
        </mxCell>
        <mxCell id="0ZwLcZMTdDIrtVB83wTa-13" value="Ao inserir um valor incorreto, a frase &quot;Preencha este campo&quot; aparece em vermelho abaixo do campo&amp;nbsp;" style="rounded=0;whiteSpace=wrap;html=1;fillColor=#0046D1;" vertex="1" parent="1">
          <mxGeometry x="1842.5700000000002" y="-1310" width="160" height="60" as="geometry" />
        </mxCell>
        <mxCell id="0ZwLcZMTdDIrtVB83wTa-14" value="Somente números e um hífen" style="rounded=0;whiteSpace=wrap;html=1;fillColor=#0046D1;" vertex="1" parent="1">
          <mxGeometry x="1592.5700000000002" y="-1125" width="105" height="62.5" as="geometry" />
        </mxCell>
        <mxCell id="0ZwLcZMTdDIrtVB83wTa-15" value="Apenas 9 caracteres" style="rounded=0;whiteSpace=wrap;html=1;fillColor=#0046D1;" vertex="1" parent="1">
          <mxGeometry x="1726.5700000000002" y="-1105" width="90" height="40" as="geometry" />
        </mxCell>
        <mxCell id="0ZwLcZMTdDIrtVB83wTa-16" value="Ao inserir um valor incorreto, a frase &quot;Preencha este campo&quot; aparece em vermelho abaixo do campo&amp;nbsp;" style="rounded=0;whiteSpace=wrap;html=1;fillColor=#0046D1;" vertex="1" parent="1">
          <mxGeometry x="1842.5700000000002" y="-1125" width="160" height="60" as="geometry" />
        </mxCell>
        <mxCell id="0ZwLcZMTdDIrtVB83wTa-17" value="Somente números" style="rounded=0;whiteSpace=wrap;html=1;fillColor=#0046D1;" vertex="1" parent="1">
          <mxGeometry x="1592.5700000000002" y="-935" width="105" height="62.5" as="geometry" />
        </mxCell>
        <mxCell id="0ZwLcZMTdDIrtVB83wTa-18" value="Apenas 5 caracteres" style="rounded=0;whiteSpace=wrap;html=1;fillColor=#0046D1;" vertex="1" parent="1">
          <mxGeometry x="1722.5700000000002" y="-912.5" width="90" height="40" as="geometry" />
        </mxCell>
        <mxCell id="0ZwLcZMTdDIrtVB83wTa-19" value="Ao inserir um valor incorreto, a frase &quot;Preencha este campo&quot; aparece em vermelho abaixo do campo&amp;nbsp;" style="rounded=0;whiteSpace=wrap;html=1;fillColor=#0046D1;" vertex="1" parent="1">
          <mxGeometry x="1842.5700000000002" y="-932.5" width="160" height="60" as="geometry" />
        </mxCell>
        <mxCell id="0ZwLcZMTdDIrtVB83wTa-20" value="Somente letras latinas, números, espaços e traços" style="rounded=0;whiteSpace=wrap;html=1;fillColor=#0046D1;" vertex="1" parent="1">
          <mxGeometry x="1592.5700000000002" y="-737.25" width="105" height="62.5" as="geometry" />
        </mxCell>
        <mxCell id="0ZwLcZMTdDIrtVB83wTa-21" value="Apenas de 1 a 10 caracteres" style="rounded=0;whiteSpace=wrap;html=1;fillColor=#0046D1;" vertex="1" parent="1">
          <mxGeometry x="1722.5700000000002" y="-714.75" width="90" height="40" as="geometry" />
        </mxCell>
        <mxCell id="0ZwLcZMTdDIrtVB83wTa-22" value="Ao inserir um valor incorreto, a frase &quot;Preencha este campo&quot; aparece em vermelho abaixo do campo&amp;nbsp;" style="rounded=0;whiteSpace=wrap;html=1;fillColor=#0046D1;" vertex="1" parent="1">
          <mxGeometry x="1842.5700000000002" y="-734.75" width="160" height="60" as="geometry" />
        </mxCell>
        <mxCell id="0ZwLcZMTdDIrtVB83wTa-23" value="Somente letras latinas, números, espaços e traços" style="rounded=0;whiteSpace=wrap;html=1;fillColor=#0046D1;" vertex="1" parent="1">
          <mxGeometry x="1592.5700000000002" y="-548.75" width="105" height="62.5" as="geometry" />
        </mxCell>
        <mxCell id="0ZwLcZMTdDIrtVB83wTa-24" value="Apenas de 1 a 30 caracteres" style="rounded=0;whiteSpace=wrap;html=1;fillColor=#0046D1;" vertex="1" parent="1">
          <mxGeometry x="1722.5700000000002" y="-526.25" width="90" height="40" as="geometry" />
        </mxCell>
        <mxCell id="0ZwLcZMTdDIrtVB83wTa-25" value="Ao inserir um valor incorreto, a frase &quot;Preencha este campo&quot; aparece em vermelho abaixo do campo&amp;nbsp;" style="rounded=0;whiteSpace=wrap;html=1;fillColor=#0046D1;" vertex="1" parent="1">
          <mxGeometry x="1842.5700000000002" y="-546.25" width="160" height="60" as="geometry" />
        </mxCell>
        <mxCell id="0ZwLcZMTdDIrtVB83wTa-26" value="Somente letras latinas, espaços e traços" style="rounded=0;whiteSpace=wrap;html=1;fillColor=#0046D1;" vertex="1" parent="1">
          <mxGeometry x="1592.5700000000002" y="-352.75" width="105" height="62.5" as="geometry" />
        </mxCell>
        <mxCell id="0ZwLcZMTdDIrtVB83wTa-27" value="Apenas de 1 a 30 caracteres" style="rounded=0;whiteSpace=wrap;html=1;fillColor=#0046D1;" vertex="1" parent="1">
          <mxGeometry x="1722.5700000000002" y="-330.75" width="90" height="40" as="geometry" />
        </mxCell>
        <mxCell id="0ZwLcZMTdDIrtVB83wTa-28" value="Ao inserir um valor incorreto, a frase &quot;Preencha este campo&quot; aparece em vermelho abaixo do campo&amp;nbsp;" style="rounded=0;whiteSpace=wrap;html=1;fillColor=#0046D1;" vertex="1" parent="1">
          <mxGeometry x="1842.5700000000002" y="-350.75" width="160" height="60" as="geometry" />
        </mxCell>
        <mxCell id="0ZwLcZMTdDIrtVB83wTa-29" value="" style="endArrow=none;html=1;rounded=0;" edge="1" parent="1">
          <mxGeometry width="50" height="50" relative="1" as="geometry">
            <mxPoint x="1642.5700000000002" y="-1228.75" as="sourcePoint" />
            <mxPoint x="1932.5700000000002" y="-1228.75" as="targetPoint" />
          </mxGeometry>
        </mxCell>
        <mxCell id="0ZwLcZMTdDIrtVB83wTa-30" value="" style="endArrow=classic;html=1;rounded=0;entryX=0.5;entryY=1;entryDx=0;entryDy=0;exitX=0.581;exitY=0.014;exitDx=0;exitDy=0;exitPerimeter=0;" edge="1" parent="1">
          <mxGeometry width="50" height="50" relative="1" as="geometry">
            <mxPoint x="1642.5700000000002" y="-1208.19" as="sourcePoint" />
            <mxPoint x="1642.7800000000002" y="-1247.5" as="targetPoint" />
          </mxGeometry>
        </mxCell>
        <mxCell id="0ZwLcZMTdDIrtVB83wTa-31" value="" style="endArrow=classic;html=1;rounded=0;exitX=0.581;exitY=0.014;exitDx=0;exitDy=0;exitPerimeter=0;entryX=0.474;entryY=1.014;entryDx=0;entryDy=0;entryPerimeter=0;" edge="1" parent="1" target="0ZwLcZMTdDIrtVB83wTa-14">
          <mxGeometry width="50" height="50" relative="1" as="geometry">
            <mxPoint x="1642.5700000000002" y="-1018.75" as="sourcePoint" />
            <mxPoint x="1642.5700000000002" y="-1058.75" as="targetPoint" />
          </mxGeometry>
        </mxCell>
        <mxCell id="0ZwLcZMTdDIrtVB83wTa-32" value="" style="endArrow=none;html=1;rounded=0;" edge="1" parent="1">
          <mxGeometry width="50" height="50" relative="1" as="geometry">
            <mxPoint x="1642.5700000000002" y="-1038.75" as="sourcePoint" />
            <mxPoint x="1932.5700000000002" y="-1038.75" as="targetPoint" />
          </mxGeometry>
        </mxCell>
        <mxCell id="0ZwLcZMTdDIrtVB83wTa-33" value="" style="endArrow=classic;html=1;rounded=0;entryX=0.56;entryY=1.039;entryDx=0;entryDy=0;entryPerimeter=0;" edge="1" parent="1" target="0ZwLcZMTdDIrtVB83wTa-12">
          <mxGeometry width="50" height="50" relative="1" as="geometry">
            <mxPoint x="1772.5700000000002" y="-1228.75" as="sourcePoint" />
            <mxPoint x="1862.5700000000002" y="-1128.75" as="targetPoint" />
          </mxGeometry>
        </mxCell>
        <mxCell id="0ZwLcZMTdDIrtVB83wTa-34" value="" style="endArrow=classic;html=1;rounded=0;entryX=0.561;entryY=1.01;entryDx=0;entryDy=0;entryPerimeter=0;" edge="1" parent="1" target="0ZwLcZMTdDIrtVB83wTa-13">
          <mxGeometry width="50" height="50" relative="1" as="geometry">
            <mxPoint x="1932.5700000000002" y="-1228.75" as="sourcePoint" />
            <mxPoint x="1932.5700000000002" y="-1247.5" as="targetPoint" />
          </mxGeometry>
        </mxCell>
        <mxCell id="0ZwLcZMTdDIrtVB83wTa-35" value="" style="endArrow=classic;html=1;rounded=0;entryX=0.5;entryY=1;entryDx=0;entryDy=0;" edge="1" parent="1" target="0ZwLcZMTdDIrtVB83wTa-15">
          <mxGeometry width="50" height="50" relative="1" as="geometry">
            <mxPoint x="1772.16" y="-1038.75" as="sourcePoint" />
            <mxPoint x="1770.98" y="-1065" as="targetPoint" />
          </mxGeometry>
        </mxCell>
        <mxCell id="0ZwLcZMTdDIrtVB83wTa-36" value="" style="endArrow=classic;html=1;rounded=0;entryX=0.5;entryY=1;entryDx=0;entryDy=0;" edge="1" parent="1">
          <mxGeometry width="50" height="50" relative="1" as="geometry">
            <mxPoint x="1933.16" y="-1039" as="sourcePoint" />
            <mxPoint x="1932.5700000000002" y="-1065" as="targetPoint" />
          </mxGeometry>
        </mxCell>
        <mxCell id="0ZwLcZMTdDIrtVB83wTa-37" value="" style="endArrow=none;html=1;rounded=0;" edge="1" parent="1">
          <mxGeometry width="50" height="50" relative="1" as="geometry">
            <mxPoint x="1642.5700000000002" y="-848.75" as="sourcePoint" />
            <mxPoint x="1932.5700000000002" y="-848.75" as="targetPoint" />
          </mxGeometry>
        </mxCell>
        <mxCell id="0ZwLcZMTdDIrtVB83wTa-38" value="" style="endArrow=classic;html=1;rounded=0;entryX=0.474;entryY=0.998;entryDx=0;entryDy=0;entryPerimeter=0;exitX=0.553;exitY=0.003;exitDx=0;exitDy=0;exitPerimeter=0;" edge="1" parent="1" source="0ZwLcZMTdDIrtVB83wTa-7" target="0ZwLcZMTdDIrtVB83wTa-17">
          <mxGeometry width="50" height="50" relative="1" as="geometry">
            <mxPoint x="1642.5700000000002" y="-828.75" as="sourcePoint" />
            <mxPoint x="1642.5700000000002" y="-868.75" as="targetPoint" />
          </mxGeometry>
        </mxCell>
        <mxCell id="0ZwLcZMTdDIrtVB83wTa-39" value="" style="endArrow=classic;html=1;rounded=0;entryX=0.558;entryY=1.002;entryDx=0;entryDy=0;entryPerimeter=0;" edge="1" parent="1" target="0ZwLcZMTdDIrtVB83wTa-18">
          <mxGeometry width="50" height="50" relative="1" as="geometry">
            <mxPoint x="1772.5700000000002" y="-848.75" as="sourcePoint" />
            <mxPoint x="1802.5700000000002" y="-868.75" as="targetPoint" />
          </mxGeometry>
        </mxCell>
        <mxCell id="0ZwLcZMTdDIrtVB83wTa-40" value="" style="endArrow=classic;html=1;rounded=0;entryX=0.558;entryY=1.002;entryDx=0;entryDy=0;entryPerimeter=0;" edge="1" parent="1">
          <mxGeometry width="50" height="50" relative="1" as="geometry">
            <mxPoint x="1932.5700000000002" y="-848.5" as="sourcePoint" />
            <mxPoint x="1932.5700000000002" y="-872.5" as="targetPoint" />
          </mxGeometry>
        </mxCell>
        <mxCell id="0ZwLcZMTdDIrtVB83wTa-41" value="" style="endArrow=none;html=1;rounded=0;" edge="1" parent="1">
          <mxGeometry width="50" height="50" relative="1" as="geometry">
            <mxPoint x="1642.5700000000002" y="-648.75" as="sourcePoint" />
            <mxPoint x="1932.5700000000002" y="-648.75" as="targetPoint" />
          </mxGeometry>
        </mxCell>
        <mxCell id="0ZwLcZMTdDIrtVB83wTa-42" value="" style="endArrow=classic;html=1;rounded=0;exitX=0.547;exitY=-0.001;exitDx=0;exitDy=0;exitPerimeter=0;entryX=0.478;entryY=1.003;entryDx=0;entryDy=0;entryPerimeter=0;" edge="1" parent="1" source="0ZwLcZMTdDIrtVB83wTa-8" target="0ZwLcZMTdDIrtVB83wTa-20">
          <mxGeometry width="50" height="50" relative="1" as="geometry">
            <mxPoint x="1622.5700000000002" y="-648.75" as="sourcePoint" />
            <mxPoint x="1672.5700000000002" y="-698.75" as="targetPoint" />
          </mxGeometry>
        </mxCell>
        <mxCell id="0ZwLcZMTdDIrtVB83wTa-43" value="" style="endArrow=classic;html=1;rounded=0;entryX=0.558;entryY=1.002;entryDx=0;entryDy=0;entryPerimeter=0;" edge="1" parent="1">
          <mxGeometry width="50" height="50" relative="1" as="geometry">
            <mxPoint x="1771.5700000000002" y="-648.75" as="sourcePoint" />
            <mxPoint x="1771.41" y="-674.75" as="targetPoint" />
          </mxGeometry>
        </mxCell>
        <mxCell id="0ZwLcZMTdDIrtVB83wTa-44" value="" style="endArrow=classic;html=1;rounded=0;entryX=0.558;entryY=1.002;entryDx=0;entryDy=0;entryPerimeter=0;" edge="1" parent="1">
          <mxGeometry width="50" height="50" relative="1" as="geometry">
            <mxPoint x="1932.7300000000002" y="-648.75" as="sourcePoint" />
            <mxPoint x="1932.5700000000002" y="-674.75" as="targetPoint" />
          </mxGeometry>
        </mxCell>
        <mxCell id="0ZwLcZMTdDIrtVB83wTa-45" value="" style="endArrow=none;html=1;rounded=0;" edge="1" parent="1">
          <mxGeometry width="50" height="50" relative="1" as="geometry">
            <mxPoint x="1642.5700000000002" y="-458.75" as="sourcePoint" />
            <mxPoint x="1932.5700000000002" y="-458.75" as="targetPoint" />
          </mxGeometry>
        </mxCell>
        <mxCell id="0ZwLcZMTdDIrtVB83wTa-46" value="" style="endArrow=classic;html=1;rounded=0;entryX=0.473;entryY=1.023;entryDx=0;entryDy=0;entryPerimeter=0;" edge="1" parent="1" target="0ZwLcZMTdDIrtVB83wTa-23">
          <mxGeometry width="50" height="50" relative="1" as="geometry">
            <mxPoint x="1642.5700000000002" y="-438.75" as="sourcePoint" />
            <mxPoint x="1692.5700000000002" y="-478.75" as="targetPoint" />
          </mxGeometry>
        </mxCell>
        <mxCell id="0ZwLcZMTdDIrtVB83wTa-47" value="" style="endArrow=classic;html=1;rounded=0;entryX=0.558;entryY=1.036;entryDx=0;entryDy=0;entryPerimeter=0;" edge="1" parent="1" target="0ZwLcZMTdDIrtVB83wTa-24">
          <mxGeometry width="50" height="50" relative="1" as="geometry">
            <mxPoint x="1772.5700000000002" y="-458.75" as="sourcePoint" />
            <mxPoint x="1792.5700000000002" y="-468.75" as="targetPoint" />
          </mxGeometry>
        </mxCell>
        <mxCell id="0ZwLcZMTdDIrtVB83wTa-48" value="" style="endArrow=classic;html=1;rounded=0;entryX=0.558;entryY=1.036;entryDx=0;entryDy=0;entryPerimeter=0;" edge="1" parent="1">
          <mxGeometry width="50" height="50" relative="1" as="geometry">
            <mxPoint x="1932.5700000000002" y="-458.75" as="sourcePoint" />
            <mxPoint x="1932.5700000000002" y="-486.25" as="targetPoint" />
          </mxGeometry>
        </mxCell>
        <mxCell id="0ZwLcZMTdDIrtVB83wTa-49" value="" style="endArrow=none;html=1;rounded=0;" edge="1" parent="1">
          <mxGeometry width="50" height="50" relative="1" as="geometry">
            <mxPoint x="1642.5700000000002" y="-268.75" as="sourcePoint" />
            <mxPoint x="1932.5700000000002" y="-268.75" as="targetPoint" />
          </mxGeometry>
        </mxCell>
        <mxCell id="0ZwLcZMTdDIrtVB83wTa-50" value="" style="endArrow=classic;html=1;rounded=0;exitX=0.552;exitY=0.002;exitDx=0;exitDy=0;exitPerimeter=0;" edge="1" parent="1" source="0ZwLcZMTdDIrtVB83wTa-9">
          <mxGeometry width="50" height="50" relative="1" as="geometry">
            <mxPoint x="1642.5700000000002" y="-238.75" as="sourcePoint" />
            <mxPoint x="1642.5700000000002" y="-288.75" as="targetPoint" />
          </mxGeometry>
        </mxCell>
        <mxCell id="0ZwLcZMTdDIrtVB83wTa-51" value="" style="endArrow=classic;html=1;rounded=0;entryX=0.561;entryY=1.018;entryDx=0;entryDy=0;entryPerimeter=0;" edge="1" parent="1" target="0ZwLcZMTdDIrtVB83wTa-27">
          <mxGeometry width="50" height="50" relative="1" as="geometry">
            <mxPoint x="1772.5700000000002" y="-268.75" as="sourcePoint" />
            <mxPoint x="1872.5700000000002" y="-308.75" as="targetPoint" />
          </mxGeometry>
        </mxCell>
        <mxCell id="0ZwLcZMTdDIrtVB83wTa-52" value="" style="endArrow=classic;html=1;rounded=0;entryX=0.561;entryY=1.018;entryDx=0;entryDy=0;entryPerimeter=0;" edge="1" parent="1">
          <mxGeometry width="50" height="50" relative="1" as="geometry">
            <mxPoint x="1932.5700000000002" y="-268.75" as="sourcePoint" />
            <mxPoint x="1932.5700000000002" y="-290.25" as="targetPoint" />
          </mxGeometry>
        </mxCell>
        <mxCell id="0ZwLcZMTdDIrtVB83wTa-53" value="" style="endArrow=none;html=1;rounded=0;" edge="1" parent="1">
          <mxGeometry width="50" height="50" relative="1" as="geometry">
            <mxPoint x="1440" y="-230" as="sourcePoint" />
            <mxPoint x="1440" y="-1190" as="targetPoint" />
          </mxGeometry>
        </mxCell>
        <mxCell id="0ZwLcZMTdDIrtVB83wTa-54" value="" style="endArrow=none;html=1;rounded=0;entryX=0.001;entryY=0.469;entryDx=0;entryDy=0;entryPerimeter=0;" edge="1" parent="1" target="0ZwLcZMTdDIrtVB83wTa-5">
          <mxGeometry width="50" height="50" relative="1" as="geometry">
            <mxPoint x="1440" y="-1190" as="sourcePoint" />
            <mxPoint x="1540" y="-1130" as="targetPoint" />
          </mxGeometry>
        </mxCell>
        <mxCell id="0ZwLcZMTdDIrtVB83wTa-55" value="" style="endArrow=none;html=1;rounded=0;entryX=0.001;entryY=0.469;entryDx=0;entryDy=0;entryPerimeter=0;" edge="1" parent="1">
          <mxGeometry width="50" height="50" relative="1" as="geometry">
            <mxPoint x="1439.57" y="-1000" as="sourcePoint" />
            <mxPoint x="1592.57" y="-1000" as="targetPoint" />
          </mxGeometry>
        </mxCell>
        <mxCell id="0ZwLcZMTdDIrtVB83wTa-56" value="" style="endArrow=none;html=1;rounded=0;entryX=0.001;entryY=0.469;entryDx=0;entryDy=0;entryPerimeter=0;" edge="1" parent="1">
          <mxGeometry width="50" height="50" relative="1" as="geometry">
            <mxPoint x="1439.57" y="-804.9" as="sourcePoint" />
            <mxPoint x="1592.57" y="-804.9" as="targetPoint" />
          </mxGeometry>
        </mxCell>
        <mxCell id="0ZwLcZMTdDIrtVB83wTa-57" value="" style="endArrow=none;html=1;rounded=0;entryX=0.001;entryY=0.469;entryDx=0;entryDy=0;entryPerimeter=0;" edge="1" parent="1">
          <mxGeometry width="50" height="50" relative="1" as="geometry">
            <mxPoint x="1439.57" y="-610" as="sourcePoint" />
            <mxPoint x="1592.57" y="-610" as="targetPoint" />
          </mxGeometry>
        </mxCell>
        <mxCell id="0ZwLcZMTdDIrtVB83wTa-58" value="" style="endArrow=none;html=1;rounded=0;entryX=0.001;entryY=0.469;entryDx=0;entryDy=0;entryPerimeter=0;" edge="1" parent="1">
          <mxGeometry width="50" height="50" relative="1" as="geometry">
            <mxPoint x="1439.57" y="-418.9" as="sourcePoint" />
            <mxPoint x="1592.57" y="-418.9" as="targetPoint" />
          </mxGeometry>
        </mxCell>
        <mxCell id="0ZwLcZMTdDIrtVB83wTa-59" value="" style="endArrow=none;html=1;rounded=0;entryX=0.001;entryY=0.469;entryDx=0;entryDy=0;entryPerimeter=0;" edge="1" parent="1">
          <mxGeometry width="50" height="50" relative="1" as="geometry">
            <mxPoint x="1439.57" y="-228.89999999999998" as="sourcePoint" />
            <mxPoint x="1592.57" y="-228.89999999999998" as="targetPoint" />
          </mxGeometry>
        </mxCell>
        <mxCell id="0ZwLcZMTdDIrtVB83wTa-60" value="" style="endArrow=none;html=1;rounded=0;" edge="1" parent="1">
          <mxGeometry width="50" height="50" relative="1" as="geometry">
            <mxPoint x="1440" y="-100" as="sourcePoint" />
            <mxPoint x="1890" y="-100" as="targetPoint" />
          </mxGeometry>
        </mxCell>
        <mxCell id="0ZwLcZMTdDIrtVB83wTa-61" value="" style="endArrow=none;html=1;rounded=0;" edge="1" parent="1">
          <mxGeometry width="50" height="50" relative="1" as="geometry">
            <mxPoint x="1440" y="-100" as="sourcePoint" />
            <mxPoint x="1440" y="-230" as="targetPoint" />
          </mxGeometry>
        </mxCell>
        <mxCell id="0ZwLcZMTdDIrtVB83wTa-62" value="" style="endArrow=none;html=1;rounded=0;exitX=0.499;exitY=-0.025;exitDx=0;exitDy=0;exitPerimeter=0;" edge="1" parent="1" source="0ZwLcZMTdDIrtVB83wTa-1">
          <mxGeometry width="50" height="50" relative="1" as="geometry">
            <mxPoint x="1919.94" y="-70" as="sourcePoint" />
            <mxPoint x="1890" y="-100" as="targetPoint" />
          </mxGeometry>
        </mxCell>
        <mxCell id="0ZwLcZMTdDIrtVB83wTa-159" value="Número do cartão" style="rounded=0;whiteSpace=wrap;html=1;fillColor=#002C85;" vertex="1" parent="1">
          <mxGeometry x="2317.1400000000003" y="-1208.75" width="90" height="40" as="geometry" />
        </mxCell>
        <mxCell id="0ZwLcZMTdDIrtVB83wTa-160" value="Validade" style="rounded=0;whiteSpace=wrap;html=1;fillColor=#002C85;" vertex="1" parent="1">
          <mxGeometry x="2317.1400000000003" y="-1018.75" width="90" height="40" as="geometry" />
        </mxCell>
        <mxCell id="0ZwLcZMTdDIrtVB83wTa-161" value="Código de segurança" style="rounded=0;whiteSpace=wrap;html=1;fillColor=#002C85;" vertex="1" parent="1">
          <mxGeometry x="2317.1400000000003" y="-824.75" width="90" height="40" as="geometry" />
        </mxCell>
        <mxCell id="0ZwLcZMTdDIrtVB83wTa-162" value="Nome no cartão" style="rounded=0;whiteSpace=wrap;html=1;fillColor=#002C85;" vertex="1" parent="1">
          <mxGeometry x="2317.1400000000003" y="-628.75" width="90" height="40" as="geometry" />
        </mxCell>
        <mxCell id="0ZwLcZMTdDIrtVB83wTa-163" value="Bairro" style="rounded=0;whiteSpace=wrap;html=1;fillColor=#002C85;" vertex="1" parent="1">
          <mxGeometry x="2317.1400000000003" y="-248.75" width="90" height="40" as="geometry" />
        </mxCell>
        <mxCell id="0ZwLcZMTdDIrtVB83wTa-164" value="Cidade" style="rounded=0;whiteSpace=wrap;html=1;fillColor=#002C85;" vertex="1" parent="1">
          <mxGeometry x="2317.1400000000003" y="-438.75" width="90" height="40" as="geometry" />
        </mxCell>
        <mxCell id="0ZwLcZMTdDIrtVB83wTa-165" value="Somente números e espaços" style="rounded=0;whiteSpace=wrap;html=1;fillColor=#0046D1;" vertex="1" parent="1">
          <mxGeometry x="2311.07" y="-1290" width="102.14" height="42.5" as="geometry" />
        </mxCell>
        <mxCell id="0ZwLcZMTdDIrtVB83wTa-166" value="Apenas 16 caracteres" style="rounded=0;whiteSpace=wrap;html=1;fillColor=#0046D1;" vertex="1" parent="1">
          <mxGeometry x="2447.1400000000003" y="-1288.75" width="90" height="40" as="geometry" />
        </mxCell>
        <mxCell id="0ZwLcZMTdDIrtVB83wTa-167" value="Ao inserir um valor incorreto, a frase &quot;Preencha este campo&quot; aparece em vermelho abaixo do campo&amp;nbsp;" style="rounded=0;whiteSpace=wrap;html=1;fillColor=#0046D1;" vertex="1" parent="1">
          <mxGeometry x="2567.1400000000003" y="-1310" width="160" height="60" as="geometry" />
        </mxCell>
        <mxCell id="0ZwLcZMTdDIrtVB83wTa-168" value="Somente números&amp;nbsp;" style="rounded=0;whiteSpace=wrap;html=1;fillColor=#0046D1;" vertex="1" parent="1">
          <mxGeometry x="2318.57" y="-1102.5" width="102.14" height="37.5" as="geometry" />
        </mxCell>
        <mxCell id="0ZwLcZMTdDIrtVB83wTa-169" value="Apenas 4 caracteres" style="rounded=0;whiteSpace=wrap;html=1;fillColor=#0046D1;" vertex="1" parent="1">
          <mxGeometry x="2451.1400000000003" y="-1105" width="90" height="40" as="geometry" />
        </mxCell>
        <mxCell id="0ZwLcZMTdDIrtVB83wTa-170" value="Ao inserir um valor incorreto, a frase &quot;Preencha este campo&quot; aparece em vermelho abaixo do campo&amp;nbsp;" style="rounded=0;whiteSpace=wrap;html=1;fillColor=#0046D1;" vertex="1" parent="1">
          <mxGeometry x="2567.1400000000003" y="-1125" width="160" height="60" as="geometry" />
        </mxCell>
        <mxCell id="0ZwLcZMTdDIrtVB83wTa-171" value="Somente números" style="rounded=0;whiteSpace=wrap;html=1;fillColor=#0046D1;" vertex="1" parent="1">
          <mxGeometry x="2318.57" y="-910" width="102.14" height="37.5" as="geometry" />
        </mxCell>
        <mxCell id="0ZwLcZMTdDIrtVB83wTa-172" value="Apenas de 3 a 4 caracteres" style="rounded=0;whiteSpace=wrap;html=1;fillColor=#0046D1;" vertex="1" parent="1">
          <mxGeometry x="2447.1400000000003" y="-912.5" width="90" height="40" as="geometry" />
        </mxCell>
        <mxCell id="0ZwLcZMTdDIrtVB83wTa-173" value="Ao inserir um valor incorreto, a frase &quot;Preencha este campo&quot; aparece em vermelho abaixo do campo&amp;nbsp;" style="rounded=0;whiteSpace=wrap;html=1;fillColor=#0046D1;" vertex="1" parent="1">
          <mxGeometry x="2567.1400000000003" y="-932.5" width="160" height="60" as="geometry" />
        </mxCell>
        <mxCell id="0ZwLcZMTdDIrtVB83wTa-174" value="Somente letras latinas, números, espaços e traços" style="rounded=0;whiteSpace=wrap;html=1;fillColor=#0046D1;" vertex="1" parent="1">
          <mxGeometry x="2317.1400000000003" y="-737.25" width="105" height="62.5" as="geometry" />
        </mxCell>
        <mxCell id="0ZwLcZMTdDIrtVB83wTa-175" value="Apenas de 1 a 10 caracteres" style="rounded=0;whiteSpace=wrap;html=1;fillColor=#0046D1;" vertex="1" parent="1">
          <mxGeometry x="2447.1400000000003" y="-714.75" width="90" height="40" as="geometry" />
        </mxCell>
        <mxCell id="0ZwLcZMTdDIrtVB83wTa-176" value="Ao inserir um valor incorreto, a frase &quot;Preencha este campo&quot; aparece em vermelho abaixo do campo&amp;nbsp;" style="rounded=0;whiteSpace=wrap;html=1;fillColor=#0046D1;" vertex="1" parent="1">
          <mxGeometry x="2567.1400000000003" y="-734.75" width="160" height="60" as="geometry" />
        </mxCell>
        <mxCell id="0ZwLcZMTdDIrtVB83wTa-177" value="Somente letras latinas, números, espaços e traços" style="rounded=0;whiteSpace=wrap;html=1;fillColor=#0046D1;" vertex="1" parent="1">
          <mxGeometry x="2317.1400000000003" y="-548.75" width="105" height="62.5" as="geometry" />
        </mxCell>
        <mxCell id="0ZwLcZMTdDIrtVB83wTa-178" value="Apenas de 1 a 30 caracteres" style="rounded=0;whiteSpace=wrap;html=1;fillColor=#0046D1;" vertex="1" parent="1">
          <mxGeometry x="2447.1400000000003" y="-526.25" width="90" height="40" as="geometry" />
        </mxCell>
        <mxCell id="0ZwLcZMTdDIrtVB83wTa-179" value="Ao inserir um valor incorreto, a frase &quot;Preencha este campo&quot; aparece em vermelho abaixo do campo&amp;nbsp;" style="rounded=0;whiteSpace=wrap;html=1;fillColor=#0046D1;" vertex="1" parent="1">
          <mxGeometry x="2567.1400000000003" y="-546.25" width="160" height="60" as="geometry" />
        </mxCell>
        <mxCell id="0ZwLcZMTdDIrtVB83wTa-180" value="Somente letras latinas, espaços e traços" style="rounded=0;whiteSpace=wrap;html=1;fillColor=#0046D1;" vertex="1" parent="1">
          <mxGeometry x="2317.1400000000003" y="-352.75" width="105" height="62.5" as="geometry" />
        </mxCell>
        <mxCell id="0ZwLcZMTdDIrtVB83wTa-181" value="Apenas de 1 a 30 caracteres" style="rounded=0;whiteSpace=wrap;html=1;fillColor=#0046D1;" vertex="1" parent="1">
          <mxGeometry x="2447.1400000000003" y="-330.75" width="90" height="40" as="geometry" />
        </mxCell>
        <mxCell id="0ZwLcZMTdDIrtVB83wTa-182" value="Ao inserir um valor incorreto, a frase &quot;Preencha este campo&quot; aparece em vermelho abaixo do campo&amp;nbsp;" style="rounded=0;whiteSpace=wrap;html=1;fillColor=#0046D1;" vertex="1" parent="1">
          <mxGeometry x="2567.1400000000003" y="-350.75" width="160" height="60" as="geometry" />
        </mxCell>
        <mxCell id="0ZwLcZMTdDIrtVB83wTa-183" value="" style="endArrow=none;html=1;rounded=0;" edge="1" parent="1">
          <mxGeometry width="50" height="50" relative="1" as="geometry">
            <mxPoint x="2367.1400000000003" y="-1228.75" as="sourcePoint" />
            <mxPoint x="2657.1400000000003" y="-1228.75" as="targetPoint" />
          </mxGeometry>
        </mxCell>
        <mxCell id="0ZwLcZMTdDIrtVB83wTa-184" value="" style="endArrow=classic;html=1;rounded=0;entryX=0.5;entryY=1;entryDx=0;entryDy=0;exitX=0.581;exitY=0.014;exitDx=0;exitDy=0;exitPerimeter=0;" edge="1" parent="1">
          <mxGeometry width="50" height="50" relative="1" as="geometry">
            <mxPoint x="2367.1400000000003" y="-1208.19" as="sourcePoint" />
            <mxPoint x="2367.3500000000004" y="-1247.5" as="targetPoint" />
          </mxGeometry>
        </mxCell>
        <mxCell id="0ZwLcZMTdDIrtVB83wTa-185" value="" style="endArrow=classic;html=1;rounded=0;exitX=0.581;exitY=0.014;exitDx=0;exitDy=0;exitPerimeter=0;entryX=0.474;entryY=1.014;entryDx=0;entryDy=0;entryPerimeter=0;" edge="1" parent="1" target="0ZwLcZMTdDIrtVB83wTa-168">
          <mxGeometry width="50" height="50" relative="1" as="geometry">
            <mxPoint x="2367.1400000000003" y="-1018.75" as="sourcePoint" />
            <mxPoint x="2367.1400000000003" y="-1058.75" as="targetPoint" />
          </mxGeometry>
        </mxCell>
        <mxCell id="0ZwLcZMTdDIrtVB83wTa-186" value="" style="endArrow=none;html=1;rounded=0;" edge="1" parent="1">
          <mxGeometry width="50" height="50" relative="1" as="geometry">
            <mxPoint x="2367.1400000000003" y="-1038.75" as="sourcePoint" />
            <mxPoint x="2657.1400000000003" y="-1038.75" as="targetPoint" />
          </mxGeometry>
        </mxCell>
        <mxCell id="0ZwLcZMTdDIrtVB83wTa-187" value="" style="endArrow=classic;html=1;rounded=0;entryX=0.56;entryY=1.039;entryDx=0;entryDy=0;entryPerimeter=0;" edge="1" parent="1" target="0ZwLcZMTdDIrtVB83wTa-166">
          <mxGeometry width="50" height="50" relative="1" as="geometry">
            <mxPoint x="2497.1400000000003" y="-1228.75" as="sourcePoint" />
            <mxPoint x="2587.1400000000003" y="-1128.75" as="targetPoint" />
          </mxGeometry>
        </mxCell>
        <mxCell id="0ZwLcZMTdDIrtVB83wTa-188" value="" style="endArrow=classic;html=1;rounded=0;entryX=0.561;entryY=1.01;entryDx=0;entryDy=0;entryPerimeter=0;" edge="1" parent="1" target="0ZwLcZMTdDIrtVB83wTa-167">
          <mxGeometry width="50" height="50" relative="1" as="geometry">
            <mxPoint x="2657.1400000000003" y="-1228.75" as="sourcePoint" />
            <mxPoint x="2657.1400000000003" y="-1247.5" as="targetPoint" />
          </mxGeometry>
        </mxCell>
        <mxCell id="0ZwLcZMTdDIrtVB83wTa-189" value="" style="endArrow=classic;html=1;rounded=0;entryX=0.5;entryY=1;entryDx=0;entryDy=0;" edge="1" parent="1" target="0ZwLcZMTdDIrtVB83wTa-169">
          <mxGeometry width="50" height="50" relative="1" as="geometry">
            <mxPoint x="2496.73" y="-1038.75" as="sourcePoint" />
            <mxPoint x="2495.55" y="-1065" as="targetPoint" />
          </mxGeometry>
        </mxCell>
        <mxCell id="0ZwLcZMTdDIrtVB83wTa-190" value="" style="endArrow=classic;html=1;rounded=0;entryX=0.5;entryY=1;entryDx=0;entryDy=0;" edge="1" parent="1">
          <mxGeometry width="50" height="50" relative="1" as="geometry">
            <mxPoint x="2657.73" y="-1039" as="sourcePoint" />
            <mxPoint x="2657.1400000000003" y="-1065" as="targetPoint" />
          </mxGeometry>
        </mxCell>
        <mxCell id="0ZwLcZMTdDIrtVB83wTa-191" value="" style="endArrow=none;html=1;rounded=0;" edge="1" parent="1">
          <mxGeometry width="50" height="50" relative="1" as="geometry">
            <mxPoint x="2367.1400000000003" y="-848.75" as="sourcePoint" />
            <mxPoint x="2657.1400000000003" y="-848.75" as="targetPoint" />
          </mxGeometry>
        </mxCell>
        <mxCell id="0ZwLcZMTdDIrtVB83wTa-192" value="" style="endArrow=classic;html=1;rounded=0;entryX=0.474;entryY=0.998;entryDx=0;entryDy=0;entryPerimeter=0;exitX=0.553;exitY=0.003;exitDx=0;exitDy=0;exitPerimeter=0;" edge="1" parent="1" source="0ZwLcZMTdDIrtVB83wTa-161" target="0ZwLcZMTdDIrtVB83wTa-171">
          <mxGeometry width="50" height="50" relative="1" as="geometry">
            <mxPoint x="2367.1400000000003" y="-828.75" as="sourcePoint" />
            <mxPoint x="2367.1400000000003" y="-868.75" as="targetPoint" />
          </mxGeometry>
        </mxCell>
        <mxCell id="0ZwLcZMTdDIrtVB83wTa-193" value="" style="endArrow=classic;html=1;rounded=0;entryX=0.558;entryY=1.002;entryDx=0;entryDy=0;entryPerimeter=0;" edge="1" parent="1" target="0ZwLcZMTdDIrtVB83wTa-172">
          <mxGeometry width="50" height="50" relative="1" as="geometry">
            <mxPoint x="2497.1400000000003" y="-848.75" as="sourcePoint" />
            <mxPoint x="2527.1400000000003" y="-868.75" as="targetPoint" />
          </mxGeometry>
        </mxCell>
        <mxCell id="0ZwLcZMTdDIrtVB83wTa-194" value="" style="endArrow=classic;html=1;rounded=0;entryX=0.558;entryY=1.002;entryDx=0;entryDy=0;entryPerimeter=0;" edge="1" parent="1">
          <mxGeometry width="50" height="50" relative="1" as="geometry">
            <mxPoint x="2657.1400000000003" y="-848.5" as="sourcePoint" />
            <mxPoint x="2657.1400000000003" y="-872.5" as="targetPoint" />
          </mxGeometry>
        </mxCell>
        <mxCell id="0ZwLcZMTdDIrtVB83wTa-195" value="" style="endArrow=none;html=1;rounded=0;" edge="1" parent="1">
          <mxGeometry width="50" height="50" relative="1" as="geometry">
            <mxPoint x="2367.1400000000003" y="-648.75" as="sourcePoint" />
            <mxPoint x="2657.1400000000003" y="-648.75" as="targetPoint" />
          </mxGeometry>
        </mxCell>
        <mxCell id="0ZwLcZMTdDIrtVB83wTa-196" value="" style="endArrow=classic;html=1;rounded=0;exitX=0.547;exitY=-0.001;exitDx=0;exitDy=0;exitPerimeter=0;entryX=0.478;entryY=1.003;entryDx=0;entryDy=0;entryPerimeter=0;" edge="1" parent="1" source="0ZwLcZMTdDIrtVB83wTa-162" target="0ZwLcZMTdDIrtVB83wTa-174">
          <mxGeometry width="50" height="50" relative="1" as="geometry">
            <mxPoint x="2347.1400000000003" y="-648.75" as="sourcePoint" />
            <mxPoint x="2397.1400000000003" y="-698.75" as="targetPoint" />
          </mxGeometry>
        </mxCell>
        <mxCell id="0ZwLcZMTdDIrtVB83wTa-197" value="" style="endArrow=classic;html=1;rounded=0;entryX=0.558;entryY=1.002;entryDx=0;entryDy=0;entryPerimeter=0;" edge="1" parent="1">
          <mxGeometry width="50" height="50" relative="1" as="geometry">
            <mxPoint x="2496.1400000000003" y="-648.75" as="sourcePoint" />
            <mxPoint x="2495.98" y="-674.75" as="targetPoint" />
          </mxGeometry>
        </mxCell>
        <mxCell id="0ZwLcZMTdDIrtVB83wTa-198" value="" style="endArrow=classic;html=1;rounded=0;entryX=0.558;entryY=1.002;entryDx=0;entryDy=0;entryPerimeter=0;" edge="1" parent="1">
          <mxGeometry width="50" height="50" relative="1" as="geometry">
            <mxPoint x="2657.3" y="-648.75" as="sourcePoint" />
            <mxPoint x="2657.1400000000003" y="-674.75" as="targetPoint" />
          </mxGeometry>
        </mxCell>
        <mxCell id="0ZwLcZMTdDIrtVB83wTa-199" value="" style="endArrow=none;html=1;rounded=0;" edge="1" parent="1">
          <mxGeometry width="50" height="50" relative="1" as="geometry">
            <mxPoint x="2367.1400000000003" y="-458.75" as="sourcePoint" />
            <mxPoint x="2657.1400000000003" y="-458.75" as="targetPoint" />
          </mxGeometry>
        </mxCell>
        <mxCell id="0ZwLcZMTdDIrtVB83wTa-200" value="" style="endArrow=classic;html=1;rounded=0;entryX=0.473;entryY=1.023;entryDx=0;entryDy=0;entryPerimeter=0;" edge="1" parent="1" target="0ZwLcZMTdDIrtVB83wTa-177">
          <mxGeometry width="50" height="50" relative="1" as="geometry">
            <mxPoint x="2367.1400000000003" y="-438.75" as="sourcePoint" />
            <mxPoint x="2417.1400000000003" y="-478.75" as="targetPoint" />
          </mxGeometry>
        </mxCell>
        <mxCell id="0ZwLcZMTdDIrtVB83wTa-201" value="" style="endArrow=classic;html=1;rounded=0;entryX=0.558;entryY=1.036;entryDx=0;entryDy=0;entryPerimeter=0;" edge="1" parent="1" target="0ZwLcZMTdDIrtVB83wTa-178">
          <mxGeometry width="50" height="50" relative="1" as="geometry">
            <mxPoint x="2497.1400000000003" y="-458.75" as="sourcePoint" />
            <mxPoint x="2517.1400000000003" y="-468.75" as="targetPoint" />
          </mxGeometry>
        </mxCell>
        <mxCell id="0ZwLcZMTdDIrtVB83wTa-202" value="" style="endArrow=classic;html=1;rounded=0;entryX=0.558;entryY=1.036;entryDx=0;entryDy=0;entryPerimeter=0;" edge="1" parent="1">
          <mxGeometry width="50" height="50" relative="1" as="geometry">
            <mxPoint x="2657.1400000000003" y="-458.75" as="sourcePoint" />
            <mxPoint x="2657.1400000000003" y="-486.25" as="targetPoint" />
          </mxGeometry>
        </mxCell>
        <mxCell id="0ZwLcZMTdDIrtVB83wTa-203" value="" style="endArrow=none;html=1;rounded=0;" edge="1" parent="1">
          <mxGeometry width="50" height="50" relative="1" as="geometry">
            <mxPoint x="2367.1400000000003" y="-268.75" as="sourcePoint" />
            <mxPoint x="2657.1400000000003" y="-268.75" as="targetPoint" />
          </mxGeometry>
        </mxCell>
        <mxCell id="0ZwLcZMTdDIrtVB83wTa-204" value="" style="endArrow=classic;html=1;rounded=0;exitX=0.552;exitY=0.002;exitDx=0;exitDy=0;exitPerimeter=0;" edge="1" parent="1" source="0ZwLcZMTdDIrtVB83wTa-163">
          <mxGeometry width="50" height="50" relative="1" as="geometry">
            <mxPoint x="2367.1400000000003" y="-238.75" as="sourcePoint" />
            <mxPoint x="2367.1400000000003" y="-288.75" as="targetPoint" />
          </mxGeometry>
        </mxCell>
        <mxCell id="0ZwLcZMTdDIrtVB83wTa-205" value="" style="endArrow=classic;html=1;rounded=0;entryX=0.561;entryY=1.018;entryDx=0;entryDy=0;entryPerimeter=0;" edge="1" parent="1" target="0ZwLcZMTdDIrtVB83wTa-181">
          <mxGeometry width="50" height="50" relative="1" as="geometry">
            <mxPoint x="2497.1400000000003" y="-268.75" as="sourcePoint" />
            <mxPoint x="2597.1400000000003" y="-308.75" as="targetPoint" />
          </mxGeometry>
        </mxCell>
        <mxCell id="0ZwLcZMTdDIrtVB83wTa-206" value="" style="endArrow=classic;html=1;rounded=0;entryX=0.561;entryY=1.018;entryDx=0;entryDy=0;entryPerimeter=0;" edge="1" parent="1">
          <mxGeometry width="50" height="50" relative="1" as="geometry">
            <mxPoint x="2657.1400000000003" y="-268.75" as="sourcePoint" />
            <mxPoint x="2657.1400000000003" y="-290.25" as="targetPoint" />
          </mxGeometry>
        </mxCell>
        <mxCell id="0ZwLcZMTdDIrtVB83wTa-207" value="" style="endArrow=none;html=1;rounded=0;" edge="1" parent="1">
          <mxGeometry width="50" height="50" relative="1" as="geometry">
            <mxPoint x="2160" y="-220" as="sourcePoint" />
            <mxPoint x="2160" y="-1190" as="targetPoint" />
          </mxGeometry>
        </mxCell>
        <mxCell id="0ZwLcZMTdDIrtVB83wTa-208" value="" style="endArrow=none;html=1;rounded=0;entryX=-0.019;entryY=0.685;entryDx=0;entryDy=0;entryPerimeter=0;" edge="1" parent="1" target="0ZwLcZMTdDIrtVB83wTa-163">
          <mxGeometry width="50" height="50" relative="1" as="geometry">
            <mxPoint x="2160" y="-220" as="sourcePoint" />
            <mxPoint x="2270" y="-260" as="targetPoint" />
          </mxGeometry>
        </mxCell>
        <mxCell id="0ZwLcZMTdDIrtVB83wTa-209" value="" style="endArrow=none;html=1;rounded=0;entryX=0;entryY=0.47;entryDx=0;entryDy=0;entryPerimeter=0;" edge="1" parent="1" target="0ZwLcZMTdDIrtVB83wTa-159">
          <mxGeometry width="50" height="50" relative="1" as="geometry">
            <mxPoint x="2160" y="-1190" as="sourcePoint" />
            <mxPoint x="2280" y="-1200" as="targetPoint" />
          </mxGeometry>
        </mxCell>
        <mxCell id="0ZwLcZMTdDIrtVB83wTa-210" value="" style="endArrow=none;html=1;rounded=0;entryX=0;entryY=0.47;entryDx=0;entryDy=0;entryPerimeter=0;" edge="1" parent="1">
          <mxGeometry width="50" height="50" relative="1" as="geometry">
            <mxPoint x="2161.57" y="-999.17" as="sourcePoint" />
            <mxPoint x="2318.57" y="-999.17" as="targetPoint" />
          </mxGeometry>
        </mxCell>
        <mxCell id="0ZwLcZMTdDIrtVB83wTa-211" value="" style="endArrow=none;html=1;rounded=0;entryX=0;entryY=0.47;entryDx=0;entryDy=0;entryPerimeter=0;" edge="1" parent="1">
          <mxGeometry width="50" height="50" relative="1" as="geometry">
            <mxPoint x="2160.1400000000003" y="-805.17" as="sourcePoint" />
            <mxPoint x="2317.1400000000003" y="-805.17" as="targetPoint" />
          </mxGeometry>
        </mxCell>
        <mxCell id="0ZwLcZMTdDIrtVB83wTa-212" value="" style="endArrow=none;html=1;rounded=0;entryX=0;entryY=0.47;entryDx=0;entryDy=0;entryPerimeter=0;" edge="1" parent="1">
          <mxGeometry width="50" height="50" relative="1" as="geometry">
            <mxPoint x="2161.57" y="-609.17" as="sourcePoint" />
            <mxPoint x="2318.57" y="-609.17" as="targetPoint" />
          </mxGeometry>
        </mxCell>
        <mxCell id="0ZwLcZMTdDIrtVB83wTa-213" value="" style="endArrow=none;html=1;rounded=0;entryX=0;entryY=0.47;entryDx=0;entryDy=0;entryPerimeter=0;" edge="1" parent="1">
          <mxGeometry width="50" height="50" relative="1" as="geometry">
            <mxPoint x="2160.1400000000003" y="-419.16999999999996" as="sourcePoint" />
            <mxPoint x="2317.1400000000003" y="-419.16999999999996" as="targetPoint" />
          </mxGeometry>
        </mxCell>
        <mxCell id="0ZwLcZMTdDIrtVB83wTa-215" value="" style="endArrow=none;html=1;rounded=0;exitX=0.5;exitY=0;exitDx=0;exitDy=0;" edge="1" parent="1" source="0ZwLcZMTdDIrtVB83wTa-2">
          <mxGeometry width="50" height="50" relative="1" as="geometry">
            <mxPoint x="2130" y="-120" as="sourcePoint" />
            <mxPoint x="2160" y="-220" as="targetPoint" />
          </mxGeometry>
        </mxCell>
        <mxCell id="0ZwLcZMTdDIrtVB83wTa-256" style="edgeStyle=orthogonalEdgeStyle;rounded=0;orthogonalLoop=1;jettySize=auto;html=1;exitX=0;exitY=0.25;exitDx=0;exitDy=0;entryX=0.5;entryY=1;entryDx=0;entryDy=0;" edge="1" parent="1" source="0ZwLcZMTdDIrtVB83wTa-218" target="0ZwLcZMTdDIrtVB83wTa-255">
          <mxGeometry relative="1" as="geometry" />
        </mxCell>
        <mxCell id="0ZwLcZMTdDIrtVB83wTa-257" style="edgeStyle=orthogonalEdgeStyle;rounded=0;orthogonalLoop=1;jettySize=auto;html=1;exitX=0;exitY=0.75;exitDx=0;exitDy=0;entryX=0.5;entryY=1;entryDx=0;entryDy=0;" edge="1" parent="1" source="0ZwLcZMTdDIrtVB83wTa-218" target="0ZwLcZMTdDIrtVB83wTa-254">
          <mxGeometry relative="1" as="geometry" />
        </mxCell>
        <mxCell id="0ZwLcZMTdDIrtVB83wTa-218" value="Botão branco &quot;Finalizar compra&quot;" style="rounded=0;whiteSpace=wrap;html=1;fillColor=#00BD00;" vertex="1" parent="1">
          <mxGeometry x="-1010" y="90" width="100" height="45" as="geometry" />
        </mxCell>
        <mxCell id="0ZwLcZMTdDIrtVB83wTa-219" value="Botão cinza &quot;Finalizar&quot;" style="rounded=0;whiteSpace=wrap;html=1;fillColor=#0046D1;" vertex="1" parent="1">
          <mxGeometry x="1980" y="-170" width="110" height="50" as="geometry" />
        </mxCell>
        <mxCell id="0ZwLcZMTdDIrtVB83wTa-220" style="edgeStyle=orthogonalEdgeStyle;rounded=0;orthogonalLoop=1;jettySize=auto;html=1;exitX=0.75;exitY=0;exitDx=0;exitDy=0;entryX=0.207;entryY=1.027;entryDx=0;entryDy=0;entryPerimeter=0;" edge="1" parent="1" source="0ZwLcZMTdDIrtVB83wTa-1" target="0ZwLcZMTdDIrtVB83wTa-219">
          <mxGeometry relative="1" as="geometry">
            <Array as="points">
              <mxPoint x="1915" y="-90" />
              <mxPoint x="2003" y="-90" />
            </Array>
          </mxGeometry>
        </mxCell>
        <mxCell id="0ZwLcZMTdDIrtVB83wTa-222" value="Rua" style="rounded=0;whiteSpace=wrap;html=1;fillColor=#00BD00;" vertex="1" parent="1">
          <mxGeometry x="-1380" y="-450" width="90" height="40" as="geometry" />
        </mxCell>
        <mxCell id="0ZwLcZMTdDIrtVB83wTa-223" value="CEP" style="rounded=0;whiteSpace=wrap;html=1;fillColor=#00BD00;" vertex="1" parent="1">
          <mxGeometry x="-1380" y="-388.75" width="90" height="40" as="geometry" />
        </mxCell>
        <mxCell id="0ZwLcZMTdDIrtVB83wTa-224" value="Número" style="rounded=0;whiteSpace=wrap;html=1;fillColor=#00BD00;" vertex="1" parent="1">
          <mxGeometry x="-1380" y="-330" width="90" height="40" as="geometry" />
        </mxCell>
        <mxCell id="0ZwLcZMTdDIrtVB83wTa-225" value="Complemento" style="rounded=0;whiteSpace=wrap;html=1;fillColor=#00BD00;" vertex="1" parent="1">
          <mxGeometry x="-1380" y="-270" width="90" height="40" as="geometry" />
        </mxCell>
        <mxCell id="0ZwLcZMTdDIrtVB83wTa-226" value="Cidade" style="rounded=0;whiteSpace=wrap;html=1;fillColor=#00BD00;" vertex="1" parent="1">
          <mxGeometry x="-1380" y="-150" width="90" height="40" as="geometry" />
        </mxCell>
        <mxCell id="0ZwLcZMTdDIrtVB83wTa-227" value="Bairro" style="rounded=0;whiteSpace=wrap;html=1;fillColor=#00BD00;" vertex="1" parent="1">
          <mxGeometry x="-1380" y="-210" width="90" height="40" as="geometry" />
        </mxCell>
        <mxCell id="0ZwLcZMTdDIrtVB83wTa-238" value="Número do cartão" style="rounded=0;whiteSpace=wrap;html=1;fillColor=#00BD00;" vertex="1" parent="1">
          <mxGeometry x="-979.9999999999995" y="-450" width="90" height="40" as="geometry" />
        </mxCell>
        <mxCell id="0ZwLcZMTdDIrtVB83wTa-239" value="Validade" style="rounded=0;whiteSpace=wrap;html=1;fillColor=#00BD00;" vertex="1" parent="1">
          <mxGeometry x="-979.9999999999995" y="-390.75" width="90" height="40" as="geometry" />
        </mxCell>
        <mxCell id="0ZwLcZMTdDIrtVB83wTa-240" value="Código de segurança" style="rounded=0;whiteSpace=wrap;html=1;fillColor=#00BD00;" vertex="1" parent="1">
          <mxGeometry x="-979.9999999999995" y="-330" width="90" height="40" as="geometry" />
        </mxCell>
        <mxCell id="0ZwLcZMTdDIrtVB83wTa-241" value="Nome no cartão" style="rounded=0;whiteSpace=wrap;html=1;fillColor=#00BD00;" vertex="1" parent="1">
          <mxGeometry x="-979.9999999999995" y="-270" width="90" height="40" as="geometry" />
        </mxCell>
        <mxCell id="0ZwLcZMTdDIrtVB83wTa-242" value="Bairro" style="rounded=0;whiteSpace=wrap;html=1;fillColor=#00BD00;" vertex="1" parent="1">
          <mxGeometry x="-979.9999999999995" y="-150" width="90" height="40" as="geometry" />
        </mxCell>
        <mxCell id="0ZwLcZMTdDIrtVB83wTa-243" value="Cidade" style="rounded=0;whiteSpace=wrap;html=1;fillColor=#00BD00;" vertex="1" parent="1">
          <mxGeometry x="-979.9999999999995" y="-208.75" width="90" height="40" as="geometry" />
        </mxCell>
        <mxCell id="0ZwLcZMTdDIrtVB83wTa-276" style="edgeStyle=orthogonalEdgeStyle;rounded=0;orthogonalLoop=1;jettySize=auto;html=1;exitX=0.75;exitY=0;exitDx=0;exitDy=0;entryX=0;entryY=0.5;entryDx=0;entryDy=0;" edge="1" parent="1" source="0ZwLcZMTdDIrtVB83wTa-254" target="0ZwLcZMTdDIrtVB83wTa-275">
          <mxGeometry relative="1" as="geometry" />
        </mxCell>
        <mxCell id="0ZwLcZMTdDIrtVB83wTa-254" value="Endereço de entrega" style="rounded=0;whiteSpace=wrap;html=1;fillColor=#005E00;" vertex="1" parent="1">
          <mxGeometry x="-1300" y="-20" width="100" height="45" as="geometry" />
        </mxCell>
        <mxCell id="0ZwLcZMTdDIrtVB83wTa-277" style="edgeStyle=orthogonalEdgeStyle;rounded=0;orthogonalLoop=1;jettySize=auto;html=1;exitX=0.25;exitY=0;exitDx=0;exitDy=0;entryX=1;entryY=0.5;entryDx=0;entryDy=0;" edge="1" parent="1" source="0ZwLcZMTdDIrtVB83wTa-255" target="0ZwLcZMTdDIrtVB83wTa-275">
          <mxGeometry relative="1" as="geometry" />
        </mxCell>
        <mxCell id="0ZwLcZMTdDIrtVB83wTa-255" value="Pagamento" style="rounded=0;whiteSpace=wrap;html=1;fillColor=#005E00;" vertex="1" parent="1">
          <mxGeometry x="-1090" y="-20" width="100" height="45" as="geometry" />
        </mxCell>
        <mxCell id="0ZwLcZMTdDIrtVB83wTa-275" value="Botâo cinza &quot;Finalizar&quot;" style="rounded=0;whiteSpace=wrap;html=1;fillColor=#00BD00;" vertex="1" parent="1">
          <mxGeometry x="-1190" y="-120" width="100" height="45" as="geometry" />
        </mxCell>
        <mxCell id="0ZwLcZMTdDIrtVB83wTa-278" value="" style="endArrow=none;html=1;rounded=0;" edge="1" parent="1">
          <mxGeometry width="50" height="50" relative="1" as="geometry">
            <mxPoint x="-1440" y="-130" as="sourcePoint" />
            <mxPoint x="-1440" y="-430" as="targetPoint" />
          </mxGeometry>
        </mxCell>
        <mxCell id="0ZwLcZMTdDIrtVB83wTa-279" value="" style="endArrow=none;html=1;rounded=0;entryX=0;entryY=0.5;entryDx=0;entryDy=0;" edge="1" parent="1" target="0ZwLcZMTdDIrtVB83wTa-226">
          <mxGeometry width="50" height="50" relative="1" as="geometry">
            <mxPoint x="-1440" y="-130" as="sourcePoint" />
            <mxPoint x="-1280" y="-150" as="targetPoint" />
          </mxGeometry>
        </mxCell>
        <mxCell id="0ZwLcZMTdDIrtVB83wTa-280" value="" style="endArrow=none;html=1;rounded=0;entryX=0;entryY=0.5;entryDx=0;entryDy=0;" edge="1" parent="1">
          <mxGeometry width="50" height="50" relative="1" as="geometry">
            <mxPoint x="-1440" y="-190.12" as="sourcePoint" />
            <mxPoint x="-1380" y="-190.12" as="targetPoint" />
          </mxGeometry>
        </mxCell>
        <mxCell id="0ZwLcZMTdDIrtVB83wTa-281" value="" style="endArrow=none;html=1;rounded=0;entryX=0;entryY=0.5;entryDx=0;entryDy=0;" edge="1" parent="1">
          <mxGeometry width="50" height="50" relative="1" as="geometry">
            <mxPoint x="-1440" y="-250.12" as="sourcePoint" />
            <mxPoint x="-1380" y="-250.12" as="targetPoint" />
          </mxGeometry>
        </mxCell>
        <mxCell id="0ZwLcZMTdDIrtVB83wTa-282" value="" style="endArrow=none;html=1;rounded=0;entryX=0;entryY=0.5;entryDx=0;entryDy=0;" edge="1" parent="1">
          <mxGeometry width="50" height="50" relative="1" as="geometry">
            <mxPoint x="-1440" y="-310.87" as="sourcePoint" />
            <mxPoint x="-1380" y="-310.87" as="targetPoint" />
          </mxGeometry>
        </mxCell>
        <mxCell id="0ZwLcZMTdDIrtVB83wTa-283" value="" style="endArrow=none;html=1;rounded=0;entryX=0;entryY=0.5;entryDx=0;entryDy=0;" edge="1" parent="1">
          <mxGeometry width="50" height="50" relative="1" as="geometry">
            <mxPoint x="-1440" y="-368.87" as="sourcePoint" />
            <mxPoint x="-1380" y="-368.87" as="targetPoint" />
          </mxGeometry>
        </mxCell>
        <mxCell id="0ZwLcZMTdDIrtVB83wTa-284" value="" style="endArrow=none;html=1;rounded=0;entryX=0;entryY=0.5;entryDx=0;entryDy=0;" edge="1" parent="1">
          <mxGeometry width="50" height="50" relative="1" as="geometry">
            <mxPoint x="-1440" y="-430.12" as="sourcePoint" />
            <mxPoint x="-1380" y="-430.12" as="targetPoint" />
          </mxGeometry>
        </mxCell>
        <mxCell id="0ZwLcZMTdDIrtVB83wTa-286" value="" style="endArrow=none;html=1;rounded=0;entryX=0;entryY=0.5;entryDx=0;entryDy=0;" edge="1" parent="1">
          <mxGeometry width="50" height="50" relative="1" as="geometry">
            <mxPoint x="-890" y="-430.25" as="sourcePoint" />
            <mxPoint x="-830" y="-430.25" as="targetPoint" />
          </mxGeometry>
        </mxCell>
        <mxCell id="0ZwLcZMTdDIrtVB83wTa-287" value="" style="endArrow=none;html=1;rounded=0;entryX=0;entryY=0.5;entryDx=0;entryDy=0;" edge="1" parent="1">
          <mxGeometry width="50" height="50" relative="1" as="geometry">
            <mxPoint x="-890" y="-369" as="sourcePoint" />
            <mxPoint x="-830" y="-369" as="targetPoint" />
          </mxGeometry>
        </mxCell>
        <mxCell id="0ZwLcZMTdDIrtVB83wTa-288" value="" style="endArrow=none;html=1;rounded=0;entryX=0;entryY=0.5;entryDx=0;entryDy=0;" edge="1" parent="1">
          <mxGeometry width="50" height="50" relative="1" as="geometry">
            <mxPoint x="-890" y="-310.25" as="sourcePoint" />
            <mxPoint x="-830" y="-310.25" as="targetPoint" />
          </mxGeometry>
        </mxCell>
        <mxCell id="0ZwLcZMTdDIrtVB83wTa-289" value="" style="endArrow=none;html=1;rounded=0;entryX=0;entryY=0.5;entryDx=0;entryDy=0;" edge="1" parent="1">
          <mxGeometry width="50" height="50" relative="1" as="geometry">
            <mxPoint x="-890" y="-250.25" as="sourcePoint" />
            <mxPoint x="-830" y="-250.25" as="targetPoint" />
          </mxGeometry>
        </mxCell>
        <mxCell id="0ZwLcZMTdDIrtVB83wTa-290" value="" style="endArrow=none;html=1;rounded=0;entryX=0;entryY=0.5;entryDx=0;entryDy=0;" edge="1" parent="1">
          <mxGeometry width="50" height="50" relative="1" as="geometry">
            <mxPoint x="-890" y="-189" as="sourcePoint" />
            <mxPoint x="-830" y="-189" as="targetPoint" />
          </mxGeometry>
        </mxCell>
        <mxCell id="0ZwLcZMTdDIrtVB83wTa-291" value="" style="endArrow=none;html=1;rounded=0;" edge="1" parent="1">
          <mxGeometry width="50" height="50" relative="1" as="geometry">
            <mxPoint x="-890" y="-130.25" as="sourcePoint" />
            <mxPoint x="-830" y="-130" as="targetPoint" />
          </mxGeometry>
        </mxCell>
        <mxCell id="0ZwLcZMTdDIrtVB83wTa-292" value="" style="endArrow=none;html=1;rounded=0;" edge="1" parent="1">
          <mxGeometry width="50" height="50" relative="1" as="geometry">
            <mxPoint x="-830" y="-129.79381443298968" as="sourcePoint" />
            <mxPoint x="-830" y="-430" as="targetPoint" />
          </mxGeometry>
        </mxCell>
        <mxCell id="0ZwLcZMTdDIrtVB83wTa-293" value="" style="endArrow=none;html=1;rounded=0;entryX=0.553;entryY=1.025;entryDx=0;entryDy=0;entryPerimeter=0;" edge="1" parent="1" target="0ZwLcZMTdDIrtVB83wTa-242">
          <mxGeometry width="50" height="50" relative="1" as="geometry">
            <mxPoint x="-930" y="10" as="sourcePoint" />
            <mxPoint x="-1060" y="-90" as="targetPoint" />
            <Array as="points">
              <mxPoint x="-930" y="-80" />
            </Array>
          </mxGeometry>
        </mxCell>
        <mxCell id="0ZwLcZMTdDIrtVB83wTa-294" value="" style="endArrow=none;html=1;rounded=0;entryX=0.5;entryY=1;entryDx=0;entryDy=0;" edge="1" parent="1">
          <mxGeometry width="50" height="50" relative="1" as="geometry">
            <mxPoint x="-1340" y="10" as="sourcePoint" />
            <mxPoint x="-1340" y="-110" as="targetPoint" />
          </mxGeometry>
        </mxCell>
        <mxCell id="0ZwLcZMTdDIrtVB83wTa-295" value="" style="endArrow=none;html=1;rounded=0;entryX=-0.015;entryY=0.668;entryDx=0;entryDy=0;entryPerimeter=0;" edge="1" parent="1" target="0ZwLcZMTdDIrtVB83wTa-254">
          <mxGeometry width="50" height="50" relative="1" as="geometry">
            <mxPoint x="-1340" y="10" as="sourcePoint" />
            <mxPoint x="-1250" y="-20" as="targetPoint" />
          </mxGeometry>
        </mxCell>
        <mxCell id="0ZwLcZMTdDIrtVB83wTa-296" value="" style="endArrow=none;html=1;rounded=0;exitX=1.016;exitY=0.661;exitDx=0;exitDy=0;exitPerimeter=0;" edge="1" parent="1" source="0ZwLcZMTdDIrtVB83wTa-255">
          <mxGeometry width="50" height="50" relative="1" as="geometry">
            <mxPoint x="-940" y="30" as="sourcePoint" />
            <mxPoint x="-930" y="10" as="targetPoint" />
          </mxGeometry>
        </mxCell>
      </root>
    </mxGraphModel>
  </diagram>
  <diagram id="PYJE67GGoG2mc8eSLMQS" name="Página-2">
    <mxGraphModel dx="960" dy="556" grid="1" gridSize="10" guides="1" tooltips="1" connect="1" arrows="1" fold="1" page="1" pageScale="1" pageWidth="827" pageHeight="1169" math="0" shadow="0">
      <root>
        <mxCell id="0" />
        <mxCell id="1" parent="0" />
        <mxCell id="m-lf0b_ML-JsjKGQysaS-1" value="Página inicial&lt;br&gt;Green Cycle&amp;nbsp;" style="rounded=1;whiteSpace=wrap;html=1;" vertex="1" parent="1">
          <mxGeometry x="393" y="160" width="120" height="60" as="geometry" />
        </mxCell>
        <mxCell id="RYDaZaUiNG7QXZ7X_jQv-1" value="Login&amp;nbsp;" style="rounded=1;whiteSpace=wrap;html=1;" vertex="1" parent="1">
          <mxGeometry x="230" y="140" width="100" height="50" as="geometry" />
        </mxCell>
        <mxCell id="RYDaZaUiNG7QXZ7X_jQv-2" value="Cadastro" style="rounded=1;whiteSpace=wrap;html=1;" vertex="1" parent="1">
          <mxGeometry x="230" y="200" width="100" height="50" as="geometry" />
        </mxCell>
        <mxCell id="RYDaZaUiNG7QXZ7X_jQv-3" value="Barra de navegação&amp;nbsp;" style="rounded=1;whiteSpace=wrap;html=1;" vertex="1" parent="1">
          <mxGeometry x="580" y="140" width="100" height="50" as="geometry" />
        </mxCell>
        <mxCell id="RYDaZaUiNG7QXZ7X_jQv-4" value="Breve apresentação sobre nós" style="rounded=1;whiteSpace=wrap;html=1;" vertex="1" parent="1">
          <mxGeometry x="580" y="200" width="100" height="50" as="geometry" />
        </mxCell>
        <mxCell id="RYDaZaUiNG7QXZ7X_jQv-9" value="" style="endArrow=classic;html=1;rounded=0;exitX=-0.005;exitY=0.333;exitDx=0;exitDy=0;exitPerimeter=0;entryX=1;entryY=0.5;entryDx=0;entryDy=0;" edge="1" parent="1" source="m-lf0b_ML-JsjKGQysaS-1" target="RYDaZaUiNG7QXZ7X_jQv-1">
          <mxGeometry width="50" height="50" relative="1" as="geometry">
            <mxPoint x="410" y="260" as="sourcePoint" />
            <mxPoint x="460" y="210" as="targetPoint" />
            <Array as="points">
              <mxPoint x="360" y="180" />
              <mxPoint x="360" y="165" />
            </Array>
          </mxGeometry>
        </mxCell>
        <mxCell id="RYDaZaUiNG7QXZ7X_jQv-10" value="" style="endArrow=classic;html=1;rounded=0;entryX=0.998;entryY=0.414;entryDx=0;entryDy=0;entryPerimeter=0;exitX=-0.004;exitY=0.668;exitDx=0;exitDy=0;exitPerimeter=0;" edge="1" parent="1" source="m-lf0b_ML-JsjKGQysaS-1" target="RYDaZaUiNG7QXZ7X_jQv-2">
          <mxGeometry width="50" height="50" relative="1" as="geometry">
            <mxPoint x="330" y="230" as="sourcePoint" />
            <mxPoint x="380" y="180" as="targetPoint" />
            <Array as="points">
              <mxPoint x="360" y="200" />
              <mxPoint x="360" y="220" />
            </Array>
          </mxGeometry>
        </mxCell>
        <mxCell id="RYDaZaUiNG7QXZ7X_jQv-11" value="" style="endArrow=classic;html=1;rounded=0;entryX=-0.008;entryY=0.413;entryDx=0;entryDy=0;entryPerimeter=0;exitX=0.993;exitY=0.344;exitDx=0;exitDy=0;exitPerimeter=0;" edge="1" parent="1" source="m-lf0b_ML-JsjKGQysaS-1" target="RYDaZaUiNG7QXZ7X_jQv-3">
          <mxGeometry width="50" height="50" relative="1" as="geometry">
            <mxPoint x="470" y="220" as="sourcePoint" />
            <mxPoint x="520" y="170" as="targetPoint" />
            <Array as="points">
              <mxPoint x="560" y="180" />
              <mxPoint x="560" y="160" />
            </Array>
          </mxGeometry>
        </mxCell>
        <mxCell id="RYDaZaUiNG7QXZ7X_jQv-12" value="" style="endArrow=classic;html=1;rounded=0;exitX=1;exitY=0.75;exitDx=0;exitDy=0;entryX=0;entryY=0.4;entryDx=0;entryDy=0;entryPerimeter=0;" edge="1" parent="1" source="m-lf0b_ML-JsjKGQysaS-1" target="RYDaZaUiNG7QXZ7X_jQv-4">
          <mxGeometry width="50" height="50" relative="1" as="geometry">
            <mxPoint x="540" y="240" as="sourcePoint" />
            <mxPoint x="590" y="190" as="targetPoint" />
            <Array as="points">
              <mxPoint x="560" y="205" />
              <mxPoint x="560" y="220" />
            </Array>
          </mxGeometry>
        </mxCell>
        <mxCell id="EBfDaISslmi6DbrBftus-3" style="edgeStyle=orthogonalEdgeStyle;rounded=0;orthogonalLoop=1;jettySize=auto;html=1;exitX=0.5;exitY=1;exitDx=0;exitDy=0;entryX=0.5;entryY=0;entryDx=0;entryDy=0;" edge="1" parent="1" source="RYDaZaUiNG7QXZ7X_jQv-13" target="RYDaZaUiNG7QXZ7X_jQv-27">
          <mxGeometry relative="1" as="geometry" />
        </mxCell>
        <mxCell id="RYDaZaUiNG7QXZ7X_jQv-13" value="Loja" style="rounded=1;whiteSpace=wrap;html=1;" vertex="1" parent="1">
          <mxGeometry x="403" y="260" width="100" height="50" as="geometry" />
        </mxCell>
        <mxCell id="RYDaZaUiNG7QXZ7X_jQv-15" value="" style="endArrow=none;html=1;rounded=0;" edge="1" parent="1">
          <mxGeometry width="50" height="50" relative="1" as="geometry">
            <mxPoint x="200" y="230" as="sourcePoint" />
            <mxPoint x="200" y="160" as="targetPoint" />
          </mxGeometry>
        </mxCell>
        <mxCell id="RYDaZaUiNG7QXZ7X_jQv-16" value="" style="endArrow=none;html=1;rounded=0;entryX=-0.001;entryY=0.595;entryDx=0;entryDy=0;entryPerimeter=0;" edge="1" parent="1" target="RYDaZaUiNG7QXZ7X_jQv-2">
          <mxGeometry width="50" height="50" relative="1" as="geometry">
            <mxPoint x="200" y="230" as="sourcePoint" />
            <mxPoint x="260" y="190" as="targetPoint" />
          </mxGeometry>
        </mxCell>
        <mxCell id="RYDaZaUiNG7QXZ7X_jQv-17" value="" style="endArrow=none;html=1;rounded=0;entryX=-0.009;entryY=0.597;entryDx=0;entryDy=0;entryPerimeter=0;" edge="1" parent="1">
          <mxGeometry width="50" height="50" relative="1" as="geometry">
            <mxPoint x="200" y="160" as="sourcePoint" />
            <mxPoint x="230" y="160" as="targetPoint" />
          </mxGeometry>
        </mxCell>
        <mxCell id="RYDaZaUiNG7QXZ7X_jQv-18" value="" style="endArrow=none;html=1;rounded=0;" edge="1" parent="1">
          <mxGeometry width="50" height="50" relative="1" as="geometry">
            <mxPoint x="710" y="230" as="sourcePoint" />
            <mxPoint x="710" y="160" as="targetPoint" />
          </mxGeometry>
        </mxCell>
        <mxCell id="RYDaZaUiNG7QXZ7X_jQv-19" value="" style="endArrow=none;html=1;rounded=0;entryX=-0.009;entryY=0.597;entryDx=0;entryDy=0;entryPerimeter=0;" edge="1" parent="1">
          <mxGeometry width="50" height="50" relative="1" as="geometry">
            <mxPoint x="680" y="160" as="sourcePoint" />
            <mxPoint x="710" y="160" as="targetPoint" />
          </mxGeometry>
        </mxCell>
        <mxCell id="RYDaZaUiNG7QXZ7X_jQv-20" value="" style="endArrow=none;html=1;rounded=0;entryX=-0.009;entryY=0.597;entryDx=0;entryDy=0;entryPerimeter=0;" edge="1" parent="1">
          <mxGeometry width="50" height="50" relative="1" as="geometry">
            <mxPoint x="680" y="230" as="sourcePoint" />
            <mxPoint x="710" y="230" as="targetPoint" />
          </mxGeometry>
        </mxCell>
        <mxCell id="RYDaZaUiNG7QXZ7X_jQv-21" value="" style="endArrow=none;html=1;rounded=0;" edge="1" parent="1">
          <mxGeometry width="50" height="50" relative="1" as="geometry">
            <mxPoint x="180" y="190" as="sourcePoint" />
            <mxPoint x="200" y="190" as="targetPoint" />
          </mxGeometry>
        </mxCell>
        <mxCell id="RYDaZaUiNG7QXZ7X_jQv-22" value="" style="endArrow=none;html=1;rounded=0;" edge="1" parent="1">
          <mxGeometry width="50" height="50" relative="1" as="geometry">
            <mxPoint x="180" y="280" as="sourcePoint" />
            <mxPoint x="180" y="190" as="targetPoint" />
          </mxGeometry>
        </mxCell>
        <mxCell id="RYDaZaUiNG7QXZ7X_jQv-23" value="" style="endArrow=none;html=1;rounded=0;entryX=-0.002;entryY=0.399;entryDx=0;entryDy=0;entryPerimeter=0;" edge="1" parent="1" target="RYDaZaUiNG7QXZ7X_jQv-13">
          <mxGeometry width="50" height="50" relative="1" as="geometry">
            <mxPoint x="180" y="280" as="sourcePoint" />
            <mxPoint x="400" y="280" as="targetPoint" />
          </mxGeometry>
        </mxCell>
        <mxCell id="RYDaZaUiNG7QXZ7X_jQv-24" value="" style="endArrow=none;html=1;rounded=0;" edge="1" parent="1">
          <mxGeometry width="50" height="50" relative="1" as="geometry">
            <mxPoint x="710" y="189.62" as="sourcePoint" />
            <mxPoint x="730" y="189.62" as="targetPoint" />
          </mxGeometry>
        </mxCell>
        <mxCell id="RYDaZaUiNG7QXZ7X_jQv-25" value="" style="endArrow=none;html=1;rounded=0;" edge="1" parent="1">
          <mxGeometry width="50" height="50" relative="1" as="geometry">
            <mxPoint x="730" y="280" as="sourcePoint" />
            <mxPoint x="730" y="190" as="targetPoint" />
          </mxGeometry>
        </mxCell>
        <mxCell id="RYDaZaUiNG7QXZ7X_jQv-26" value="" style="endArrow=none;html=1;rounded=0;" edge="1" parent="1">
          <mxGeometry width="50" height="50" relative="1" as="geometry">
            <mxPoint x="503" y="280" as="sourcePoint" />
            <mxPoint x="730" y="280" as="targetPoint" />
          </mxGeometry>
        </mxCell>
        <mxCell id="EBfDaISslmi6DbrBftus-4" style="edgeStyle=orthogonalEdgeStyle;rounded=0;orthogonalLoop=1;jettySize=auto;html=1;exitX=0.5;exitY=1;exitDx=0;exitDy=0;entryX=0.5;entryY=0;entryDx=0;entryDy=0;" edge="1" parent="1" source="RYDaZaUiNG7QXZ7X_jQv-27" target="EBfDaISslmi6DbrBftus-1">
          <mxGeometry relative="1" as="geometry" />
        </mxCell>
        <mxCell id="RYDaZaUiNG7QXZ7X_jQv-27" value="Sacola" style="rounded=1;whiteSpace=wrap;html=1;" vertex="1" parent="1">
          <mxGeometry x="403" y="330" width="100" height="50" as="geometry" />
        </mxCell>
        <mxCell id="EBfDaISslmi6DbrBftus-5" style="edgeStyle=orthogonalEdgeStyle;rounded=0;orthogonalLoop=1;jettySize=auto;html=1;exitX=0.5;exitY=1;exitDx=0;exitDy=0;entryX=0.5;entryY=0;entryDx=0;entryDy=0;" edge="1" parent="1" source="EBfDaISslmi6DbrBftus-1" target="EBfDaISslmi6DbrBftus-2">
          <mxGeometry relative="1" as="geometry" />
        </mxCell>
        <mxCell id="EBfDaISslmi6DbrBftus-1" value="Checkout" style="rounded=1;whiteSpace=wrap;html=1;" vertex="1" parent="1">
          <mxGeometry x="403" y="410" width="100" height="50" as="geometry" />
        </mxCell>
        <mxCell id="EBfDaISslmi6DbrBftus-2" value="Finalizar compra" style="rounded=1;whiteSpace=wrap;html=1;" vertex="1" parent="1">
          <mxGeometry x="403" y="480" width="100" height="50" as="geometry" />
        </mxCell>
      </root>
    </mxGraphModel>
  </diagram>
</mxfile>
